G04 EAGLE Gerber RS-274X export*
G75*
%MOMM*%
%FSLAX34Y34*%
%LPD*%
%INTop Copper*%
%IPPOS*%
%AMOC8*
5,1,8,0,0,1.08239X$1,22.5*%
G01*
%ADD10R,1.800000X1.600000*%
%ADD11R,0.609600X2.209800*%
%ADD12C,2.400000*%
%ADD13R,2.800000X2.400000*%
%ADD14C,1.320800*%
%ADD15P,1.924489X8X22.500000*%
%ADD16R,1.500000X1.300000*%
%ADD17R,1.500000X1.600000*%
%ADD18R,1.200000X1.200000*%
%ADD19C,0.152400*%
%ADD20C,0.756400*%

G36*
X118157Y10163D02*
X118157Y10163D01*
X118169Y10161D01*
X118278Y10182D01*
X118388Y10200D01*
X118399Y10206D01*
X118410Y10208D01*
X118507Y10264D01*
X118606Y10316D01*
X118614Y10324D01*
X118624Y10330D01*
X118698Y10413D01*
X118775Y10494D01*
X118780Y10505D01*
X118788Y10514D01*
X118832Y10616D01*
X118879Y10717D01*
X118880Y10729D01*
X118885Y10740D01*
X118893Y10851D01*
X118906Y10961D01*
X118903Y10973D01*
X118904Y10985D01*
X118877Y11093D01*
X118853Y11202D01*
X118847Y11212D01*
X118844Y11224D01*
X118761Y11369D01*
X118464Y11779D01*
X117425Y13818D01*
X116717Y15995D01*
X116419Y17877D01*
X130138Y17877D01*
X130158Y17880D01*
X130177Y17878D01*
X130279Y17900D01*
X130381Y17917D01*
X130398Y17926D01*
X130418Y17930D01*
X130507Y17983D01*
X130598Y18032D01*
X130612Y18046D01*
X130629Y18056D01*
X130696Y18135D01*
X130767Y18210D01*
X130776Y18228D01*
X130789Y18243D01*
X130827Y18339D01*
X130871Y18433D01*
X130873Y18453D01*
X130881Y18471D01*
X130899Y18638D01*
X130899Y19401D01*
X131662Y19401D01*
X131682Y19404D01*
X131701Y19402D01*
X131803Y19424D01*
X131905Y19441D01*
X131922Y19450D01*
X131942Y19454D01*
X132031Y19507D01*
X132122Y19556D01*
X132136Y19570D01*
X132153Y19580D01*
X132220Y19659D01*
X132291Y19734D01*
X132300Y19752D01*
X132313Y19767D01*
X132352Y19863D01*
X132395Y19957D01*
X132397Y19977D01*
X132405Y19995D01*
X132423Y20162D01*
X132423Y33881D01*
X134305Y33583D01*
X136482Y32875D01*
X138521Y31836D01*
X140373Y30491D01*
X141524Y29340D01*
X141561Y29313D01*
X141592Y29279D01*
X141661Y29242D01*
X141724Y29196D01*
X141767Y29183D01*
X141808Y29161D01*
X141884Y29147D01*
X141959Y29124D01*
X142005Y29125D01*
X142050Y29117D01*
X142127Y29128D01*
X142205Y29130D01*
X142248Y29146D01*
X142293Y29153D01*
X142362Y29188D01*
X142436Y29215D01*
X142472Y29243D01*
X142512Y29264D01*
X142567Y29320D01*
X142628Y29368D01*
X142653Y29407D01*
X142685Y29440D01*
X142751Y29560D01*
X142761Y29575D01*
X142762Y29580D01*
X142766Y29587D01*
X144961Y34887D01*
X150913Y40839D01*
X158691Y44061D01*
X167109Y44061D01*
X174887Y40839D01*
X180839Y34887D01*
X183162Y29278D01*
X183187Y29239D01*
X183202Y29196D01*
X183251Y29135D01*
X183292Y29069D01*
X183327Y29040D01*
X183356Y29004D01*
X183422Y28962D01*
X183482Y28912D01*
X183524Y28895D01*
X183563Y28871D01*
X183639Y28852D01*
X183711Y28824D01*
X183757Y28822D01*
X183802Y28811D01*
X183879Y28817D01*
X183957Y28813D01*
X184001Y28826D01*
X184047Y28830D01*
X184118Y28860D01*
X184193Y28882D01*
X184231Y28908D01*
X184273Y28926D01*
X184380Y29011D01*
X184395Y29022D01*
X184398Y29026D01*
X184404Y29031D01*
X186239Y30866D01*
X191210Y32925D01*
X196590Y32925D01*
X201561Y30866D01*
X205366Y27061D01*
X207425Y22090D01*
X207425Y16710D01*
X205366Y11739D01*
X205087Y11460D01*
X205045Y11402D01*
X204996Y11350D01*
X204974Y11303D01*
X204944Y11261D01*
X204922Y11192D01*
X204892Y11127D01*
X204887Y11075D01*
X204871Y11025D01*
X204873Y10954D01*
X204865Y10883D01*
X204876Y10832D01*
X204878Y10780D01*
X204902Y10712D01*
X204917Y10642D01*
X204944Y10597D01*
X204962Y10549D01*
X205007Y10493D01*
X205044Y10431D01*
X205083Y10397D01*
X205116Y10357D01*
X205176Y10318D01*
X205231Y10271D01*
X205279Y10252D01*
X205323Y10224D01*
X205392Y10206D01*
X205459Y10179D01*
X205530Y10171D01*
X205561Y10163D01*
X205584Y10165D01*
X205625Y10161D01*
X245175Y10161D01*
X245245Y10172D01*
X245317Y10174D01*
X245366Y10192D01*
X245417Y10200D01*
X245481Y10234D01*
X245548Y10259D01*
X245589Y10291D01*
X245635Y10316D01*
X245684Y10367D01*
X245740Y10412D01*
X245768Y10456D01*
X245804Y10494D01*
X245834Y10559D01*
X245873Y10619D01*
X245886Y10670D01*
X245908Y10717D01*
X245916Y10788D01*
X245933Y10858D01*
X245929Y10910D01*
X245935Y10961D01*
X245920Y11032D01*
X245914Y11103D01*
X245894Y11151D01*
X245883Y11202D01*
X245846Y11263D01*
X245818Y11329D01*
X245773Y11385D01*
X245756Y11413D01*
X245739Y11428D01*
X245713Y11460D01*
X245434Y11739D01*
X243375Y16710D01*
X243375Y22090D01*
X245434Y27061D01*
X249239Y30866D01*
X254210Y32925D01*
X259590Y32925D01*
X264561Y30866D01*
X268366Y27061D01*
X270397Y22157D01*
X270459Y22057D01*
X270519Y21957D01*
X270524Y21953D01*
X270527Y21948D01*
X270616Y21873D01*
X270706Y21797D01*
X270712Y21795D01*
X270716Y21791D01*
X270824Y21749D01*
X270934Y21705D01*
X270941Y21704D01*
X270946Y21703D01*
X270964Y21702D01*
X271101Y21687D01*
X336937Y21687D01*
X337028Y21701D01*
X337118Y21709D01*
X337148Y21721D01*
X337180Y21726D01*
X337261Y21769D01*
X337345Y21805D01*
X337377Y21831D01*
X337398Y21842D01*
X337420Y21865D01*
X337476Y21910D01*
X370252Y54686D01*
X370305Y54760D01*
X370365Y54830D01*
X370377Y54860D01*
X370396Y54886D01*
X370423Y54973D01*
X370457Y55058D01*
X370461Y55099D01*
X370468Y55121D01*
X370467Y55153D01*
X370475Y55225D01*
X370475Y69175D01*
X370461Y69266D01*
X370453Y69356D01*
X370441Y69386D01*
X370436Y69418D01*
X370393Y69499D01*
X370357Y69583D01*
X370331Y69615D01*
X370320Y69636D01*
X370297Y69658D01*
X370252Y69714D01*
X310076Y129890D01*
X310002Y129943D01*
X309932Y130003D01*
X309902Y130015D01*
X309876Y130034D01*
X309789Y130061D01*
X309704Y130095D01*
X309663Y130099D01*
X309641Y130106D01*
X309609Y130105D01*
X309537Y130113D01*
X271101Y130113D01*
X270986Y130094D01*
X270870Y130077D01*
X270864Y130075D01*
X270858Y130074D01*
X270755Y130019D01*
X270650Y129966D01*
X270646Y129961D01*
X270640Y129958D01*
X270561Y129874D01*
X270478Y129790D01*
X270474Y129784D01*
X270471Y129780D01*
X270463Y129763D01*
X270397Y129643D01*
X268366Y124739D01*
X264561Y120934D01*
X259590Y118875D01*
X254210Y118875D01*
X249239Y120934D01*
X245434Y124739D01*
X243375Y129710D01*
X243375Y135090D01*
X245434Y140061D01*
X249239Y143866D01*
X254210Y145925D01*
X259590Y145925D01*
X264561Y143866D01*
X268366Y140061D01*
X270397Y135157D01*
X270459Y135057D01*
X270519Y134957D01*
X270524Y134953D01*
X270527Y134948D01*
X270616Y134873D01*
X270706Y134797D01*
X270712Y134795D01*
X270716Y134791D01*
X270824Y134749D01*
X270934Y134705D01*
X270941Y134704D01*
X270946Y134703D01*
X270964Y134702D01*
X271101Y134687D01*
X311747Y134687D01*
X374486Y71948D01*
X374560Y71895D01*
X374630Y71835D01*
X374660Y71823D01*
X374686Y71804D01*
X374773Y71777D01*
X374858Y71743D01*
X374899Y71739D01*
X374921Y71732D01*
X374953Y71733D01*
X375025Y71725D01*
X390632Y71725D01*
X391525Y70832D01*
X391525Y53568D01*
X390632Y52675D01*
X375025Y52675D01*
X374934Y52661D01*
X374844Y52653D01*
X374814Y52641D01*
X374782Y52636D01*
X374701Y52593D01*
X374617Y52557D01*
X374585Y52531D01*
X374564Y52520D01*
X374542Y52497D01*
X374486Y52452D01*
X339147Y17113D01*
X271101Y17113D01*
X270986Y17094D01*
X270870Y17077D01*
X270864Y17075D01*
X270858Y17074D01*
X270755Y17019D01*
X270650Y16966D01*
X270646Y16961D01*
X270640Y16958D01*
X270561Y16874D01*
X270478Y16790D01*
X270474Y16784D01*
X270471Y16780D01*
X270463Y16763D01*
X270397Y16643D01*
X268366Y11739D01*
X268087Y11460D01*
X268045Y11402D01*
X267996Y11350D01*
X267974Y11303D01*
X267944Y11261D01*
X267922Y11192D01*
X267892Y11127D01*
X267887Y11075D01*
X267871Y11025D01*
X267873Y10954D01*
X267865Y10883D01*
X267876Y10832D01*
X267878Y10780D01*
X267902Y10712D01*
X267917Y10642D01*
X267944Y10597D01*
X267962Y10549D01*
X268007Y10493D01*
X268044Y10431D01*
X268083Y10397D01*
X268116Y10357D01*
X268176Y10318D01*
X268231Y10271D01*
X268279Y10252D01*
X268323Y10224D01*
X268392Y10206D01*
X268459Y10179D01*
X268530Y10171D01*
X268561Y10163D01*
X268584Y10165D01*
X268625Y10161D01*
X417578Y10161D01*
X417598Y10164D01*
X417617Y10162D01*
X417719Y10184D01*
X417821Y10200D01*
X417838Y10210D01*
X417858Y10214D01*
X417947Y10267D01*
X418038Y10316D01*
X418052Y10330D01*
X418069Y10340D01*
X418136Y10419D01*
X418208Y10494D01*
X418216Y10512D01*
X418229Y10527D01*
X418268Y10623D01*
X418311Y10717D01*
X418313Y10737D01*
X418321Y10755D01*
X418339Y10922D01*
X418339Y662078D01*
X418336Y662098D01*
X418338Y662117D01*
X418316Y662219D01*
X418300Y662321D01*
X418290Y662338D01*
X418286Y662358D01*
X418233Y662447D01*
X418184Y662538D01*
X418170Y662552D01*
X418160Y662569D01*
X418081Y662636D01*
X418006Y662708D01*
X417988Y662716D01*
X417973Y662729D01*
X417877Y662768D01*
X417783Y662811D01*
X417763Y662813D01*
X417745Y662821D01*
X417578Y662839D01*
X339127Y662839D01*
X339115Y662837D01*
X339104Y662839D01*
X338994Y662818D01*
X338885Y662800D01*
X338874Y662794D01*
X338862Y662792D01*
X338765Y662736D01*
X338667Y662684D01*
X338659Y662676D01*
X338648Y662670D01*
X338574Y662587D01*
X338498Y662506D01*
X338493Y662495D01*
X338485Y662486D01*
X338441Y662384D01*
X338394Y662283D01*
X338393Y662271D01*
X338388Y662260D01*
X338379Y662149D01*
X338367Y662039D01*
X338370Y662027D01*
X338369Y662015D01*
X338396Y661907D01*
X338419Y661798D01*
X338425Y661788D01*
X338428Y661776D01*
X338511Y661631D01*
X338736Y661321D01*
X339775Y659282D01*
X340483Y657105D01*
X340781Y655223D01*
X327062Y655223D01*
X327042Y655220D01*
X327023Y655222D01*
X326921Y655200D01*
X326819Y655183D01*
X326802Y655174D01*
X326782Y655170D01*
X326693Y655117D01*
X326602Y655068D01*
X326588Y655054D01*
X326571Y655044D01*
X326504Y654965D01*
X326433Y654890D01*
X326424Y654872D01*
X326411Y654857D01*
X326373Y654761D01*
X326329Y654667D01*
X326327Y654647D01*
X326319Y654629D01*
X326301Y654462D01*
X326301Y653699D01*
X325538Y653699D01*
X325518Y653696D01*
X325499Y653698D01*
X325397Y653676D01*
X325295Y653659D01*
X325278Y653650D01*
X325258Y653646D01*
X325169Y653593D01*
X325078Y653544D01*
X325064Y653530D01*
X325047Y653520D01*
X324980Y653441D01*
X324909Y653366D01*
X324900Y653348D01*
X324887Y653333D01*
X324848Y653237D01*
X324805Y653143D01*
X324803Y653123D01*
X324795Y653105D01*
X324777Y652938D01*
X324777Y639219D01*
X322895Y639517D01*
X320718Y640225D01*
X318679Y641264D01*
X316827Y642609D01*
X315676Y643760D01*
X315639Y643787D01*
X315608Y643821D01*
X315539Y643858D01*
X315476Y643904D01*
X315433Y643917D01*
X315392Y643939D01*
X315316Y643953D01*
X315241Y643976D01*
X315195Y643975D01*
X315150Y643983D01*
X315073Y643972D01*
X314995Y643970D01*
X314952Y643954D01*
X314907Y643947D01*
X314838Y643912D01*
X314764Y643885D01*
X314729Y643857D01*
X314688Y643836D01*
X314633Y643780D01*
X314572Y643732D01*
X314548Y643693D01*
X314515Y643660D01*
X314449Y643540D01*
X314439Y643525D01*
X314438Y643520D01*
X314434Y643513D01*
X312239Y638213D01*
X306287Y632261D01*
X298509Y629039D01*
X290091Y629039D01*
X282313Y632261D01*
X276361Y638213D01*
X274038Y643822D01*
X274013Y643861D01*
X273998Y643904D01*
X273949Y643965D01*
X273924Y644005D01*
X273920Y644012D01*
X273908Y644031D01*
X273873Y644060D01*
X273844Y644096D01*
X273778Y644138D01*
X273718Y644188D01*
X273676Y644205D01*
X273637Y644229D01*
X273561Y644248D01*
X273489Y644276D01*
X273443Y644278D01*
X273398Y644289D01*
X273321Y644283D01*
X273243Y644287D01*
X273199Y644274D01*
X273153Y644270D01*
X273091Y644244D01*
X273081Y644242D01*
X273071Y644237D01*
X273007Y644218D01*
X272969Y644192D01*
X272927Y644174D01*
X272877Y644134D01*
X272864Y644127D01*
X272850Y644112D01*
X272820Y644089D01*
X272805Y644078D01*
X272802Y644074D01*
X272796Y644069D01*
X270961Y642234D01*
X265990Y640175D01*
X260610Y640175D01*
X255639Y642234D01*
X251834Y646039D01*
X249775Y651010D01*
X249775Y656390D01*
X251834Y661361D01*
X252013Y661540D01*
X252055Y661598D01*
X252104Y661650D01*
X252126Y661697D01*
X252156Y661739D01*
X252178Y661808D01*
X252208Y661873D01*
X252213Y661925D01*
X252229Y661975D01*
X252227Y662046D01*
X252235Y662117D01*
X252224Y662168D01*
X252222Y662220D01*
X252198Y662288D01*
X252183Y662358D01*
X252156Y662403D01*
X252138Y662451D01*
X252093Y662507D01*
X252056Y662569D01*
X252017Y662603D01*
X251984Y662643D01*
X251924Y662682D01*
X251869Y662729D01*
X251821Y662748D01*
X251777Y662776D01*
X251708Y662794D01*
X251641Y662821D01*
X251570Y662829D01*
X251539Y662837D01*
X251516Y662835D01*
X251475Y662839D01*
X212125Y662839D01*
X212055Y662828D01*
X211983Y662826D01*
X211934Y662808D01*
X211883Y662800D01*
X211819Y662766D01*
X211752Y662741D01*
X211711Y662709D01*
X211665Y662684D01*
X211616Y662633D01*
X211560Y662588D01*
X211532Y662544D01*
X211496Y662506D01*
X211466Y662441D01*
X211427Y662381D01*
X211414Y662330D01*
X211392Y662283D01*
X211384Y662212D01*
X211367Y662142D01*
X211371Y662090D01*
X211365Y662039D01*
X211380Y661968D01*
X211386Y661897D01*
X211406Y661849D01*
X211417Y661798D01*
X211454Y661737D01*
X211482Y661671D01*
X211527Y661615D01*
X211544Y661587D01*
X211561Y661572D01*
X211587Y661540D01*
X211766Y661361D01*
X213825Y656390D01*
X213825Y651010D01*
X211766Y646039D01*
X207961Y642234D01*
X202990Y640175D01*
X197610Y640175D01*
X192639Y642234D01*
X188834Y646039D01*
X186803Y650943D01*
X186741Y651043D01*
X186681Y651143D01*
X186676Y651147D01*
X186673Y651152D01*
X186584Y651227D01*
X186494Y651303D01*
X186488Y651305D01*
X186484Y651309D01*
X186376Y651351D01*
X186266Y651395D01*
X186259Y651396D01*
X186254Y651397D01*
X186236Y651398D01*
X186099Y651413D01*
X74676Y651413D01*
X74656Y651410D01*
X74637Y651412D01*
X74535Y651390D01*
X74433Y651374D01*
X74416Y651364D01*
X74396Y651360D01*
X74307Y651307D01*
X74216Y651258D01*
X74202Y651244D01*
X74185Y651234D01*
X74118Y651155D01*
X74046Y651080D01*
X74038Y651062D01*
X74025Y651047D01*
X73986Y650951D01*
X73943Y650857D01*
X73941Y650837D01*
X73933Y650819D01*
X73915Y650652D01*
X73915Y643386D01*
X67814Y637285D01*
X59186Y637285D01*
X53085Y643386D01*
X53085Y652014D01*
X59186Y658115D01*
X67814Y658115D01*
X69719Y656210D01*
X69793Y656157D01*
X69862Y656097D01*
X69893Y656085D01*
X69919Y656066D01*
X70006Y656039D01*
X70091Y656005D01*
X70131Y656001D01*
X70154Y655994D01*
X70186Y655995D01*
X70257Y655987D01*
X186099Y655987D01*
X186214Y656006D01*
X186330Y656023D01*
X186336Y656025D01*
X186342Y656026D01*
X186445Y656081D01*
X186550Y656134D01*
X186554Y656139D01*
X186560Y656142D01*
X186639Y656226D01*
X186722Y656310D01*
X186726Y656316D01*
X186729Y656320D01*
X186737Y656337D01*
X186803Y656457D01*
X188834Y661361D01*
X189013Y661540D01*
X189055Y661598D01*
X189104Y661650D01*
X189126Y661697D01*
X189156Y661739D01*
X189178Y661808D01*
X189208Y661873D01*
X189213Y661925D01*
X189229Y661975D01*
X189227Y662046D01*
X189235Y662117D01*
X189224Y662168D01*
X189222Y662220D01*
X189198Y662288D01*
X189183Y662358D01*
X189156Y662403D01*
X189138Y662451D01*
X189093Y662507D01*
X189056Y662569D01*
X189017Y662603D01*
X188984Y662643D01*
X188924Y662682D01*
X188869Y662729D01*
X188821Y662748D01*
X188777Y662776D01*
X188708Y662794D01*
X188641Y662821D01*
X188570Y662829D01*
X188539Y662837D01*
X188516Y662835D01*
X188475Y662839D01*
X10922Y662839D01*
X10902Y662836D01*
X10883Y662838D01*
X10781Y662816D01*
X10679Y662800D01*
X10662Y662790D01*
X10642Y662786D01*
X10553Y662733D01*
X10462Y662684D01*
X10448Y662670D01*
X10431Y662660D01*
X10364Y662581D01*
X10292Y662506D01*
X10284Y662488D01*
X10271Y662473D01*
X10232Y662377D01*
X10189Y662283D01*
X10187Y662263D01*
X10179Y662245D01*
X10161Y662078D01*
X10161Y10922D01*
X10164Y10902D01*
X10162Y10883D01*
X10184Y10781D01*
X10200Y10679D01*
X10210Y10662D01*
X10214Y10642D01*
X10267Y10553D01*
X10316Y10462D01*
X10330Y10448D01*
X10340Y10431D01*
X10419Y10364D01*
X10494Y10292D01*
X10512Y10284D01*
X10527Y10271D01*
X10623Y10232D01*
X10717Y10189D01*
X10737Y10187D01*
X10755Y10179D01*
X10922Y10161D01*
X118145Y10161D01*
X118157Y10163D01*
G37*
%LPC*%
G36*
X371368Y80675D02*
X371368Y80675D01*
X370475Y81568D01*
X370475Y95875D01*
X370461Y95966D01*
X370453Y96056D01*
X370441Y96086D01*
X370436Y96118D01*
X370393Y96199D01*
X370357Y96283D01*
X370331Y96315D01*
X370320Y96336D01*
X370297Y96358D01*
X370252Y96414D01*
X223871Y242795D01*
X223855Y242807D01*
X223843Y242822D01*
X223755Y242878D01*
X223671Y242938D01*
X223653Y242944D01*
X223636Y242955D01*
X223535Y242980D01*
X223436Y243011D01*
X223416Y243010D01*
X223397Y243015D01*
X223294Y243007D01*
X223190Y243004D01*
X223172Y242998D01*
X223152Y242996D01*
X223057Y242956D01*
X222959Y242920D01*
X222944Y242907D01*
X222926Y242900D01*
X222795Y242795D01*
X220505Y240505D01*
X218657Y239739D01*
X218557Y239677D01*
X218457Y239618D01*
X218453Y239613D01*
X218448Y239610D01*
X218373Y239519D01*
X218297Y239431D01*
X218295Y239425D01*
X218291Y239420D01*
X218249Y239312D01*
X218205Y239203D01*
X218204Y239195D01*
X218203Y239191D01*
X218202Y239172D01*
X218187Y239036D01*
X218187Y214953D01*
X204147Y200913D01*
X87376Y200913D01*
X87356Y200910D01*
X87337Y200912D01*
X87235Y200890D01*
X87133Y200874D01*
X87116Y200864D01*
X87096Y200860D01*
X87007Y200807D01*
X86916Y200758D01*
X86902Y200744D01*
X86885Y200734D01*
X86818Y200655D01*
X86746Y200580D01*
X86738Y200562D01*
X86725Y200547D01*
X86686Y200451D01*
X86643Y200357D01*
X86641Y200337D01*
X86633Y200319D01*
X86615Y200152D01*
X86615Y198886D01*
X80514Y192785D01*
X71886Y192785D01*
X65785Y198886D01*
X65785Y207514D01*
X71886Y213615D01*
X80514Y213615D01*
X86615Y207514D01*
X86615Y206248D01*
X86618Y206228D01*
X86616Y206209D01*
X86638Y206107D01*
X86654Y206005D01*
X86664Y205988D01*
X86668Y205968D01*
X86721Y205879D01*
X86770Y205788D01*
X86784Y205774D01*
X86794Y205757D01*
X86873Y205690D01*
X86948Y205618D01*
X86966Y205610D01*
X86981Y205597D01*
X87077Y205558D01*
X87171Y205515D01*
X87191Y205513D01*
X87209Y205505D01*
X87376Y205487D01*
X201937Y205487D01*
X202028Y205501D01*
X202118Y205509D01*
X202148Y205521D01*
X202180Y205526D01*
X202261Y205569D01*
X202345Y205605D01*
X202377Y205631D01*
X202398Y205642D01*
X202420Y205665D01*
X202476Y205710D01*
X213390Y216624D01*
X213443Y216698D01*
X213503Y216768D01*
X213515Y216798D01*
X213534Y216824D01*
X213561Y216911D01*
X213595Y216996D01*
X213599Y217037D01*
X213606Y217059D01*
X213605Y217091D01*
X213613Y217163D01*
X213613Y239036D01*
X213594Y239151D01*
X213577Y239267D01*
X213575Y239273D01*
X213574Y239279D01*
X213519Y239381D01*
X213466Y239486D01*
X213461Y239491D01*
X213458Y239496D01*
X213374Y239576D01*
X213290Y239659D01*
X213284Y239662D01*
X213280Y239666D01*
X213263Y239673D01*
X213143Y239739D01*
X211295Y240505D01*
X209009Y242791D01*
X207771Y245779D01*
X207771Y262221D01*
X209009Y265209D01*
X211295Y267495D01*
X213143Y268261D01*
X213243Y268323D01*
X213343Y268382D01*
X213347Y268387D01*
X213352Y268390D01*
X213427Y268481D01*
X213503Y268569D01*
X213505Y268575D01*
X213509Y268580D01*
X213551Y268688D01*
X213595Y268797D01*
X213596Y268805D01*
X213597Y268809D01*
X213598Y268828D01*
X213613Y268964D01*
X213613Y305747D01*
X222103Y314237D01*
X261114Y314237D01*
X261134Y314240D01*
X261153Y314238D01*
X261255Y314260D01*
X261357Y314276D01*
X261374Y314286D01*
X261394Y314290D01*
X261483Y314343D01*
X261574Y314392D01*
X261588Y314406D01*
X261605Y314416D01*
X261672Y314495D01*
X261744Y314570D01*
X261752Y314588D01*
X261765Y314603D01*
X261804Y314699D01*
X261847Y314793D01*
X261849Y314813D01*
X261857Y314831D01*
X261875Y314998D01*
X261875Y318582D01*
X262768Y319475D01*
X276032Y319475D01*
X276925Y318582D01*
X276925Y305318D01*
X276032Y304425D01*
X262768Y304425D01*
X261875Y305318D01*
X261875Y308902D01*
X261872Y308922D01*
X261874Y308941D01*
X261852Y309043D01*
X261836Y309145D01*
X261826Y309162D01*
X261822Y309182D01*
X261769Y309271D01*
X261720Y309362D01*
X261706Y309376D01*
X261696Y309393D01*
X261617Y309460D01*
X261542Y309532D01*
X261524Y309540D01*
X261509Y309553D01*
X261413Y309592D01*
X261319Y309635D01*
X261299Y309637D01*
X261281Y309645D01*
X261114Y309663D01*
X224313Y309663D01*
X224222Y309649D01*
X224132Y309641D01*
X224102Y309629D01*
X224070Y309624D01*
X223989Y309581D01*
X223905Y309545D01*
X223873Y309519D01*
X223852Y309508D01*
X223830Y309485D01*
X223774Y309440D01*
X218410Y304076D01*
X218357Y304002D01*
X218297Y303932D01*
X218285Y303902D01*
X218266Y303876D01*
X218239Y303789D01*
X218205Y303704D01*
X218201Y303663D01*
X218194Y303641D01*
X218195Y303609D01*
X218187Y303537D01*
X218187Y268964D01*
X218189Y268953D01*
X218188Y268946D01*
X218195Y268912D01*
X218206Y268849D01*
X218223Y268733D01*
X218225Y268727D01*
X218226Y268721D01*
X218281Y268619D01*
X218334Y268514D01*
X218339Y268509D01*
X218342Y268504D01*
X218426Y268424D01*
X218510Y268341D01*
X218516Y268338D01*
X218520Y268334D01*
X218537Y268327D01*
X218657Y268261D01*
X220505Y267495D01*
X222791Y265209D01*
X224029Y262221D01*
X224029Y249421D01*
X224043Y249330D01*
X224051Y249240D01*
X224063Y249210D01*
X224068Y249178D01*
X224111Y249097D01*
X224147Y249013D01*
X224173Y248981D01*
X224184Y248960D01*
X224207Y248938D01*
X224252Y248882D01*
X373186Y99948D01*
X373260Y99895D01*
X373330Y99835D01*
X373360Y99823D01*
X373386Y99804D01*
X373473Y99777D01*
X373558Y99743D01*
X373599Y99739D01*
X373621Y99732D01*
X373653Y99733D01*
X373725Y99725D01*
X390632Y99725D01*
X391525Y98832D01*
X391525Y81568D01*
X390632Y80675D01*
X371368Y80675D01*
G37*
%LPD*%
%LPC*%
G36*
X334768Y433275D02*
X334768Y433275D01*
X333875Y434168D01*
X333875Y438252D01*
X333872Y438272D01*
X333874Y438291D01*
X333852Y438393D01*
X333836Y438495D01*
X333826Y438512D01*
X333822Y438532D01*
X333769Y438621D01*
X333720Y438712D01*
X333706Y438726D01*
X333696Y438743D01*
X333617Y438810D01*
X333542Y438882D01*
X333524Y438890D01*
X333509Y438903D01*
X333413Y438942D01*
X333319Y438985D01*
X333299Y438987D01*
X333281Y438995D01*
X333114Y439013D01*
X296835Y439013D01*
X290817Y445031D01*
X290816Y445093D01*
X290798Y445142D01*
X290790Y445193D01*
X290756Y445256D01*
X290731Y445324D01*
X290699Y445364D01*
X290674Y445410D01*
X290623Y445460D01*
X290578Y445516D01*
X290534Y445544D01*
X290496Y445580D01*
X290431Y445610D01*
X290371Y445649D01*
X290320Y445661D01*
X290273Y445683D01*
X290202Y445691D01*
X290132Y445709D01*
X290080Y445705D01*
X290029Y445710D01*
X289958Y445695D01*
X289887Y445690D01*
X289839Y445669D01*
X289788Y445658D01*
X289727Y445621D01*
X289661Y445593D01*
X289605Y445548D01*
X289577Y445532D01*
X289562Y445514D01*
X289530Y445488D01*
X289430Y445388D01*
X282070Y445388D01*
X281177Y446281D01*
X281177Y469643D01*
X282070Y470536D01*
X282956Y470536D01*
X282976Y470539D01*
X282995Y470537D01*
X283097Y470559D01*
X283199Y470575D01*
X283216Y470585D01*
X283236Y470589D01*
X283325Y470642D01*
X283416Y470691D01*
X283430Y470705D01*
X283447Y470715D01*
X283514Y470794D01*
X283586Y470869D01*
X283594Y470887D01*
X283607Y470902D01*
X283646Y470998D01*
X283689Y471092D01*
X283691Y471112D01*
X283699Y471130D01*
X283717Y471297D01*
X283717Y473775D01*
X283715Y473790D01*
X283716Y473801D01*
X283703Y473862D01*
X283703Y473865D01*
X283695Y473956D01*
X283683Y473986D01*
X283678Y474018D01*
X283635Y474099D01*
X283599Y474183D01*
X283573Y474215D01*
X283562Y474235D01*
X283539Y474258D01*
X283494Y474314D01*
X239013Y518795D01*
X239013Y570237D01*
X238999Y570328D01*
X238991Y570418D01*
X238979Y570448D01*
X238974Y570480D01*
X238931Y570561D01*
X238895Y570645D01*
X238869Y570677D01*
X238858Y570698D01*
X238835Y570720D01*
X238790Y570776D01*
X215176Y594390D01*
X215102Y594443D01*
X215032Y594503D01*
X215002Y594515D01*
X214976Y594534D01*
X214889Y594561D01*
X214804Y594595D01*
X214763Y594599D01*
X214741Y594606D01*
X214709Y594605D01*
X214637Y594613D01*
X90163Y594613D01*
X90072Y594599D01*
X89982Y594591D01*
X89952Y594579D01*
X89920Y594574D01*
X89839Y594531D01*
X89755Y594495D01*
X89723Y594469D01*
X89702Y594458D01*
X89680Y594435D01*
X89624Y594390D01*
X47620Y552386D01*
X47608Y552369D01*
X47592Y552357D01*
X47536Y552270D01*
X47476Y552186D01*
X47470Y552167D01*
X47459Y552150D01*
X47434Y552050D01*
X47404Y551951D01*
X47404Y551931D01*
X47399Y551912D01*
X47407Y551809D01*
X47410Y551705D01*
X47417Y551686D01*
X47418Y551666D01*
X47459Y551571D01*
X47494Y551474D01*
X47507Y551458D01*
X47515Y551440D01*
X47620Y551309D01*
X48515Y550414D01*
X48515Y541786D01*
X42414Y535685D01*
X33786Y535685D01*
X27685Y541786D01*
X27685Y550414D01*
X33786Y556515D01*
X42414Y556515D01*
X43309Y555620D01*
X43325Y555608D01*
X43338Y555592D01*
X43425Y555536D01*
X43509Y555476D01*
X43528Y555470D01*
X43545Y555459D01*
X43645Y555434D01*
X43744Y555404D01*
X43764Y555404D01*
X43783Y555399D01*
X43886Y555407D01*
X43990Y555410D01*
X44009Y555417D01*
X44028Y555418D01*
X44123Y555459D01*
X44221Y555494D01*
X44236Y555507D01*
X44255Y555515D01*
X44386Y555620D01*
X86390Y597624D01*
X87953Y599187D01*
X216847Y599187D01*
X243587Y572447D01*
X243587Y521004D01*
X243601Y520914D01*
X243609Y520823D01*
X243621Y520794D01*
X243626Y520762D01*
X243669Y520681D01*
X243705Y520597D01*
X243731Y520565D01*
X243742Y520544D01*
X243765Y520522D01*
X243810Y520466D01*
X288291Y475985D01*
X288291Y471297D01*
X288294Y471277D01*
X288292Y471258D01*
X288314Y471156D01*
X288330Y471054D01*
X288340Y471037D01*
X288344Y471017D01*
X288397Y470928D01*
X288446Y470837D01*
X288460Y470823D01*
X288470Y470806D01*
X288549Y470739D01*
X288624Y470667D01*
X288642Y470659D01*
X288657Y470646D01*
X288753Y470607D01*
X288847Y470564D01*
X288867Y470562D01*
X288885Y470554D01*
X289052Y470536D01*
X289430Y470536D01*
X290323Y469643D01*
X290323Y456939D01*
X290337Y456848D01*
X290345Y456758D01*
X290357Y456728D01*
X290362Y456696D01*
X290405Y456615D01*
X290441Y456531D01*
X290467Y456499D01*
X290478Y456478D01*
X290501Y456456D01*
X290546Y456400D01*
X292578Y454368D01*
X292636Y454326D01*
X292688Y454277D01*
X292735Y454255D01*
X292777Y454225D01*
X292846Y454204D01*
X292911Y454173D01*
X292963Y454168D01*
X293013Y454152D01*
X293084Y454154D01*
X293155Y454146D01*
X293206Y454157D01*
X293258Y454159D01*
X293326Y454183D01*
X293396Y454198D01*
X293441Y454225D01*
X293489Y454243D01*
X293545Y454288D01*
X293607Y454325D01*
X293641Y454364D01*
X293681Y454397D01*
X293720Y454457D01*
X293767Y454512D01*
X293786Y454560D01*
X293814Y454604D01*
X293832Y454673D01*
X293859Y454740D01*
X293867Y454811D01*
X293875Y454842D01*
X293873Y454866D01*
X293877Y454906D01*
X293877Y469643D01*
X294770Y470536D01*
X302130Y470536D01*
X303023Y469643D01*
X303023Y446281D01*
X302130Y445388D01*
X298766Y445388D01*
X298695Y445377D01*
X298623Y445375D01*
X298574Y445357D01*
X298523Y445349D01*
X298460Y445315D01*
X298392Y445290D01*
X298351Y445258D01*
X298305Y445233D01*
X298256Y445182D01*
X298200Y445137D01*
X298172Y445093D01*
X298136Y445055D01*
X298106Y444990D01*
X298067Y444930D01*
X298054Y444879D01*
X298032Y444832D01*
X298025Y444761D01*
X298007Y444691D01*
X298011Y444639D01*
X298005Y444588D01*
X298021Y444517D01*
X298026Y444446D01*
X298047Y444398D01*
X298058Y444347D01*
X298094Y444286D01*
X298122Y444220D01*
X298167Y444164D01*
X298184Y444136D01*
X298202Y444121D01*
X298227Y444089D01*
X298506Y443810D01*
X298580Y443757D01*
X298650Y443697D01*
X298680Y443685D01*
X298706Y443666D01*
X298793Y443639D01*
X298878Y443605D01*
X298919Y443601D01*
X298941Y443594D01*
X298973Y443595D01*
X299045Y443587D01*
X333114Y443587D01*
X333134Y443590D01*
X333153Y443588D01*
X333255Y443610D01*
X333357Y443626D01*
X333374Y443636D01*
X333394Y443640D01*
X333483Y443693D01*
X333574Y443742D01*
X333588Y443756D01*
X333605Y443766D01*
X333672Y443845D01*
X333744Y443920D01*
X333752Y443938D01*
X333765Y443953D01*
X333804Y444049D01*
X333847Y444143D01*
X333849Y444163D01*
X333857Y444181D01*
X333875Y444348D01*
X333875Y448432D01*
X334768Y449325D01*
X351032Y449325D01*
X351925Y448432D01*
X351925Y434168D01*
X351032Y433275D01*
X334768Y433275D01*
G37*
%LPD*%
%LPC*%
G36*
X290091Y523039D02*
X290091Y523039D01*
X282313Y526261D01*
X276361Y532213D01*
X276088Y532872D01*
X276064Y532912D01*
X276048Y532955D01*
X275999Y533015D01*
X275958Y533081D01*
X275923Y533111D01*
X275894Y533147D01*
X275829Y533189D01*
X275769Y533238D01*
X275726Y533255D01*
X275687Y533280D01*
X275612Y533299D01*
X275539Y533326D01*
X275493Y533328D01*
X275449Y533340D01*
X275371Y533334D01*
X275293Y533337D01*
X275249Y533324D01*
X275204Y533321D01*
X275132Y533290D01*
X275057Y533268D01*
X275019Y533242D01*
X274977Y533224D01*
X274871Y533139D01*
X274855Y533128D01*
X274852Y533124D01*
X274846Y533119D01*
X270961Y529234D01*
X265990Y527175D01*
X260610Y527175D01*
X255639Y529234D01*
X251834Y533039D01*
X249775Y538010D01*
X249775Y543390D01*
X251834Y548361D01*
X255639Y552166D01*
X260610Y554225D01*
X265990Y554225D01*
X270961Y552166D01*
X272796Y550331D01*
X272833Y550304D01*
X272864Y550270D01*
X272933Y550233D01*
X272996Y550187D01*
X273040Y550174D01*
X273080Y550152D01*
X273156Y550138D01*
X273231Y550115D01*
X273277Y550116D01*
X273322Y550108D01*
X273399Y550119D01*
X273477Y550121D01*
X273520Y550137D01*
X273565Y550144D01*
X273635Y550179D01*
X273708Y550206D01*
X273744Y550234D01*
X273784Y550255D01*
X273839Y550311D01*
X273900Y550359D01*
X273925Y550398D01*
X273957Y550431D01*
X274023Y550551D01*
X274033Y550566D01*
X274034Y550571D01*
X274038Y550578D01*
X276361Y556187D01*
X282313Y562139D01*
X290091Y565361D01*
X298509Y565361D01*
X306287Y562139D01*
X312239Y556187D01*
X314855Y549871D01*
X314879Y549832D01*
X314895Y549789D01*
X314944Y549728D01*
X314985Y549662D01*
X315020Y549632D01*
X315049Y549597D01*
X315114Y549555D01*
X315174Y549505D01*
X315217Y549488D01*
X315256Y549464D01*
X315331Y549445D01*
X315404Y549417D01*
X315450Y549415D01*
X315494Y549404D01*
X315572Y549410D01*
X315650Y549406D01*
X315694Y549419D01*
X315740Y549423D01*
X315811Y549453D01*
X315886Y549475D01*
X315924Y549501D01*
X315966Y549519D01*
X316073Y549604D01*
X316088Y549615D01*
X316091Y549619D01*
X316097Y549624D01*
X318639Y552166D01*
X323610Y554225D01*
X328990Y554225D01*
X333961Y552166D01*
X337766Y548361D01*
X339825Y543390D01*
X339825Y538010D01*
X337766Y533039D01*
X333961Y529234D01*
X328990Y527175D01*
X323610Y527175D01*
X318639Y529234D01*
X314834Y533039D01*
X314411Y534061D01*
X314373Y534122D01*
X314344Y534187D01*
X314309Y534226D01*
X314281Y534270D01*
X314226Y534316D01*
X314178Y534368D01*
X314132Y534393D01*
X314092Y534427D01*
X314025Y534452D01*
X313962Y534487D01*
X313911Y534496D01*
X313862Y534515D01*
X313791Y534518D01*
X313720Y534531D01*
X313669Y534523D01*
X313617Y534525D01*
X313548Y534505D01*
X313477Y534495D01*
X313430Y534471D01*
X313380Y534457D01*
X313321Y534416D01*
X313258Y534383D01*
X313221Y534346D01*
X313178Y534316D01*
X313135Y534259D01*
X313085Y534208D01*
X313051Y534145D01*
X313031Y534119D01*
X313024Y534097D01*
X313004Y534061D01*
X312239Y532213D01*
X306287Y526261D01*
X298509Y523039D01*
X290091Y523039D01*
G37*
%LPD*%
%LPC*%
G36*
X158691Y107739D02*
X158691Y107739D01*
X150913Y110961D01*
X144961Y116913D01*
X142766Y122213D01*
X142741Y122252D01*
X142726Y122295D01*
X142677Y122356D01*
X142636Y122422D01*
X142601Y122452D01*
X142572Y122487D01*
X142506Y122530D01*
X142446Y122579D01*
X142404Y122596D01*
X142365Y122620D01*
X142289Y122639D01*
X142217Y122667D01*
X142171Y122669D01*
X142126Y122680D01*
X142049Y122674D01*
X141971Y122678D01*
X141927Y122665D01*
X141881Y122661D01*
X141810Y122631D01*
X141735Y122609D01*
X141697Y122583D01*
X141655Y122565D01*
X141548Y122480D01*
X141533Y122469D01*
X141530Y122465D01*
X141524Y122460D01*
X140373Y121309D01*
X138521Y119964D01*
X136482Y118925D01*
X134305Y118217D01*
X132423Y117919D01*
X132423Y131638D01*
X132420Y131658D01*
X132422Y131677D01*
X132400Y131779D01*
X132383Y131881D01*
X132374Y131898D01*
X132370Y131918D01*
X132317Y132007D01*
X132268Y132098D01*
X132254Y132112D01*
X132244Y132129D01*
X132165Y132196D01*
X132090Y132267D01*
X132072Y132276D01*
X132057Y132289D01*
X131961Y132327D01*
X131867Y132371D01*
X131847Y132373D01*
X131829Y132381D01*
X131662Y132399D01*
X130899Y132399D01*
X130899Y132401D01*
X131662Y132401D01*
X131682Y132404D01*
X131701Y132402D01*
X131803Y132424D01*
X131905Y132441D01*
X131922Y132450D01*
X131942Y132454D01*
X132031Y132507D01*
X132122Y132556D01*
X132136Y132570D01*
X132153Y132580D01*
X132220Y132659D01*
X132291Y132734D01*
X132300Y132752D01*
X132313Y132767D01*
X132352Y132863D01*
X132395Y132957D01*
X132397Y132977D01*
X132405Y132995D01*
X132423Y133162D01*
X132423Y146881D01*
X134305Y146583D01*
X136482Y145875D01*
X138521Y144836D01*
X140373Y143491D01*
X141991Y141873D01*
X143344Y140011D01*
X143418Y139937D01*
X143489Y139860D01*
X143505Y139851D01*
X143518Y139838D01*
X143613Y139792D01*
X143705Y139741D01*
X143723Y139738D01*
X143739Y139730D01*
X143843Y139716D01*
X143947Y139697D01*
X143965Y139700D01*
X143983Y139698D01*
X144086Y139718D01*
X144190Y139733D01*
X144207Y139741D01*
X144225Y139745D01*
X144316Y139797D01*
X144410Y139845D01*
X144422Y139858D01*
X144438Y139867D01*
X144508Y139945D01*
X144582Y140020D01*
X144593Y140040D01*
X144602Y140050D01*
X144614Y140079D01*
X144663Y140167D01*
X144961Y140887D01*
X150913Y146839D01*
X158691Y150061D01*
X167109Y150061D01*
X174887Y146839D01*
X180839Y140887D01*
X181112Y140228D01*
X181136Y140189D01*
X181152Y140145D01*
X181201Y140085D01*
X181242Y140019D01*
X181277Y139989D01*
X181306Y139953D01*
X181371Y139911D01*
X181431Y139862D01*
X181474Y139845D01*
X181513Y139820D01*
X181588Y139801D01*
X181661Y139774D01*
X181707Y139772D01*
X181751Y139760D01*
X181829Y139766D01*
X181907Y139763D01*
X181951Y139776D01*
X181996Y139780D01*
X182068Y139810D01*
X182143Y139832D01*
X182181Y139858D01*
X182223Y139876D01*
X182329Y139961D01*
X182345Y139972D01*
X182348Y139976D01*
X182354Y139981D01*
X186239Y143866D01*
X191210Y145925D01*
X196590Y145925D01*
X201561Y143866D01*
X205366Y140061D01*
X207425Y135090D01*
X207425Y129710D01*
X205366Y124739D01*
X201561Y120934D01*
X196590Y118875D01*
X191210Y118875D01*
X186239Y120934D01*
X184404Y122769D01*
X184367Y122796D01*
X184336Y122830D01*
X184267Y122867D01*
X184204Y122913D01*
X184160Y122926D01*
X184120Y122948D01*
X184044Y122962D01*
X183969Y122985D01*
X183923Y122984D01*
X183878Y122992D01*
X183801Y122981D01*
X183723Y122979D01*
X183680Y122963D01*
X183635Y122956D01*
X183565Y122921D01*
X183492Y122894D01*
X183456Y122866D01*
X183416Y122845D01*
X183361Y122789D01*
X183300Y122741D01*
X183275Y122702D01*
X183243Y122669D01*
X183177Y122549D01*
X183167Y122534D01*
X183166Y122529D01*
X183162Y122522D01*
X180839Y116913D01*
X174887Y110961D01*
X167109Y107739D01*
X158691Y107739D01*
G37*
%LPD*%
%LPC*%
G36*
X338586Y192785D02*
X338586Y192785D01*
X332485Y198886D01*
X332485Y200152D01*
X332482Y200172D01*
X332484Y200191D01*
X332462Y200293D01*
X332446Y200395D01*
X332436Y200412D01*
X332432Y200432D01*
X332379Y200521D01*
X332330Y200612D01*
X332316Y200626D01*
X332306Y200643D01*
X332227Y200710D01*
X332152Y200782D01*
X332134Y200790D01*
X332119Y200803D01*
X332023Y200842D01*
X331929Y200885D01*
X331909Y200887D01*
X331891Y200895D01*
X331724Y200913D01*
X291153Y200913D01*
X249271Y242795D01*
X249255Y242807D01*
X249243Y242822D01*
X249155Y242878D01*
X249071Y242938D01*
X249053Y242944D01*
X249036Y242955D01*
X248935Y242980D01*
X248836Y243011D01*
X248816Y243010D01*
X248797Y243015D01*
X248694Y243007D01*
X248591Y243004D01*
X248572Y242998D01*
X248552Y242996D01*
X248457Y242956D01*
X248359Y242920D01*
X248344Y242907D01*
X248326Y242900D01*
X248195Y242795D01*
X245905Y240505D01*
X242917Y239267D01*
X239683Y239267D01*
X236695Y240505D01*
X234409Y242791D01*
X233171Y245779D01*
X233171Y262221D01*
X234409Y265209D01*
X236695Y267495D01*
X239683Y268733D01*
X242917Y268733D01*
X245905Y267495D01*
X248191Y265209D01*
X249429Y262221D01*
X249429Y257048D01*
X249432Y257028D01*
X249430Y257009D01*
X249452Y256907D01*
X249468Y256805D01*
X249478Y256788D01*
X249482Y256768D01*
X249535Y256679D01*
X249584Y256588D01*
X249598Y256574D01*
X249608Y256557D01*
X249687Y256490D01*
X249762Y256418D01*
X249780Y256410D01*
X249795Y256397D01*
X249891Y256358D01*
X249985Y256315D01*
X250005Y256313D01*
X250023Y256305D01*
X250190Y256287D01*
X254037Y256287D01*
X254128Y256301D01*
X254218Y256309D01*
X254248Y256321D01*
X254280Y256326D01*
X254361Y256369D01*
X254445Y256405D01*
X254477Y256431D01*
X254498Y256442D01*
X254520Y256465D01*
X254576Y256510D01*
X332152Y334086D01*
X332205Y334160D01*
X332265Y334230D01*
X332277Y334260D01*
X332296Y334286D01*
X332323Y334373D01*
X332357Y334458D01*
X332361Y334499D01*
X332368Y334521D01*
X332367Y334553D01*
X332375Y334625D01*
X332375Y350232D01*
X333268Y351125D01*
X352532Y351125D01*
X353425Y350232D01*
X353425Y332968D01*
X352532Y332075D01*
X336925Y332075D01*
X336834Y332061D01*
X336744Y332053D01*
X336714Y332041D01*
X336682Y332036D01*
X336601Y331993D01*
X336517Y331957D01*
X336485Y331931D01*
X336464Y331920D01*
X336442Y331897D01*
X336386Y331852D01*
X256247Y251713D01*
X250190Y251713D01*
X250170Y251710D01*
X250151Y251712D01*
X250049Y251690D01*
X249947Y251674D01*
X249930Y251664D01*
X249910Y251660D01*
X249821Y251607D01*
X249730Y251558D01*
X249716Y251544D01*
X249699Y251534D01*
X249632Y251455D01*
X249560Y251380D01*
X249552Y251362D01*
X249539Y251347D01*
X249500Y251251D01*
X249457Y251157D01*
X249455Y251137D01*
X249447Y251119D01*
X249429Y250952D01*
X249429Y249421D01*
X249443Y249330D01*
X249451Y249240D01*
X249463Y249210D01*
X249468Y249178D01*
X249511Y249097D01*
X249547Y249013D01*
X249573Y248981D01*
X249584Y248960D01*
X249607Y248938D01*
X249652Y248882D01*
X292824Y205710D01*
X292898Y205657D01*
X292968Y205597D01*
X292998Y205585D01*
X293024Y205566D01*
X293111Y205539D01*
X293196Y205505D01*
X293237Y205501D01*
X293259Y205494D01*
X293291Y205495D01*
X293363Y205487D01*
X331724Y205487D01*
X331744Y205490D01*
X331763Y205488D01*
X331865Y205510D01*
X331967Y205526D01*
X331984Y205536D01*
X332004Y205540D01*
X332093Y205593D01*
X332184Y205642D01*
X332198Y205656D01*
X332215Y205666D01*
X332282Y205745D01*
X332354Y205820D01*
X332362Y205838D01*
X332375Y205853D01*
X332414Y205949D01*
X332457Y206043D01*
X332459Y206063D01*
X332467Y206081D01*
X332485Y206248D01*
X332485Y207514D01*
X338586Y213615D01*
X347214Y213615D01*
X353315Y207514D01*
X353315Y198886D01*
X347214Y192785D01*
X338586Y192785D01*
G37*
%LPD*%
%LPC*%
G36*
X156968Y395175D02*
X156968Y395175D01*
X156075Y396068D01*
X156075Y410332D01*
X156968Y411225D01*
X162052Y411225D01*
X162072Y411228D01*
X162091Y411226D01*
X162193Y411248D01*
X162295Y411264D01*
X162312Y411274D01*
X162332Y411278D01*
X162421Y411331D01*
X162512Y411380D01*
X162526Y411394D01*
X162543Y411404D01*
X162610Y411483D01*
X162682Y411558D01*
X162690Y411576D01*
X162703Y411591D01*
X162742Y411687D01*
X162785Y411781D01*
X162787Y411801D01*
X162795Y411819D01*
X162813Y411986D01*
X162813Y464314D01*
X162810Y464334D01*
X162812Y464353D01*
X162790Y464455D01*
X162774Y464557D01*
X162764Y464574D01*
X162760Y464594D01*
X162707Y464683D01*
X162658Y464774D01*
X162644Y464788D01*
X162634Y464805D01*
X162555Y464872D01*
X162480Y464944D01*
X162462Y464952D01*
X162447Y464965D01*
X162351Y465004D01*
X162257Y465047D01*
X162237Y465049D01*
X162219Y465057D01*
X162052Y465075D01*
X156968Y465075D01*
X156075Y465968D01*
X156075Y480232D01*
X156968Y481125D01*
X173232Y481125D01*
X174125Y480232D01*
X174125Y465968D01*
X173232Y465075D01*
X168148Y465075D01*
X168128Y465072D01*
X168109Y465074D01*
X168007Y465052D01*
X167905Y465036D01*
X167888Y465026D01*
X167868Y465022D01*
X167779Y464969D01*
X167688Y464920D01*
X167674Y464906D01*
X167657Y464896D01*
X167590Y464817D01*
X167518Y464742D01*
X167510Y464724D01*
X167497Y464709D01*
X167458Y464613D01*
X167415Y464519D01*
X167413Y464499D01*
X167405Y464481D01*
X167387Y464314D01*
X167387Y447548D01*
X167390Y447528D01*
X167388Y447509D01*
X167410Y447407D01*
X167426Y447305D01*
X167436Y447288D01*
X167440Y447268D01*
X167493Y447179D01*
X167542Y447088D01*
X167556Y447074D01*
X167566Y447057D01*
X167645Y446990D01*
X167720Y446918D01*
X167738Y446910D01*
X167753Y446897D01*
X167849Y446858D01*
X167943Y446815D01*
X167963Y446813D01*
X167981Y446805D01*
X168148Y446787D01*
X191914Y446787D01*
X191934Y446790D01*
X191953Y446788D01*
X192055Y446810D01*
X192157Y446826D01*
X192174Y446836D01*
X192194Y446840D01*
X192283Y446893D01*
X192374Y446942D01*
X192388Y446956D01*
X192405Y446966D01*
X192472Y447045D01*
X192544Y447120D01*
X192552Y447138D01*
X192565Y447153D01*
X192604Y447249D01*
X192647Y447343D01*
X192649Y447363D01*
X192657Y447381D01*
X192675Y447548D01*
X192675Y454432D01*
X193568Y455325D01*
X212832Y455325D01*
X213725Y454432D01*
X213725Y448848D01*
X213728Y448828D01*
X213726Y448809D01*
X213748Y448707D01*
X213764Y448605D01*
X213774Y448588D01*
X213778Y448568D01*
X213831Y448479D01*
X213880Y448388D01*
X213894Y448374D01*
X213904Y448357D01*
X213983Y448290D01*
X214058Y448218D01*
X214076Y448210D01*
X214091Y448197D01*
X214187Y448158D01*
X214281Y448115D01*
X214301Y448113D01*
X214319Y448105D01*
X214486Y448087D01*
X254000Y448087D01*
X254020Y448090D01*
X254039Y448088D01*
X254141Y448110D01*
X254243Y448126D01*
X254260Y448136D01*
X254280Y448140D01*
X254369Y448193D01*
X254460Y448242D01*
X254474Y448256D01*
X254491Y448266D01*
X254558Y448345D01*
X254630Y448420D01*
X254638Y448438D01*
X254651Y448453D01*
X254690Y448549D01*
X254733Y448643D01*
X254735Y448663D01*
X254743Y448681D01*
X254761Y448848D01*
X254761Y456439D01*
X259588Y456439D01*
X259608Y456442D01*
X259627Y456440D01*
X259729Y456462D01*
X259831Y456479D01*
X259848Y456488D01*
X259868Y456492D01*
X259957Y456545D01*
X260048Y456594D01*
X260062Y456608D01*
X260079Y456618D01*
X260146Y456697D01*
X260217Y456772D01*
X260226Y456790D01*
X260239Y456805D01*
X260278Y456901D01*
X260321Y456995D01*
X260323Y457015D01*
X260331Y457033D01*
X260349Y457200D01*
X260349Y457963D01*
X260351Y457963D01*
X260351Y457200D01*
X260354Y457180D01*
X260352Y457161D01*
X260374Y457059D01*
X260391Y456957D01*
X260400Y456940D01*
X260404Y456920D01*
X260457Y456831D01*
X260506Y456740D01*
X260520Y456726D01*
X260530Y456709D01*
X260609Y456642D01*
X260684Y456571D01*
X260702Y456562D01*
X260717Y456549D01*
X260813Y456510D01*
X260907Y456467D01*
X260927Y456465D01*
X260945Y456457D01*
X261112Y456439D01*
X265939Y456439D01*
X265939Y455922D01*
X265950Y455852D01*
X265952Y455780D01*
X265970Y455731D01*
X265978Y455680D01*
X266012Y455616D01*
X266037Y455549D01*
X266069Y455508D01*
X266094Y455462D01*
X266146Y455413D01*
X266190Y455357D01*
X266234Y455329D01*
X266272Y455293D01*
X266337Y455263D01*
X266397Y455224D01*
X266448Y455211D01*
X266495Y455189D01*
X266566Y455181D01*
X266636Y455164D01*
X266688Y455168D01*
X266739Y455162D01*
X266810Y455177D01*
X266881Y455183D01*
X266929Y455203D01*
X266980Y455214D01*
X267041Y455251D01*
X267107Y455279D01*
X267163Y455324D01*
X267191Y455341D01*
X267206Y455358D01*
X267238Y455384D01*
X268254Y456400D01*
X268307Y456474D01*
X268367Y456544D01*
X268379Y456574D01*
X268398Y456600D01*
X268425Y456687D01*
X268459Y456772D01*
X268463Y456813D01*
X268470Y456835D01*
X268469Y456867D01*
X268477Y456939D01*
X268477Y469643D01*
X269370Y470536D01*
X276730Y470536D01*
X277623Y469643D01*
X277623Y446281D01*
X276730Y445388D01*
X269370Y445388D01*
X269270Y445488D01*
X269212Y445530D01*
X269160Y445580D01*
X269113Y445602D01*
X269071Y445632D01*
X269002Y445653D01*
X268937Y445683D01*
X268885Y445689D01*
X268835Y445704D01*
X268764Y445702D01*
X268693Y445710D01*
X268642Y445699D01*
X268590Y445698D01*
X268522Y445673D01*
X268452Y445658D01*
X268407Y445631D01*
X268359Y445614D01*
X268303Y445569D01*
X268241Y445532D01*
X268207Y445492D01*
X268167Y445460D01*
X268128Y445400D01*
X268081Y445345D01*
X268062Y445297D01*
X268034Y445253D01*
X268016Y445184D01*
X267989Y445117D01*
X267981Y445046D01*
X267976Y445024D01*
X265292Y442340D01*
X255408Y442340D01*
X254458Y443290D01*
X254384Y443343D01*
X254314Y443403D01*
X254284Y443415D01*
X254258Y443434D01*
X254171Y443461D01*
X254086Y443495D01*
X254045Y443499D01*
X254023Y443506D01*
X253991Y443505D01*
X253920Y443513D01*
X214486Y443513D01*
X214466Y443510D01*
X214447Y443512D01*
X214345Y443490D01*
X214243Y443474D01*
X214226Y443464D01*
X214206Y443460D01*
X214117Y443407D01*
X214026Y443358D01*
X214012Y443344D01*
X213995Y443334D01*
X213928Y443255D01*
X213856Y443180D01*
X213848Y443162D01*
X213835Y443147D01*
X213796Y443051D01*
X213753Y442957D01*
X213751Y442937D01*
X213743Y442919D01*
X213725Y442752D01*
X213725Y437168D01*
X212832Y436275D01*
X193568Y436275D01*
X192675Y437168D01*
X192675Y441452D01*
X192672Y441472D01*
X192674Y441491D01*
X192652Y441593D01*
X192636Y441695D01*
X192626Y441712D01*
X192622Y441732D01*
X192569Y441821D01*
X192520Y441912D01*
X192506Y441926D01*
X192496Y441943D01*
X192417Y442010D01*
X192342Y442082D01*
X192324Y442090D01*
X192309Y442103D01*
X192213Y442142D01*
X192119Y442185D01*
X192099Y442187D01*
X192081Y442195D01*
X191914Y442213D01*
X168148Y442213D01*
X168128Y442210D01*
X168109Y442212D01*
X168007Y442190D01*
X167905Y442174D01*
X167888Y442164D01*
X167868Y442160D01*
X167779Y442107D01*
X167688Y442058D01*
X167674Y442044D01*
X167657Y442034D01*
X167590Y441955D01*
X167518Y441880D01*
X167510Y441862D01*
X167497Y441847D01*
X167458Y441751D01*
X167415Y441657D01*
X167413Y441637D01*
X167405Y441619D01*
X167387Y441452D01*
X167387Y411986D01*
X167390Y411966D01*
X167388Y411947D01*
X167410Y411845D01*
X167426Y411743D01*
X167436Y411726D01*
X167440Y411706D01*
X167493Y411617D01*
X167542Y411526D01*
X167556Y411512D01*
X167566Y411495D01*
X167645Y411428D01*
X167720Y411356D01*
X167738Y411348D01*
X167753Y411335D01*
X167849Y411296D01*
X167943Y411253D01*
X167963Y411251D01*
X167981Y411243D01*
X168148Y411225D01*
X173232Y411225D01*
X174125Y410332D01*
X174125Y396068D01*
X173232Y395175D01*
X156968Y395175D01*
G37*
%LPD*%
%LPC*%
G36*
X23468Y373975D02*
X23468Y373975D01*
X22575Y374868D01*
X22575Y400132D01*
X23468Y401025D01*
X52732Y401025D01*
X53625Y400132D01*
X53625Y390548D01*
X53628Y390528D01*
X53626Y390509D01*
X53648Y390407D01*
X53664Y390305D01*
X53674Y390288D01*
X53678Y390268D01*
X53731Y390179D01*
X53780Y390088D01*
X53794Y390074D01*
X53804Y390057D01*
X53883Y389990D01*
X53958Y389918D01*
X53976Y389910D01*
X53991Y389897D01*
X54087Y389858D01*
X54181Y389815D01*
X54201Y389813D01*
X54219Y389805D01*
X54386Y389787D01*
X56037Y389787D01*
X56128Y389801D01*
X56218Y389809D01*
X56248Y389821D01*
X56280Y389826D01*
X56361Y389869D01*
X56445Y389905D01*
X56477Y389931D01*
X56498Y389942D01*
X56520Y389965D01*
X56576Y390010D01*
X57970Y391404D01*
X58023Y391478D01*
X58083Y391548D01*
X58095Y391578D01*
X58114Y391604D01*
X58141Y391691D01*
X58175Y391776D01*
X58179Y391817D01*
X58186Y391839D01*
X58185Y391871D01*
X58193Y391943D01*
X58193Y395898D01*
X61302Y399007D01*
X65698Y399007D01*
X68807Y395898D01*
X68807Y391943D01*
X68821Y391852D01*
X68829Y391762D01*
X68841Y391732D01*
X68846Y391700D01*
X68889Y391619D01*
X68925Y391535D01*
X68951Y391503D01*
X68962Y391482D01*
X68985Y391460D01*
X69030Y391404D01*
X70424Y390010D01*
X70498Y389957D01*
X70568Y389897D01*
X70598Y389885D01*
X70624Y389866D01*
X70711Y389839D01*
X70796Y389805D01*
X70837Y389801D01*
X70859Y389794D01*
X70891Y389795D01*
X70963Y389787D01*
X82814Y389787D01*
X82834Y389790D01*
X82853Y389788D01*
X82955Y389810D01*
X83057Y389826D01*
X83074Y389836D01*
X83094Y389840D01*
X83183Y389893D01*
X83274Y389942D01*
X83288Y389956D01*
X83305Y389966D01*
X83372Y390045D01*
X83444Y390120D01*
X83452Y390138D01*
X83465Y390153D01*
X83504Y390249D01*
X83547Y390343D01*
X83549Y390363D01*
X83557Y390381D01*
X83575Y390548D01*
X83575Y400132D01*
X84468Y401025D01*
X113732Y401025D01*
X114625Y400132D01*
X114625Y374868D01*
X113732Y373975D01*
X84468Y373975D01*
X83575Y374868D01*
X83575Y384452D01*
X83572Y384472D01*
X83574Y384491D01*
X83552Y384593D01*
X83536Y384695D01*
X83526Y384712D01*
X83522Y384732D01*
X83469Y384821D01*
X83420Y384912D01*
X83406Y384926D01*
X83396Y384943D01*
X83317Y385010D01*
X83242Y385082D01*
X83224Y385090D01*
X83209Y385103D01*
X83113Y385142D01*
X83019Y385185D01*
X82999Y385187D01*
X82981Y385195D01*
X82814Y385213D01*
X68753Y385213D01*
X65796Y388170D01*
X65722Y388223D01*
X65652Y388283D01*
X65622Y388295D01*
X65596Y388314D01*
X65509Y388341D01*
X65424Y388375D01*
X65383Y388379D01*
X65361Y388386D01*
X65329Y388385D01*
X65257Y388393D01*
X61743Y388393D01*
X61652Y388379D01*
X61562Y388371D01*
X61532Y388359D01*
X61500Y388354D01*
X61419Y388311D01*
X61335Y388275D01*
X61303Y388249D01*
X61282Y388238D01*
X61260Y388215D01*
X61204Y388170D01*
X58247Y385213D01*
X54386Y385213D01*
X54366Y385210D01*
X54347Y385212D01*
X54245Y385190D01*
X54143Y385174D01*
X54126Y385164D01*
X54106Y385160D01*
X54017Y385107D01*
X53926Y385058D01*
X53912Y385044D01*
X53895Y385034D01*
X53828Y384955D01*
X53756Y384880D01*
X53748Y384862D01*
X53735Y384847D01*
X53696Y384751D01*
X53653Y384657D01*
X53651Y384637D01*
X53643Y384619D01*
X53625Y384452D01*
X53625Y374868D01*
X52732Y373975D01*
X23468Y373975D01*
G37*
%LPD*%
%LPC*%
G36*
X79778Y424179D02*
X79778Y424179D01*
X72309Y427273D01*
X66593Y432989D01*
X63499Y440458D01*
X63499Y448542D01*
X66593Y456011D01*
X72309Y461727D01*
X79778Y464821D01*
X87862Y464821D01*
X95331Y461727D01*
X101047Y456011D01*
X104141Y448542D01*
X104141Y440458D01*
X101047Y432989D01*
X95331Y427273D01*
X87862Y424179D01*
X79778Y424179D01*
G37*
%LPD*%
%LPC*%
G36*
X34058Y424179D02*
X34058Y424179D01*
X26589Y427273D01*
X20873Y432989D01*
X17779Y440458D01*
X17779Y448542D01*
X20873Y456011D01*
X26589Y461727D01*
X34058Y464821D01*
X42142Y464821D01*
X49611Y461727D01*
X55327Y456011D01*
X58421Y448542D01*
X58421Y440458D01*
X55327Y432989D01*
X49611Y427273D01*
X42142Y424179D01*
X34058Y424179D01*
G37*
%LPD*%
%LPC*%
G36*
X333268Y360075D02*
X333268Y360075D01*
X332375Y360968D01*
X332375Y378232D01*
X333268Y379125D01*
X339852Y379125D01*
X339872Y379128D01*
X339891Y379126D01*
X339993Y379148D01*
X340095Y379164D01*
X340112Y379174D01*
X340132Y379178D01*
X340221Y379231D01*
X340312Y379280D01*
X340326Y379294D01*
X340343Y379304D01*
X340410Y379383D01*
X340482Y379458D01*
X340490Y379476D01*
X340503Y379491D01*
X340542Y379587D01*
X340585Y379681D01*
X340587Y379701D01*
X340595Y379719D01*
X340613Y379886D01*
X340613Y413514D01*
X340610Y413534D01*
X340612Y413553D01*
X340590Y413655D01*
X340574Y413757D01*
X340564Y413774D01*
X340560Y413794D01*
X340507Y413883D01*
X340458Y413974D01*
X340444Y413988D01*
X340434Y414005D01*
X340355Y414072D01*
X340280Y414144D01*
X340262Y414152D01*
X340247Y414165D01*
X340151Y414204D01*
X340057Y414247D01*
X340037Y414249D01*
X340019Y414257D01*
X339852Y414275D01*
X334768Y414275D01*
X333875Y415168D01*
X333875Y429432D01*
X334768Y430325D01*
X351032Y430325D01*
X351925Y429432D01*
X351925Y415168D01*
X351032Y414275D01*
X345948Y414275D01*
X345928Y414272D01*
X345909Y414274D01*
X345807Y414252D01*
X345705Y414236D01*
X345688Y414226D01*
X345668Y414222D01*
X345579Y414169D01*
X345488Y414120D01*
X345474Y414106D01*
X345457Y414096D01*
X345390Y414017D01*
X345318Y413942D01*
X345310Y413924D01*
X345297Y413909D01*
X345258Y413813D01*
X345215Y413719D01*
X345213Y413699D01*
X345205Y413681D01*
X345187Y413514D01*
X345187Y379886D01*
X345190Y379866D01*
X345188Y379847D01*
X345210Y379745D01*
X345226Y379643D01*
X345236Y379626D01*
X345240Y379606D01*
X345293Y379517D01*
X345342Y379426D01*
X345356Y379412D01*
X345366Y379395D01*
X345445Y379328D01*
X345520Y379256D01*
X345538Y379248D01*
X345553Y379235D01*
X345649Y379196D01*
X345743Y379153D01*
X345763Y379151D01*
X345781Y379143D01*
X345948Y379125D01*
X352532Y379125D01*
X353425Y378232D01*
X353425Y360968D01*
X352532Y360075D01*
X333268Y360075D01*
G37*
%LPD*%
%LPC*%
G36*
X188883Y239267D02*
X188883Y239267D01*
X185895Y240505D01*
X183609Y242791D01*
X182371Y245779D01*
X182371Y262221D01*
X183609Y265209D01*
X185895Y267495D01*
X187743Y268261D01*
X187843Y268323D01*
X187943Y268382D01*
X187947Y268387D01*
X187952Y268390D01*
X188027Y268481D01*
X188103Y268569D01*
X188105Y268575D01*
X188109Y268580D01*
X188151Y268688D01*
X188195Y268797D01*
X188196Y268805D01*
X188197Y268809D01*
X188198Y268828D01*
X188213Y268964D01*
X188213Y270202D01*
X188210Y270224D01*
X188212Y270246D01*
X188190Y270345D01*
X188174Y270445D01*
X188163Y270464D01*
X188158Y270486D01*
X188079Y270634D01*
X165033Y304096D01*
X165007Y304123D01*
X164988Y304155D01*
X164922Y304211D01*
X164862Y304273D01*
X164829Y304290D01*
X164801Y304315D01*
X164721Y304347D01*
X164644Y304387D01*
X164607Y304393D01*
X164573Y304407D01*
X164406Y304425D01*
X155768Y304425D01*
X154875Y305318D01*
X154875Y318582D01*
X155768Y319475D01*
X169032Y319475D01*
X169925Y318582D01*
X169925Y305293D01*
X169928Y305271D01*
X169926Y305249D01*
X169948Y305150D01*
X169964Y305050D01*
X169975Y305030D01*
X169980Y305009D01*
X170059Y304861D01*
X192225Y272676D01*
X192246Y272655D01*
X192314Y272570D01*
X192787Y272097D01*
X192790Y272076D01*
X192788Y272054D01*
X192810Y271955D01*
X192826Y271855D01*
X192837Y271836D01*
X192842Y271814D01*
X192921Y271667D01*
X192799Y271009D01*
X192799Y270980D01*
X192787Y270871D01*
X192787Y268964D01*
X192789Y268953D01*
X192788Y268946D01*
X192795Y268912D01*
X192806Y268849D01*
X192823Y268733D01*
X192825Y268727D01*
X192826Y268721D01*
X192881Y268619D01*
X192934Y268514D01*
X192939Y268509D01*
X192942Y268504D01*
X193026Y268424D01*
X193110Y268341D01*
X193116Y268338D01*
X193120Y268334D01*
X193137Y268327D01*
X193257Y268261D01*
X195105Y267495D01*
X197391Y265209D01*
X198629Y262221D01*
X198629Y245779D01*
X197391Y242791D01*
X195105Y240505D01*
X192117Y239267D01*
X188883Y239267D01*
G37*
%LPD*%
%LPC*%
G36*
X84468Y487975D02*
X84468Y487975D01*
X83575Y488868D01*
X83575Y514132D01*
X84468Y515025D01*
X113732Y515025D01*
X114625Y514132D01*
X114625Y488868D01*
X113732Y487975D01*
X84468Y487975D01*
G37*
%LPD*%
%LPC*%
G36*
X197610Y527175D02*
X197610Y527175D01*
X192639Y529234D01*
X188834Y533039D01*
X186775Y538010D01*
X186775Y543390D01*
X188834Y548361D01*
X192639Y552166D01*
X197610Y554225D01*
X202990Y554225D01*
X207961Y552166D01*
X211766Y548361D01*
X213825Y543390D01*
X213825Y538010D01*
X211766Y533039D01*
X207961Y529234D01*
X202990Y527175D01*
X197610Y527175D01*
G37*
%LPD*%
%LPC*%
G36*
X201002Y388393D02*
X201002Y388393D01*
X197893Y391502D01*
X197893Y395898D01*
X200690Y398695D01*
X200743Y398769D01*
X200803Y398839D01*
X200815Y398869D01*
X200834Y398895D01*
X200861Y398982D01*
X200895Y399067D01*
X200899Y399108D01*
X200906Y399130D01*
X200905Y399162D01*
X200913Y399233D01*
X200913Y407514D01*
X200910Y407534D01*
X200912Y407553D01*
X200890Y407655D01*
X200874Y407757D01*
X200864Y407774D01*
X200860Y407794D01*
X200807Y407883D01*
X200758Y407974D01*
X200744Y407988D01*
X200734Y408005D01*
X200655Y408072D01*
X200580Y408144D01*
X200562Y408152D01*
X200547Y408165D01*
X200451Y408204D01*
X200357Y408247D01*
X200337Y408249D01*
X200319Y408257D01*
X200152Y408275D01*
X193568Y408275D01*
X192675Y409168D01*
X192675Y426432D01*
X193568Y427325D01*
X212832Y427325D01*
X213725Y426432D01*
X213725Y409168D01*
X212832Y408275D01*
X206248Y408275D01*
X206228Y408272D01*
X206209Y408274D01*
X206107Y408252D01*
X206005Y408236D01*
X205988Y408226D01*
X205968Y408222D01*
X205879Y408169D01*
X205788Y408120D01*
X205774Y408106D01*
X205757Y408096D01*
X205690Y408017D01*
X205618Y407942D01*
X205610Y407924D01*
X205597Y407909D01*
X205558Y407813D01*
X205515Y407719D01*
X205513Y407699D01*
X205505Y407681D01*
X205487Y407514D01*
X205487Y399233D01*
X205501Y399143D01*
X205509Y399052D01*
X205521Y399023D01*
X205526Y398991D01*
X205569Y398910D01*
X205605Y398826D01*
X205631Y398794D01*
X205642Y398773D01*
X205665Y398751D01*
X205710Y398695D01*
X208507Y395898D01*
X208507Y391502D01*
X205398Y388393D01*
X201002Y388393D01*
G37*
%LPD*%
%LPC*%
G36*
X144268Y335675D02*
X144268Y335675D01*
X143375Y336568D01*
X143375Y353832D01*
X144048Y354505D01*
X144069Y354534D01*
X144096Y354557D01*
X144141Y354633D01*
X144192Y354704D01*
X144203Y354739D01*
X144221Y354770D01*
X144239Y354856D01*
X144264Y354940D01*
X144263Y354975D01*
X144271Y355011D01*
X144260Y355098D01*
X144258Y355185D01*
X144246Y355219D01*
X144241Y355255D01*
X144177Y355410D01*
X140225Y362599D01*
X140178Y362658D01*
X140140Y362723D01*
X140103Y362754D01*
X140073Y362792D01*
X140010Y362834D01*
X139953Y362883D01*
X139908Y362901D01*
X139868Y362927D01*
X139795Y362947D01*
X139725Y362975D01*
X139660Y362982D01*
X139630Y362990D01*
X139604Y362988D01*
X139558Y362993D01*
X137502Y362993D01*
X134393Y366102D01*
X134393Y370498D01*
X137502Y373607D01*
X141898Y373607D01*
X145007Y370498D01*
X145007Y366102D01*
X144450Y365545D01*
X144429Y365516D01*
X144402Y365493D01*
X144358Y365417D01*
X144307Y365346D01*
X144296Y365311D01*
X144278Y365280D01*
X144260Y365195D01*
X144234Y365111D01*
X144235Y365075D01*
X144228Y365040D01*
X144238Y364952D01*
X144241Y364865D01*
X144253Y364831D01*
X144257Y364795D01*
X144321Y364640D01*
X149556Y355119D01*
X149603Y355060D01*
X149641Y354995D01*
X149678Y354964D01*
X149708Y354926D01*
X149771Y354884D01*
X149828Y354835D01*
X149873Y354817D01*
X149913Y354791D01*
X149986Y354771D01*
X150056Y354743D01*
X150121Y354736D01*
X150151Y354728D01*
X150177Y354730D01*
X150223Y354725D01*
X160532Y354725D01*
X161425Y353832D01*
X161425Y336568D01*
X160532Y335675D01*
X144268Y335675D01*
G37*
%LPD*%
%LPC*%
G36*
X162902Y362993D02*
X162902Y362993D01*
X159793Y366102D01*
X159793Y370498D01*
X162590Y373295D01*
X162643Y373369D01*
X162703Y373439D01*
X162715Y373469D01*
X162734Y373495D01*
X162761Y373582D01*
X162795Y373667D01*
X162799Y373708D01*
X162806Y373730D01*
X162805Y373762D01*
X162813Y373833D01*
X162813Y375414D01*
X162810Y375434D01*
X162812Y375453D01*
X162790Y375555D01*
X162774Y375657D01*
X162764Y375674D01*
X162760Y375694D01*
X162707Y375783D01*
X162658Y375874D01*
X162644Y375888D01*
X162634Y375905D01*
X162555Y375972D01*
X162480Y376044D01*
X162462Y376052D01*
X162447Y376065D01*
X162351Y376104D01*
X162257Y376147D01*
X162237Y376149D01*
X162219Y376157D01*
X162052Y376175D01*
X156968Y376175D01*
X156075Y377068D01*
X156075Y391332D01*
X156968Y392225D01*
X173232Y392225D01*
X174125Y391332D01*
X174125Y377068D01*
X173232Y376175D01*
X168148Y376175D01*
X168128Y376172D01*
X168109Y376174D01*
X168007Y376152D01*
X167905Y376136D01*
X167888Y376126D01*
X167868Y376122D01*
X167779Y376069D01*
X167688Y376020D01*
X167674Y376006D01*
X167657Y375996D01*
X167590Y375917D01*
X167518Y375842D01*
X167510Y375824D01*
X167497Y375809D01*
X167458Y375713D01*
X167415Y375619D01*
X167413Y375599D01*
X167405Y375581D01*
X167387Y375414D01*
X167387Y373833D01*
X167401Y373743D01*
X167409Y373652D01*
X167421Y373623D01*
X167426Y373591D01*
X167469Y373510D01*
X167505Y373426D01*
X167531Y373394D01*
X167542Y373373D01*
X167565Y373351D01*
X167610Y373295D01*
X170407Y370498D01*
X170407Y366102D01*
X167298Y362993D01*
X162902Y362993D01*
G37*
%LPD*%
%LPC*%
G36*
X269370Y393064D02*
X269370Y393064D01*
X268477Y393957D01*
X268477Y417319D01*
X269370Y418212D01*
X270002Y418212D01*
X270022Y418215D01*
X270041Y418213D01*
X270143Y418235D01*
X270245Y418251D01*
X270262Y418261D01*
X270282Y418265D01*
X270371Y418318D01*
X270462Y418367D01*
X270476Y418381D01*
X270493Y418391D01*
X270560Y418470D01*
X270632Y418545D01*
X270640Y418563D01*
X270653Y418578D01*
X270692Y418674D01*
X270735Y418768D01*
X270737Y418788D01*
X270745Y418806D01*
X270763Y418973D01*
X270763Y426397D01*
X273870Y429504D01*
X273923Y429578D01*
X273983Y429648D01*
X273995Y429678D01*
X274014Y429704D01*
X274041Y429791D01*
X274075Y429876D01*
X274079Y429917D01*
X274086Y429939D01*
X274085Y429971D01*
X274093Y430043D01*
X274093Y433998D01*
X277202Y437107D01*
X281598Y437107D01*
X284707Y433998D01*
X284707Y429602D01*
X281598Y426493D01*
X277643Y426493D01*
X277552Y426479D01*
X277462Y426471D01*
X277432Y426459D01*
X277400Y426454D01*
X277319Y426411D01*
X277235Y426375D01*
X277203Y426349D01*
X277182Y426338D01*
X277160Y426315D01*
X277104Y426270D01*
X275560Y424726D01*
X275507Y424652D01*
X275447Y424582D01*
X275435Y424552D01*
X275416Y424526D01*
X275389Y424439D01*
X275355Y424354D01*
X275351Y424313D01*
X275344Y424291D01*
X275345Y424259D01*
X275337Y424187D01*
X275337Y418973D01*
X275340Y418953D01*
X275338Y418934D01*
X275360Y418832D01*
X275376Y418730D01*
X275386Y418713D01*
X275390Y418693D01*
X275443Y418604D01*
X275492Y418513D01*
X275506Y418499D01*
X275516Y418482D01*
X275595Y418415D01*
X275670Y418343D01*
X275688Y418335D01*
X275703Y418322D01*
X275799Y418283D01*
X275893Y418240D01*
X275913Y418238D01*
X275931Y418230D01*
X276098Y418212D01*
X276730Y418212D01*
X277623Y417319D01*
X277623Y393957D01*
X276730Y393064D01*
X269370Y393064D01*
G37*
%LPD*%
%LPC*%
G36*
X289902Y375693D02*
X289902Y375693D01*
X286793Y378802D01*
X286793Y382757D01*
X286779Y382848D01*
X286771Y382938D01*
X286759Y382968D01*
X286754Y383000D01*
X286711Y383081D01*
X286675Y383165D01*
X286649Y383197D01*
X286638Y383218D01*
X286615Y383240D01*
X286570Y383296D01*
X283463Y386403D01*
X283463Y392303D01*
X283460Y392323D01*
X283462Y392342D01*
X283440Y392444D01*
X283424Y392546D01*
X283414Y392563D01*
X283410Y392583D01*
X283357Y392672D01*
X283308Y392763D01*
X283294Y392777D01*
X283284Y392794D01*
X283205Y392861D01*
X283130Y392933D01*
X283112Y392941D01*
X283097Y392954D01*
X283001Y392993D01*
X282907Y393036D01*
X282887Y393038D01*
X282869Y393046D01*
X282702Y393064D01*
X282070Y393064D01*
X281177Y393957D01*
X281177Y417319D01*
X282070Y418212D01*
X289430Y418212D01*
X290323Y417319D01*
X290323Y393957D01*
X289430Y393064D01*
X288798Y393064D01*
X288778Y393061D01*
X288759Y393063D01*
X288657Y393041D01*
X288555Y393025D01*
X288538Y393015D01*
X288518Y393011D01*
X288429Y392958D01*
X288338Y392909D01*
X288324Y392895D01*
X288307Y392885D01*
X288240Y392806D01*
X288168Y392731D01*
X288160Y392713D01*
X288147Y392698D01*
X288108Y392602D01*
X288065Y392508D01*
X288063Y392488D01*
X288055Y392470D01*
X288037Y392303D01*
X288037Y388613D01*
X288051Y388522D01*
X288059Y388432D01*
X288071Y388402D01*
X288076Y388370D01*
X288119Y388289D01*
X288155Y388205D01*
X288181Y388173D01*
X288192Y388152D01*
X288215Y388130D01*
X288260Y388074D01*
X289804Y386530D01*
X289878Y386477D01*
X289948Y386417D01*
X289978Y386405D01*
X290004Y386386D01*
X290091Y386359D01*
X290176Y386325D01*
X290217Y386321D01*
X290239Y386314D01*
X290271Y386315D01*
X290343Y386307D01*
X294298Y386307D01*
X297407Y383198D01*
X297407Y378802D01*
X294298Y375693D01*
X289902Y375693D01*
G37*
%LPD*%
%LPC*%
G36*
X21086Y192785D02*
X21086Y192785D01*
X14985Y198886D01*
X14985Y207514D01*
X21086Y213615D01*
X29714Y213615D01*
X35815Y207514D01*
X35815Y198886D01*
X29714Y192785D01*
X21086Y192785D01*
G37*
%LPD*%
%LPC*%
G36*
X84586Y535685D02*
X84586Y535685D01*
X78485Y541786D01*
X78485Y550414D01*
X84586Y556515D01*
X93214Y556515D01*
X99315Y550414D01*
X99315Y541786D01*
X93214Y535685D01*
X84586Y535685D01*
G37*
%LPD*%
%LPC*%
G36*
X46486Y294385D02*
X46486Y294385D01*
X40385Y300486D01*
X40385Y309114D01*
X46486Y315215D01*
X55114Y315215D01*
X61215Y309114D01*
X61215Y300486D01*
X55114Y294385D01*
X46486Y294385D01*
G37*
%LPD*%
%LPC*%
G36*
X389386Y192785D02*
X389386Y192785D01*
X383285Y198886D01*
X383285Y207514D01*
X389386Y213615D01*
X398014Y213615D01*
X404115Y207514D01*
X404115Y198886D01*
X398014Y192785D01*
X389386Y192785D01*
G37*
%LPD*%
%LPC*%
G36*
X294770Y393064D02*
X294770Y393064D01*
X293877Y393957D01*
X293877Y417319D01*
X294770Y418212D01*
X302130Y418212D01*
X303023Y417319D01*
X303023Y393957D01*
X302130Y393064D01*
X294770Y393064D01*
G37*
%LPD*%
%LPC*%
G36*
X256670Y393064D02*
X256670Y393064D01*
X255777Y393957D01*
X255777Y417319D01*
X256670Y418212D01*
X264030Y418212D01*
X264923Y417319D01*
X264923Y393957D01*
X264030Y393064D01*
X256670Y393064D01*
G37*
%LPD*%
%LPC*%
G36*
X135768Y304425D02*
X135768Y304425D01*
X134875Y305318D01*
X134875Y318582D01*
X135768Y319475D01*
X149032Y319475D01*
X149925Y318582D01*
X149925Y305318D01*
X149032Y304425D01*
X135768Y304425D01*
G37*
%LPD*%
%LPC*%
G36*
X282768Y304425D02*
X282768Y304425D01*
X281875Y305318D01*
X281875Y318582D01*
X282768Y319475D01*
X296032Y319475D01*
X296925Y318582D01*
X296925Y305318D01*
X296032Y304425D01*
X282768Y304425D01*
G37*
%LPD*%
%LPC*%
G36*
X39623Y503023D02*
X39623Y503023D01*
X39623Y516041D01*
X52434Y516041D01*
X53081Y515868D01*
X53660Y515533D01*
X54133Y515060D01*
X54468Y514481D01*
X54641Y513834D01*
X54641Y503023D01*
X39623Y503023D01*
G37*
%LPD*%
%LPC*%
G36*
X21559Y503023D02*
X21559Y503023D01*
X21559Y513834D01*
X21732Y514481D01*
X22067Y515060D01*
X22540Y515533D01*
X23119Y515868D01*
X23766Y516041D01*
X36577Y516041D01*
X36577Y503023D01*
X21559Y503023D01*
G37*
%LPD*%
%LPC*%
G36*
X39623Y486959D02*
X39623Y486959D01*
X39623Y499977D01*
X54641Y499977D01*
X54641Y489166D01*
X54468Y488519D01*
X54133Y487940D01*
X53660Y487467D01*
X53081Y487132D01*
X52434Y486959D01*
X39623Y486959D01*
G37*
%LPD*%
%LPC*%
G36*
X23766Y486959D02*
X23766Y486959D01*
X23119Y487132D01*
X22540Y487467D01*
X22067Y487940D01*
X21732Y488519D01*
X21559Y489166D01*
X21559Y499977D01*
X36577Y499977D01*
X36577Y486959D01*
X23766Y486959D01*
G37*
%LPD*%
%LPC*%
G36*
X116419Y20923D02*
X116419Y20923D01*
X116717Y22805D01*
X117425Y24982D01*
X118464Y27021D01*
X119809Y28873D01*
X121427Y30491D01*
X123279Y31836D01*
X125318Y32875D01*
X127495Y33583D01*
X129377Y33881D01*
X129377Y20923D01*
X116419Y20923D01*
G37*
%LPD*%
%LPC*%
G36*
X327823Y652177D02*
X327823Y652177D01*
X340781Y652177D01*
X340483Y650295D01*
X339775Y648118D01*
X338736Y646079D01*
X337391Y644227D01*
X335773Y642609D01*
X333921Y641264D01*
X331882Y640225D01*
X329705Y639517D01*
X327823Y639219D01*
X327823Y652177D01*
G37*
%LPD*%
%LPC*%
G36*
X116419Y133923D02*
X116419Y133923D01*
X116717Y135805D01*
X117425Y137982D01*
X118464Y140021D01*
X119809Y141873D01*
X121427Y143491D01*
X123279Y144836D01*
X125318Y145875D01*
X127495Y146583D01*
X129377Y146881D01*
X129377Y133923D01*
X116419Y133923D01*
G37*
%LPD*%
%LPC*%
G36*
X127495Y118217D02*
X127495Y118217D01*
X125318Y118925D01*
X123279Y119964D01*
X121427Y121309D01*
X119809Y122927D01*
X118464Y124779D01*
X117425Y126818D01*
X116717Y128995D01*
X116419Y130877D01*
X129377Y130877D01*
X129377Y117919D01*
X127495Y118217D01*
G37*
%LPD*%
%LPC*%
G36*
X369823Y306323D02*
X369823Y306323D01*
X369823Y316231D01*
X373035Y316231D01*
X379731Y309535D01*
X379731Y306323D01*
X369823Y306323D01*
G37*
%LPD*%
%LPC*%
G36*
X356869Y306323D02*
X356869Y306323D01*
X356869Y309535D01*
X363565Y316231D01*
X366777Y316231D01*
X366777Y306323D01*
X356869Y306323D01*
G37*
%LPD*%
%LPC*%
G36*
X369823Y293369D02*
X369823Y293369D01*
X369823Y303277D01*
X379731Y303277D01*
X379731Y300065D01*
X373035Y293369D01*
X369823Y293369D01*
G37*
%LPD*%
%LPC*%
G36*
X363565Y293369D02*
X363565Y293369D01*
X356869Y300065D01*
X356869Y303277D01*
X366777Y303277D01*
X366777Y293369D01*
X363565Y293369D01*
G37*
%LPD*%
%LPC*%
G36*
X280923Y346723D02*
X280923Y346723D01*
X280923Y355741D01*
X287234Y355741D01*
X287881Y355568D01*
X288460Y355233D01*
X288933Y354760D01*
X289268Y354181D01*
X289441Y353534D01*
X289441Y346723D01*
X280923Y346723D01*
G37*
%LPD*%
%LPC*%
G36*
X280923Y334659D02*
X280923Y334659D01*
X280923Y343677D01*
X289441Y343677D01*
X289441Y336866D01*
X289268Y336219D01*
X288933Y335640D01*
X288460Y335167D01*
X287881Y334832D01*
X287234Y334659D01*
X280923Y334659D01*
G37*
%LPD*%
%LPC*%
G36*
X269359Y346723D02*
X269359Y346723D01*
X269359Y353534D01*
X269532Y354181D01*
X269867Y354760D01*
X270340Y355233D01*
X270919Y355568D01*
X271566Y355741D01*
X277877Y355741D01*
X277877Y346723D01*
X269359Y346723D01*
G37*
%LPD*%
%LPC*%
G36*
X271566Y334659D02*
X271566Y334659D01*
X270919Y334832D01*
X270340Y335167D01*
X269867Y335640D01*
X269532Y336219D01*
X269359Y336866D01*
X269359Y343677D01*
X277877Y343677D01*
X277877Y334659D01*
X271566Y334659D01*
G37*
%LPD*%
%LPC*%
G36*
X166623Y493623D02*
X166623Y493623D01*
X166623Y501141D01*
X172934Y501141D01*
X173581Y500968D01*
X174160Y500633D01*
X174633Y500160D01*
X174968Y499581D01*
X175141Y498934D01*
X175141Y493623D01*
X166623Y493623D01*
G37*
%LPD*%
%LPC*%
G36*
X155059Y493623D02*
X155059Y493623D01*
X155059Y498934D01*
X155232Y499581D01*
X155567Y500160D01*
X156040Y500633D01*
X156619Y500968D01*
X157266Y501141D01*
X163577Y501141D01*
X163577Y493623D01*
X155059Y493623D01*
G37*
%LPD*%
%LPC*%
G36*
X166623Y483059D02*
X166623Y483059D01*
X166623Y490577D01*
X175141Y490577D01*
X175141Y485266D01*
X174968Y484619D01*
X174633Y484040D01*
X174160Y483567D01*
X173581Y483232D01*
X172934Y483059D01*
X166623Y483059D01*
G37*
%LPD*%
%LPC*%
G36*
X157266Y483059D02*
X157266Y483059D01*
X156619Y483232D01*
X156040Y483567D01*
X155567Y484040D01*
X155232Y484619D01*
X155059Y485266D01*
X155059Y490577D01*
X163577Y490577D01*
X163577Y483059D01*
X157266Y483059D01*
G37*
%LPD*%
%LPC*%
G36*
X261873Y459485D02*
X261873Y459485D01*
X261873Y471552D01*
X263733Y471552D01*
X264379Y471379D01*
X264958Y471044D01*
X265431Y470571D01*
X265766Y469992D01*
X265939Y469345D01*
X265939Y459485D01*
X261873Y459485D01*
G37*
%LPD*%
%LPC*%
G36*
X254761Y459485D02*
X254761Y459485D01*
X254761Y469345D01*
X254934Y469992D01*
X255269Y470571D01*
X255742Y471044D01*
X256321Y471379D01*
X256968Y471552D01*
X258827Y471552D01*
X258827Y459485D01*
X254761Y459485D01*
G37*
%LPD*%
%LPC*%
G36*
X368299Y304799D02*
X368299Y304799D01*
X368299Y304801D01*
X368301Y304801D01*
X368301Y304799D01*
X368299Y304799D01*
G37*
%LPD*%
%LPC*%
G36*
X165099Y492099D02*
X165099Y492099D01*
X165099Y492101D01*
X165101Y492101D01*
X165101Y492099D01*
X165099Y492099D01*
G37*
%LPD*%
%LPC*%
G36*
X279399Y345199D02*
X279399Y345199D01*
X279399Y345201D01*
X279401Y345201D01*
X279401Y345199D01*
X279399Y345199D01*
G37*
%LPD*%
%LPC*%
G36*
X38099Y501499D02*
X38099Y501499D01*
X38099Y501501D01*
X38101Y501501D01*
X38101Y501499D01*
X38099Y501499D01*
G37*
%LPD*%
D10*
X381000Y62200D03*
X381000Y90200D03*
X342900Y341600D03*
X342900Y369600D03*
X203200Y445800D03*
X203200Y417800D03*
D11*
X298450Y457962D03*
X298450Y405638D03*
X285750Y457962D03*
X273050Y457962D03*
X285750Y405638D03*
X273050Y405638D03*
X260350Y457962D03*
X260350Y405638D03*
D12*
X193900Y19400D03*
X193900Y132400D03*
X130900Y19400D03*
X130900Y132400D03*
X256900Y19400D03*
X256900Y132400D03*
X263300Y653700D03*
X263300Y540700D03*
X326300Y653700D03*
X326300Y540700D03*
X200300Y653700D03*
X200300Y540700D03*
D13*
X38100Y501500D03*
X38100Y387500D03*
X99100Y501500D03*
X99100Y387500D03*
D14*
X241300Y260604D02*
X241300Y247396D01*
X190500Y247396D02*
X190500Y260604D01*
X215900Y260604D02*
X215900Y247396D01*
D15*
X342900Y203200D03*
X393700Y203200D03*
X368300Y304800D03*
X25400Y203200D03*
X76200Y203200D03*
X50800Y304800D03*
D16*
X342900Y422300D03*
X342900Y441300D03*
X165100Y384200D03*
X165100Y403200D03*
X165100Y473100D03*
X165100Y492100D03*
D15*
X38100Y546100D03*
X88900Y546100D03*
X63500Y647700D03*
D17*
X279400Y345200D03*
D18*
X269400Y311950D03*
X289400Y311950D03*
D17*
X152400Y345200D03*
D18*
X142400Y311950D03*
X162400Y311950D03*
D19*
X223050Y311950D02*
X269400Y311950D01*
X223050Y311950D02*
X215900Y304800D01*
X215900Y254000D01*
X203200Y203200D02*
X76200Y203200D01*
X203200Y203200D02*
X215900Y215900D01*
X215900Y254000D01*
X379700Y90200D01*
X381000Y90200D01*
X255300Y254000D02*
X342900Y341600D01*
X255300Y254000D02*
X241300Y254000D01*
X292100Y203200D02*
X342900Y203200D01*
X292100Y203200D02*
X241300Y254000D01*
X190500Y271150D02*
X162400Y311950D01*
X190500Y271150D02*
X190500Y254000D01*
X57300Y387500D02*
X38100Y387500D01*
X57300Y387500D02*
X63500Y393700D01*
D20*
X63500Y393700D03*
D19*
X69700Y387500D02*
X99100Y387500D01*
X69700Y387500D02*
X63500Y393700D01*
X139700Y368300D02*
X152400Y345200D01*
D20*
X139700Y368300D03*
D19*
X165100Y368300D02*
X165100Y384200D01*
D20*
X165100Y368300D03*
D19*
X203200Y393700D02*
X203200Y417800D01*
D20*
X203200Y393700D03*
D19*
X285750Y387350D02*
X285750Y405638D01*
X285750Y387350D02*
X292100Y381000D01*
D20*
X292100Y381000D03*
D19*
X165100Y403200D02*
X165100Y444500D01*
X165100Y473100D01*
X201900Y444500D02*
X203200Y445800D01*
X201900Y444500D02*
X165100Y444500D01*
X203200Y445800D02*
X255182Y445800D01*
X256355Y444627D01*
X264345Y444627D01*
X265684Y445966D01*
X265684Y450596D01*
X273050Y457962D01*
X342900Y422300D02*
X342900Y369600D01*
X293116Y445966D02*
X293116Y450596D01*
X285750Y457962D01*
X297782Y441300D02*
X342900Y441300D01*
X297782Y441300D02*
X293116Y445966D01*
X88900Y596900D02*
X38100Y546100D01*
X88900Y596900D02*
X215900Y596900D01*
X241300Y571500D01*
X286004Y458216D02*
X285750Y457962D01*
X286004Y458216D02*
X286004Y475038D01*
X241300Y519742D01*
X241300Y571500D01*
X69500Y653700D02*
X63500Y647700D01*
X69500Y653700D02*
X200300Y653700D01*
X273050Y425450D02*
X273050Y405638D01*
X273050Y425450D02*
X279400Y431800D01*
D20*
X279400Y431800D03*
D19*
X256900Y132400D02*
X310800Y132400D01*
X381000Y62200D01*
X338200Y19400D02*
X256900Y19400D01*
X338200Y19400D02*
X381000Y62200D01*
M02*
