G04 EAGLE Gerber RS-274X export*
G75*
%MOMM*%
%FSLAX34Y34*%
%LPD*%
%IN*%
%IPPOS*%
%AMOC8*
5,1,8,0,0,1.08239X$1,22.5*%
G01*
%ADD10C,0.254000*%


D10*
X0Y0D02*
X428500Y0D01*
X428500Y673000D01*
X0Y673000D01*
X0Y0D01*
X173900Y128468D02*
X173832Y127606D01*
X173697Y126752D01*
X173495Y125912D01*
X173228Y125090D01*
X172897Y124291D01*
X172505Y123521D01*
X172053Y122784D01*
X171545Y122085D01*
X170984Y121427D01*
X170373Y120816D01*
X169715Y120255D01*
X169016Y119747D01*
X168279Y119295D01*
X167509Y118903D01*
X166710Y118572D01*
X165888Y118305D01*
X165048Y118103D01*
X164194Y117968D01*
X163332Y117900D01*
X162468Y117900D01*
X161606Y117968D01*
X160752Y118103D01*
X159912Y118305D01*
X159090Y118572D01*
X158291Y118903D01*
X157521Y119295D01*
X156784Y119747D01*
X156085Y120255D01*
X155427Y120816D01*
X154816Y121427D01*
X154255Y122085D01*
X153747Y122784D01*
X153295Y123521D01*
X152903Y124291D01*
X152572Y125090D01*
X152305Y125912D01*
X152103Y126752D01*
X151968Y127606D01*
X151900Y128468D01*
X151900Y129332D01*
X151968Y130194D01*
X152103Y131048D01*
X152305Y131888D01*
X152572Y132710D01*
X152903Y133509D01*
X153295Y134279D01*
X153747Y135016D01*
X154255Y135715D01*
X154816Y136373D01*
X155427Y136984D01*
X156085Y137545D01*
X156784Y138053D01*
X157521Y138505D01*
X158291Y138897D01*
X159090Y139228D01*
X159912Y139495D01*
X160752Y139697D01*
X161606Y139832D01*
X162468Y139900D01*
X163332Y139900D01*
X164194Y139832D01*
X165048Y139697D01*
X165888Y139495D01*
X166710Y139228D01*
X167509Y138897D01*
X168279Y138505D01*
X169016Y138053D01*
X169715Y137545D01*
X170373Y136984D01*
X170984Y136373D01*
X171545Y135715D01*
X172053Y135016D01*
X172505Y134279D01*
X172897Y133509D01*
X173228Y132710D01*
X173495Y131888D01*
X173697Y131048D01*
X173832Y130194D01*
X173900Y129332D01*
X173900Y128468D01*
X173900Y22468D02*
X173832Y21606D01*
X173697Y20752D01*
X173495Y19912D01*
X173228Y19090D01*
X172897Y18291D01*
X172505Y17521D01*
X172053Y16784D01*
X171545Y16085D01*
X170984Y15427D01*
X170373Y14816D01*
X169715Y14255D01*
X169016Y13747D01*
X168279Y13295D01*
X167509Y12903D01*
X166710Y12572D01*
X165888Y12305D01*
X165048Y12103D01*
X164194Y11968D01*
X163332Y11900D01*
X162468Y11900D01*
X161606Y11968D01*
X160752Y12103D01*
X159912Y12305D01*
X159090Y12572D01*
X158291Y12903D01*
X157521Y13295D01*
X156784Y13747D01*
X156085Y14255D01*
X155427Y14816D01*
X154816Y15427D01*
X154255Y16085D01*
X153747Y16784D01*
X153295Y17521D01*
X152903Y18291D01*
X152572Y19090D01*
X152305Y19912D01*
X152103Y20752D01*
X151968Y21606D01*
X151900Y22468D01*
X151900Y23332D01*
X151968Y24194D01*
X152103Y25048D01*
X152305Y25888D01*
X152572Y26710D01*
X152903Y27509D01*
X153295Y28279D01*
X153747Y29016D01*
X154255Y29715D01*
X154816Y30373D01*
X155427Y30984D01*
X156085Y31545D01*
X156784Y32053D01*
X157521Y32505D01*
X158291Y32897D01*
X159090Y33228D01*
X159912Y33495D01*
X160752Y33697D01*
X161606Y33832D01*
X162468Y33900D01*
X163332Y33900D01*
X164194Y33832D01*
X165048Y33697D01*
X165888Y33495D01*
X166710Y33228D01*
X167509Y32897D01*
X168279Y32505D01*
X169016Y32053D01*
X169715Y31545D01*
X170373Y30984D01*
X170984Y30373D01*
X171545Y29715D01*
X172053Y29016D01*
X172505Y28279D01*
X172897Y27509D01*
X173228Y26710D01*
X173495Y25888D01*
X173697Y25048D01*
X173832Y24194D01*
X173900Y23332D01*
X173900Y22468D01*
X283300Y544632D02*
X283368Y545494D01*
X283503Y546348D01*
X283705Y547188D01*
X283972Y548010D01*
X284303Y548809D01*
X284695Y549579D01*
X285147Y550316D01*
X285655Y551015D01*
X286216Y551673D01*
X286827Y552284D01*
X287485Y552845D01*
X288184Y553353D01*
X288921Y553805D01*
X289691Y554197D01*
X290490Y554528D01*
X291312Y554795D01*
X292152Y554997D01*
X293006Y555132D01*
X293868Y555200D01*
X294732Y555200D01*
X295594Y555132D01*
X296448Y554997D01*
X297288Y554795D01*
X298110Y554528D01*
X298909Y554197D01*
X299679Y553805D01*
X300416Y553353D01*
X301115Y552845D01*
X301773Y552284D01*
X302384Y551673D01*
X302945Y551015D01*
X303453Y550316D01*
X303905Y549579D01*
X304297Y548809D01*
X304628Y548010D01*
X304895Y547188D01*
X305097Y546348D01*
X305232Y545494D01*
X305300Y544632D01*
X305300Y543768D01*
X305232Y542906D01*
X305097Y542052D01*
X304895Y541212D01*
X304628Y540390D01*
X304297Y539591D01*
X303905Y538821D01*
X303453Y538084D01*
X302945Y537385D01*
X302384Y536727D01*
X301773Y536116D01*
X301115Y535555D01*
X300416Y535047D01*
X299679Y534595D01*
X298909Y534203D01*
X298110Y533872D01*
X297288Y533605D01*
X296448Y533403D01*
X295594Y533268D01*
X294732Y533200D01*
X293868Y533200D01*
X293006Y533268D01*
X292152Y533403D01*
X291312Y533605D01*
X290490Y533872D01*
X289691Y534203D01*
X288921Y534595D01*
X288184Y535047D01*
X287485Y535555D01*
X286827Y536116D01*
X286216Y536727D01*
X285655Y537385D01*
X285147Y538084D01*
X284695Y538821D01*
X284303Y539591D01*
X283972Y540390D01*
X283705Y541212D01*
X283503Y542052D01*
X283368Y542906D01*
X283300Y543768D01*
X283300Y544632D01*
X283300Y650632D02*
X283368Y651494D01*
X283503Y652348D01*
X283705Y653188D01*
X283972Y654010D01*
X284303Y654809D01*
X284695Y655579D01*
X285147Y656316D01*
X285655Y657015D01*
X286216Y657673D01*
X286827Y658284D01*
X287485Y658845D01*
X288184Y659353D01*
X288921Y659805D01*
X289691Y660197D01*
X290490Y660528D01*
X291312Y660795D01*
X292152Y660997D01*
X293006Y661132D01*
X293868Y661200D01*
X294732Y661200D01*
X295594Y661132D01*
X296448Y660997D01*
X297288Y660795D01*
X298110Y660528D01*
X298909Y660197D01*
X299679Y659805D01*
X300416Y659353D01*
X301115Y658845D01*
X301773Y658284D01*
X302384Y657673D01*
X302945Y657015D01*
X303453Y656316D01*
X303905Y655579D01*
X304297Y654809D01*
X304628Y654010D01*
X304895Y653188D01*
X305097Y652348D01*
X305232Y651494D01*
X305300Y650632D01*
X305300Y649768D01*
X305232Y648906D01*
X305097Y648052D01*
X304895Y647212D01*
X304628Y646390D01*
X304297Y645591D01*
X303905Y644821D01*
X303453Y644084D01*
X302945Y643385D01*
X302384Y642727D01*
X301773Y642116D01*
X301115Y641555D01*
X300416Y641047D01*
X299679Y640595D01*
X298909Y640203D01*
X298110Y639872D01*
X297288Y639605D01*
X296448Y639403D01*
X295594Y639268D01*
X294732Y639200D01*
X293868Y639200D01*
X293006Y639268D01*
X292152Y639403D01*
X291312Y639605D01*
X290490Y639872D01*
X289691Y640203D01*
X288921Y640595D01*
X288184Y641047D01*
X287485Y641555D01*
X286827Y642116D01*
X286216Y642727D01*
X285655Y643385D01*
X285147Y644084D01*
X284695Y644821D01*
X284303Y645591D01*
X283972Y646390D01*
X283705Y647212D01*
X283503Y648052D01*
X283368Y648906D01*
X283300Y649768D01*
X283300Y650632D01*
X48260Y444056D02*
X48183Y443173D01*
X48029Y442299D01*
X47799Y441442D01*
X47496Y440608D01*
X47121Y439804D01*
X46677Y439036D01*
X46168Y438309D01*
X45598Y437629D01*
X44971Y437002D01*
X44291Y436432D01*
X43564Y435923D01*
X42796Y435479D01*
X41992Y435104D01*
X41158Y434801D01*
X40301Y434571D01*
X39427Y434417D01*
X38544Y434340D01*
X37656Y434340D01*
X36773Y434417D01*
X35899Y434571D01*
X35042Y434801D01*
X34208Y435104D01*
X33404Y435479D01*
X32636Y435923D01*
X31909Y436432D01*
X31229Y437002D01*
X30602Y437629D01*
X30032Y438309D01*
X29523Y439036D01*
X29079Y439804D01*
X28704Y440608D01*
X28401Y441442D01*
X28171Y442299D01*
X28017Y443173D01*
X27940Y444056D01*
X27940Y444944D01*
X28017Y445827D01*
X28171Y446701D01*
X28401Y447558D01*
X28704Y448392D01*
X29079Y449196D01*
X29523Y449964D01*
X30032Y450691D01*
X30602Y451371D01*
X31229Y451998D01*
X31909Y452568D01*
X32636Y453077D01*
X33404Y453521D01*
X34208Y453896D01*
X35042Y454199D01*
X35899Y454429D01*
X36773Y454583D01*
X37656Y454660D01*
X38544Y454660D01*
X39427Y454583D01*
X40301Y454429D01*
X41158Y454199D01*
X41992Y453896D01*
X42796Y453521D01*
X43564Y453077D01*
X44291Y452568D01*
X44971Y451998D01*
X45598Y451371D01*
X46168Y450691D01*
X46677Y449964D01*
X47121Y449196D01*
X47496Y448392D01*
X47799Y447558D01*
X48029Y446701D01*
X48183Y445827D01*
X48260Y444944D01*
X48260Y444056D01*
X93980Y444056D02*
X93903Y443173D01*
X93749Y442299D01*
X93519Y441442D01*
X93216Y440608D01*
X92841Y439804D01*
X92397Y439036D01*
X91888Y438309D01*
X91318Y437629D01*
X90691Y437002D01*
X90011Y436432D01*
X89284Y435923D01*
X88516Y435479D01*
X87712Y435104D01*
X86878Y434801D01*
X86021Y434571D01*
X85147Y434417D01*
X84264Y434340D01*
X83376Y434340D01*
X82493Y434417D01*
X81619Y434571D01*
X80762Y434801D01*
X79928Y435104D01*
X79124Y435479D01*
X78356Y435923D01*
X77629Y436432D01*
X76949Y437002D01*
X76322Y437629D01*
X75752Y438309D01*
X75243Y439036D01*
X74799Y439804D01*
X74424Y440608D01*
X74121Y441442D01*
X73891Y442299D01*
X73737Y443173D01*
X73660Y444056D01*
X73660Y444944D01*
X73737Y445827D01*
X73891Y446701D01*
X74121Y447558D01*
X74424Y448392D01*
X74799Y449196D01*
X75243Y449964D01*
X75752Y450691D01*
X76322Y451371D01*
X76949Y451998D01*
X77629Y452568D01*
X78356Y453077D01*
X79124Y453521D01*
X79928Y453896D01*
X80762Y454199D01*
X81619Y454429D01*
X82493Y454583D01*
X83376Y454660D01*
X84264Y454660D01*
X85147Y454583D01*
X86021Y454429D01*
X86878Y454199D01*
X87712Y453896D01*
X88516Y453521D01*
X89284Y453077D01*
X90011Y452568D01*
X90691Y451998D01*
X91318Y451371D01*
X91888Y450691D01*
X92397Y449964D01*
X92841Y449196D01*
X93216Y448392D01*
X93519Y447558D01*
X93749Y446701D01*
X93903Y445827D01*
X93980Y444944D01*
X93980Y444056D01*
M02*
