G04 EAGLE Gerber RS-274X export*
G75*
%MOMM*%
%FSLAX34Y34*%
%LPD*%
%INSilkscreen Top*%
%IPPOS*%
%AMOC8*
5,1,8,0,0,1.08239X$1,22.5*%
G01*
%ADD10C,0.101600*%
%ADD11C,0.152400*%
%ADD12C,0.050800*%
%ADD13C,0.127000*%
%ADD14C,0.203200*%
%ADD15C,0.254000*%


D10*
X367792Y69201D02*
X367792Y66604D01*
X367790Y66505D01*
X367784Y66405D01*
X367775Y66306D01*
X367762Y66208D01*
X367745Y66110D01*
X367724Y66012D01*
X367699Y65916D01*
X367671Y65821D01*
X367639Y65727D01*
X367604Y65634D01*
X367565Y65542D01*
X367522Y65452D01*
X367477Y65364D01*
X367427Y65277D01*
X367375Y65193D01*
X367319Y65110D01*
X367261Y65030D01*
X367199Y64952D01*
X367134Y64877D01*
X367066Y64804D01*
X366996Y64734D01*
X366923Y64666D01*
X366848Y64601D01*
X366770Y64539D01*
X366690Y64481D01*
X366607Y64425D01*
X366523Y64373D01*
X366436Y64323D01*
X366348Y64278D01*
X366258Y64235D01*
X366166Y64196D01*
X366073Y64161D01*
X365979Y64129D01*
X365884Y64101D01*
X365788Y64076D01*
X365690Y64055D01*
X365592Y64038D01*
X365494Y64025D01*
X365395Y64016D01*
X365295Y64010D01*
X365196Y64008D01*
X358704Y64008D01*
X358605Y64010D01*
X358505Y64016D01*
X358406Y64025D01*
X358308Y64038D01*
X358210Y64056D01*
X358112Y64076D01*
X358016Y64101D01*
X357920Y64129D01*
X357826Y64161D01*
X357733Y64196D01*
X357642Y64235D01*
X357552Y64278D01*
X357463Y64323D01*
X357377Y64373D01*
X357292Y64425D01*
X357210Y64481D01*
X357130Y64540D01*
X357052Y64601D01*
X356976Y64666D01*
X356903Y64734D01*
X356833Y64804D01*
X356765Y64877D01*
X356700Y64953D01*
X356639Y65031D01*
X356580Y65111D01*
X356524Y65193D01*
X356472Y65278D01*
X356423Y65364D01*
X356377Y65453D01*
X356334Y65543D01*
X356295Y65634D01*
X356260Y65727D01*
X356228Y65821D01*
X356200Y65917D01*
X356175Y66013D01*
X356155Y66111D01*
X356137Y66209D01*
X356124Y66307D01*
X356115Y66406D01*
X356109Y66505D01*
X356107Y66605D01*
X356108Y66604D02*
X356108Y69201D01*
X358704Y73566D02*
X356108Y76812D01*
X367792Y76812D01*
X367792Y80057D02*
X367792Y73566D01*
X329692Y346004D02*
X329692Y348601D01*
X329692Y346004D02*
X329690Y345905D01*
X329684Y345805D01*
X329675Y345706D01*
X329662Y345608D01*
X329645Y345510D01*
X329624Y345412D01*
X329599Y345316D01*
X329571Y345221D01*
X329539Y345127D01*
X329504Y345034D01*
X329465Y344942D01*
X329422Y344852D01*
X329377Y344764D01*
X329327Y344677D01*
X329275Y344593D01*
X329219Y344510D01*
X329161Y344430D01*
X329099Y344352D01*
X329034Y344277D01*
X328966Y344204D01*
X328896Y344134D01*
X328823Y344066D01*
X328748Y344001D01*
X328670Y343939D01*
X328590Y343881D01*
X328507Y343825D01*
X328423Y343773D01*
X328336Y343723D01*
X328248Y343678D01*
X328158Y343635D01*
X328066Y343596D01*
X327973Y343561D01*
X327879Y343529D01*
X327784Y343501D01*
X327688Y343476D01*
X327590Y343455D01*
X327492Y343438D01*
X327394Y343425D01*
X327295Y343416D01*
X327195Y343410D01*
X327096Y343408D01*
X320604Y343408D01*
X320505Y343410D01*
X320405Y343416D01*
X320306Y343425D01*
X320208Y343438D01*
X320110Y343456D01*
X320012Y343476D01*
X319916Y343501D01*
X319820Y343529D01*
X319726Y343561D01*
X319633Y343596D01*
X319542Y343635D01*
X319452Y343678D01*
X319363Y343723D01*
X319277Y343773D01*
X319192Y343825D01*
X319110Y343881D01*
X319030Y343940D01*
X318952Y344001D01*
X318876Y344066D01*
X318803Y344134D01*
X318733Y344204D01*
X318665Y344277D01*
X318600Y344353D01*
X318539Y344431D01*
X318480Y344511D01*
X318424Y344593D01*
X318372Y344678D01*
X318323Y344764D01*
X318277Y344853D01*
X318234Y344943D01*
X318195Y345034D01*
X318160Y345127D01*
X318128Y345221D01*
X318100Y345317D01*
X318075Y345413D01*
X318055Y345511D01*
X318037Y345609D01*
X318024Y345707D01*
X318015Y345806D01*
X318009Y345905D01*
X318007Y346005D01*
X318008Y346004D02*
X318008Y348601D01*
X318008Y356536D02*
X318010Y356643D01*
X318016Y356749D01*
X318026Y356855D01*
X318039Y356961D01*
X318057Y357067D01*
X318078Y357171D01*
X318103Y357275D01*
X318132Y357378D01*
X318164Y357479D01*
X318201Y357579D01*
X318241Y357678D01*
X318284Y357776D01*
X318331Y357872D01*
X318382Y357966D01*
X318436Y358058D01*
X318493Y358148D01*
X318553Y358236D01*
X318617Y358321D01*
X318684Y358404D01*
X318754Y358485D01*
X318826Y358563D01*
X318902Y358639D01*
X318980Y358711D01*
X319061Y358781D01*
X319144Y358848D01*
X319229Y358912D01*
X319317Y358972D01*
X319407Y359029D01*
X319499Y359083D01*
X319593Y359134D01*
X319689Y359181D01*
X319787Y359224D01*
X319886Y359264D01*
X319986Y359301D01*
X320087Y359333D01*
X320190Y359362D01*
X320294Y359387D01*
X320398Y359408D01*
X320504Y359426D01*
X320610Y359439D01*
X320716Y359449D01*
X320822Y359455D01*
X320929Y359457D01*
X318008Y356536D02*
X318010Y356415D01*
X318016Y356294D01*
X318026Y356174D01*
X318039Y356053D01*
X318057Y355934D01*
X318078Y355814D01*
X318103Y355696D01*
X318132Y355579D01*
X318165Y355462D01*
X318201Y355347D01*
X318242Y355233D01*
X318285Y355120D01*
X318333Y355008D01*
X318384Y354899D01*
X318439Y354791D01*
X318497Y354684D01*
X318558Y354580D01*
X318623Y354478D01*
X318691Y354378D01*
X318762Y354280D01*
X318836Y354184D01*
X318913Y354091D01*
X318994Y354001D01*
X319077Y353913D01*
X319163Y353828D01*
X319252Y353745D01*
X319343Y353666D01*
X319437Y353589D01*
X319533Y353516D01*
X319631Y353446D01*
X319732Y353379D01*
X319835Y353315D01*
X319940Y353255D01*
X320047Y353197D01*
X320155Y353144D01*
X320265Y353094D01*
X320377Y353048D01*
X320490Y353005D01*
X320605Y352966D01*
X323201Y358483D02*
X323123Y358562D01*
X323043Y358638D01*
X322960Y358711D01*
X322874Y358781D01*
X322787Y358848D01*
X322696Y358912D01*
X322604Y358972D01*
X322510Y359030D01*
X322413Y359084D01*
X322315Y359134D01*
X322215Y359181D01*
X322114Y359225D01*
X322011Y359265D01*
X321906Y359301D01*
X321801Y359333D01*
X321694Y359362D01*
X321587Y359387D01*
X321478Y359409D01*
X321369Y359426D01*
X321260Y359440D01*
X321150Y359449D01*
X321039Y359455D01*
X320929Y359457D01*
X323201Y358484D02*
X329692Y352966D01*
X329692Y359457D01*
X228092Y430539D02*
X228092Y433136D01*
X228092Y430539D02*
X228090Y430440D01*
X228084Y430340D01*
X228075Y430241D01*
X228062Y430143D01*
X228045Y430045D01*
X228024Y429947D01*
X227999Y429851D01*
X227971Y429756D01*
X227939Y429662D01*
X227904Y429569D01*
X227865Y429477D01*
X227822Y429387D01*
X227777Y429299D01*
X227727Y429212D01*
X227675Y429128D01*
X227619Y429045D01*
X227561Y428965D01*
X227499Y428887D01*
X227434Y428812D01*
X227366Y428739D01*
X227296Y428669D01*
X227223Y428601D01*
X227148Y428536D01*
X227070Y428474D01*
X226990Y428416D01*
X226907Y428360D01*
X226823Y428308D01*
X226736Y428258D01*
X226648Y428213D01*
X226558Y428170D01*
X226466Y428131D01*
X226373Y428096D01*
X226279Y428064D01*
X226184Y428036D01*
X226088Y428011D01*
X225990Y427990D01*
X225892Y427973D01*
X225794Y427960D01*
X225695Y427951D01*
X225595Y427945D01*
X225496Y427943D01*
X219004Y427943D01*
X219004Y427942D02*
X218905Y427944D01*
X218805Y427950D01*
X218706Y427959D01*
X218608Y427972D01*
X218510Y427990D01*
X218412Y428010D01*
X218316Y428035D01*
X218220Y428063D01*
X218126Y428095D01*
X218033Y428130D01*
X217942Y428169D01*
X217852Y428212D01*
X217763Y428257D01*
X217677Y428307D01*
X217592Y428359D01*
X217510Y428415D01*
X217430Y428474D01*
X217352Y428535D01*
X217276Y428600D01*
X217203Y428668D01*
X217133Y428738D01*
X217065Y428811D01*
X217000Y428887D01*
X216939Y428965D01*
X216880Y429045D01*
X216824Y429127D01*
X216772Y429212D01*
X216723Y429298D01*
X216677Y429387D01*
X216634Y429477D01*
X216595Y429568D01*
X216560Y429661D01*
X216528Y429755D01*
X216500Y429851D01*
X216475Y429947D01*
X216455Y430045D01*
X216437Y430143D01*
X216424Y430241D01*
X216415Y430340D01*
X216409Y430439D01*
X216407Y430539D01*
X216408Y430539D02*
X216408Y433136D01*
X228092Y437501D02*
X228092Y440746D01*
X228090Y440859D01*
X228084Y440972D01*
X228074Y441085D01*
X228060Y441198D01*
X228043Y441310D01*
X228021Y441421D01*
X227996Y441531D01*
X227966Y441641D01*
X227933Y441749D01*
X227896Y441856D01*
X227856Y441962D01*
X227811Y442066D01*
X227763Y442169D01*
X227712Y442270D01*
X227657Y442369D01*
X227599Y442466D01*
X227537Y442561D01*
X227472Y442654D01*
X227404Y442744D01*
X227333Y442832D01*
X227258Y442918D01*
X227181Y443001D01*
X227101Y443081D01*
X227018Y443158D01*
X226932Y443233D01*
X226844Y443304D01*
X226754Y443372D01*
X226661Y443437D01*
X226566Y443499D01*
X226469Y443557D01*
X226370Y443612D01*
X226269Y443663D01*
X226166Y443711D01*
X226062Y443756D01*
X225956Y443796D01*
X225849Y443833D01*
X225741Y443866D01*
X225631Y443896D01*
X225521Y443921D01*
X225410Y443943D01*
X225298Y443960D01*
X225185Y443974D01*
X225072Y443984D01*
X224959Y443990D01*
X224846Y443992D01*
X224733Y443990D01*
X224620Y443984D01*
X224507Y443974D01*
X224394Y443960D01*
X224282Y443943D01*
X224171Y443921D01*
X224061Y443896D01*
X223951Y443866D01*
X223843Y443833D01*
X223736Y443796D01*
X223630Y443756D01*
X223526Y443711D01*
X223423Y443663D01*
X223322Y443612D01*
X223223Y443557D01*
X223126Y443499D01*
X223031Y443437D01*
X222938Y443372D01*
X222848Y443304D01*
X222760Y443233D01*
X222674Y443158D01*
X222591Y443081D01*
X222511Y443001D01*
X222434Y442918D01*
X222359Y442832D01*
X222288Y442744D01*
X222220Y442654D01*
X222155Y442561D01*
X222093Y442466D01*
X222035Y442369D01*
X221980Y442270D01*
X221929Y442169D01*
X221881Y442066D01*
X221836Y441962D01*
X221796Y441856D01*
X221759Y441749D01*
X221726Y441641D01*
X221696Y441531D01*
X221671Y441421D01*
X221649Y441310D01*
X221632Y441198D01*
X221618Y441085D01*
X221608Y440972D01*
X221602Y440859D01*
X221600Y440746D01*
X216408Y441396D02*
X216408Y437501D01*
X216408Y441396D02*
X216410Y441497D01*
X216416Y441597D01*
X216426Y441697D01*
X216439Y441797D01*
X216457Y441896D01*
X216478Y441995D01*
X216503Y442092D01*
X216532Y442189D01*
X216565Y442284D01*
X216601Y442378D01*
X216641Y442470D01*
X216684Y442561D01*
X216731Y442650D01*
X216781Y442737D01*
X216835Y442823D01*
X216892Y442906D01*
X216952Y442986D01*
X217015Y443065D01*
X217082Y443141D01*
X217151Y443214D01*
X217223Y443284D01*
X217297Y443352D01*
X217374Y443417D01*
X217454Y443478D01*
X217536Y443537D01*
X217620Y443592D01*
X217706Y443644D01*
X217794Y443693D01*
X217884Y443738D01*
X217976Y443780D01*
X218069Y443818D01*
X218164Y443852D01*
X218259Y443883D01*
X218356Y443910D01*
X218454Y443933D01*
X218553Y443953D01*
X218653Y443968D01*
X218753Y443980D01*
X218853Y443988D01*
X218954Y443992D01*
X219054Y443992D01*
X219155Y443988D01*
X219255Y443980D01*
X219355Y443968D01*
X219455Y443953D01*
X219554Y443933D01*
X219652Y443910D01*
X219749Y443883D01*
X219844Y443852D01*
X219939Y443818D01*
X220032Y443780D01*
X220124Y443738D01*
X220214Y443693D01*
X220302Y443644D01*
X220388Y443592D01*
X220472Y443537D01*
X220554Y443478D01*
X220634Y443417D01*
X220711Y443352D01*
X220785Y443284D01*
X220857Y443214D01*
X220926Y443141D01*
X220993Y443065D01*
X221056Y442986D01*
X221116Y442906D01*
X221173Y442823D01*
X221227Y442737D01*
X221277Y442650D01*
X221324Y442561D01*
X221367Y442470D01*
X221407Y442378D01*
X221443Y442284D01*
X221476Y442189D01*
X221505Y442092D01*
X221530Y441995D01*
X221551Y441896D01*
X221569Y441797D01*
X221582Y441697D01*
X221592Y441597D01*
X221598Y441497D01*
X221600Y441396D01*
X221601Y441396D02*
X221601Y438799D01*
D11*
X255780Y449830D02*
X255780Y413770D01*
X303020Y413770D02*
X303020Y449830D01*
D12*
X293878Y441706D02*
X293880Y441825D01*
X293886Y441944D01*
X293896Y442062D01*
X293910Y442180D01*
X293928Y442297D01*
X293949Y442414D01*
X293975Y442530D01*
X294004Y442645D01*
X294038Y442760D01*
X294075Y442872D01*
X294116Y442984D01*
X294160Y443094D01*
X294208Y443203D01*
X294260Y443310D01*
X294316Y443415D01*
X294374Y443518D01*
X294437Y443619D01*
X294502Y443719D01*
X294571Y443815D01*
X294643Y443910D01*
X294718Y444002D01*
X294797Y444091D01*
X294878Y444178D01*
X294962Y444262D01*
X295049Y444343D01*
X295138Y444422D01*
X295230Y444497D01*
X295325Y444569D01*
X295421Y444638D01*
X295521Y444703D01*
X295622Y444766D01*
X295725Y444824D01*
X295830Y444880D01*
X295937Y444932D01*
X296046Y444980D01*
X296156Y445024D01*
X296268Y445065D01*
X296380Y445102D01*
X296495Y445136D01*
X296610Y445165D01*
X296726Y445191D01*
X296843Y445212D01*
X296960Y445230D01*
X297078Y445244D01*
X297196Y445254D01*
X297315Y445260D01*
X297434Y445262D01*
X297553Y445260D01*
X297672Y445254D01*
X297790Y445244D01*
X297908Y445230D01*
X298025Y445212D01*
X298142Y445191D01*
X298258Y445165D01*
X298373Y445136D01*
X298488Y445102D01*
X298600Y445065D01*
X298712Y445024D01*
X298822Y444980D01*
X298931Y444932D01*
X299038Y444880D01*
X299143Y444824D01*
X299246Y444766D01*
X299347Y444703D01*
X299447Y444638D01*
X299543Y444569D01*
X299638Y444497D01*
X299730Y444422D01*
X299819Y444343D01*
X299906Y444262D01*
X299990Y444178D01*
X300071Y444091D01*
X300150Y444002D01*
X300225Y443910D01*
X300297Y443815D01*
X300366Y443719D01*
X300431Y443619D01*
X300494Y443518D01*
X300552Y443415D01*
X300608Y443310D01*
X300660Y443203D01*
X300708Y443094D01*
X300752Y442984D01*
X300793Y442872D01*
X300830Y442760D01*
X300864Y442645D01*
X300893Y442530D01*
X300919Y442414D01*
X300940Y442297D01*
X300958Y442180D01*
X300972Y442062D01*
X300982Y441944D01*
X300988Y441825D01*
X300990Y441706D01*
X300988Y441587D01*
X300982Y441468D01*
X300972Y441350D01*
X300958Y441232D01*
X300940Y441115D01*
X300919Y440998D01*
X300893Y440882D01*
X300864Y440767D01*
X300830Y440652D01*
X300793Y440540D01*
X300752Y440428D01*
X300708Y440318D01*
X300660Y440209D01*
X300608Y440102D01*
X300552Y439997D01*
X300494Y439894D01*
X300431Y439793D01*
X300366Y439693D01*
X300297Y439597D01*
X300225Y439502D01*
X300150Y439410D01*
X300071Y439321D01*
X299990Y439234D01*
X299906Y439150D01*
X299819Y439069D01*
X299730Y438990D01*
X299638Y438915D01*
X299543Y438843D01*
X299447Y438774D01*
X299347Y438709D01*
X299246Y438646D01*
X299143Y438588D01*
X299038Y438532D01*
X298931Y438480D01*
X298822Y438432D01*
X298712Y438388D01*
X298600Y438347D01*
X298488Y438310D01*
X298373Y438276D01*
X298258Y438247D01*
X298142Y438221D01*
X298025Y438200D01*
X297908Y438182D01*
X297790Y438168D01*
X297672Y438158D01*
X297553Y438152D01*
X297434Y438150D01*
X297315Y438152D01*
X297196Y438158D01*
X297078Y438168D01*
X296960Y438182D01*
X296843Y438200D01*
X296726Y438221D01*
X296610Y438247D01*
X296495Y438276D01*
X296380Y438310D01*
X296268Y438347D01*
X296156Y438388D01*
X296046Y438432D01*
X295937Y438480D01*
X295830Y438532D01*
X295725Y438588D01*
X295622Y438646D01*
X295521Y438709D01*
X295421Y438774D01*
X295325Y438843D01*
X295230Y438915D01*
X295138Y438990D01*
X295049Y439069D01*
X294962Y439150D01*
X294878Y439234D01*
X294797Y439321D01*
X294718Y439410D01*
X294643Y439502D01*
X294571Y439597D01*
X294502Y439693D01*
X294437Y439793D01*
X294374Y439894D01*
X294316Y439997D01*
X294260Y440102D01*
X294208Y440209D01*
X294160Y440318D01*
X294116Y440428D01*
X294075Y440540D01*
X294038Y440652D01*
X294004Y440767D01*
X293975Y440882D01*
X293949Y440998D01*
X293928Y441115D01*
X293910Y441232D01*
X293896Y441350D01*
X293886Y441468D01*
X293880Y441587D01*
X293878Y441706D01*
D13*
X307340Y429641D02*
X318770Y429641D01*
X318770Y428371D02*
X318770Y430911D01*
X307340Y430911D02*
X307340Y428371D01*
X318770Y438113D02*
X318770Y440653D01*
X318770Y438113D02*
X318768Y438013D01*
X318762Y437914D01*
X318752Y437814D01*
X318739Y437716D01*
X318721Y437617D01*
X318700Y437520D01*
X318675Y437424D01*
X318646Y437328D01*
X318613Y437234D01*
X318577Y437141D01*
X318537Y437050D01*
X318493Y436960D01*
X318446Y436872D01*
X318396Y436786D01*
X318342Y436702D01*
X318285Y436620D01*
X318225Y436541D01*
X318161Y436463D01*
X318095Y436389D01*
X318026Y436317D01*
X317954Y436248D01*
X317880Y436182D01*
X317802Y436118D01*
X317723Y436058D01*
X317641Y436001D01*
X317557Y435947D01*
X317471Y435897D01*
X317383Y435850D01*
X317293Y435806D01*
X317202Y435766D01*
X317109Y435730D01*
X317015Y435697D01*
X316919Y435668D01*
X316823Y435643D01*
X316726Y435622D01*
X316627Y435604D01*
X316529Y435591D01*
X316429Y435581D01*
X316330Y435575D01*
X316230Y435573D01*
X309880Y435573D01*
X309780Y435575D01*
X309681Y435581D01*
X309581Y435591D01*
X309483Y435604D01*
X309384Y435622D01*
X309287Y435643D01*
X309191Y435668D01*
X309095Y435697D01*
X309001Y435730D01*
X308908Y435766D01*
X308817Y435806D01*
X308727Y435850D01*
X308639Y435897D01*
X308553Y435947D01*
X308469Y436001D01*
X308387Y436058D01*
X308308Y436118D01*
X308230Y436182D01*
X308156Y436248D01*
X308084Y436317D01*
X308015Y436389D01*
X307949Y436463D01*
X307885Y436541D01*
X307825Y436620D01*
X307768Y436702D01*
X307714Y436786D01*
X307664Y436872D01*
X307617Y436960D01*
X307573Y437050D01*
X307533Y437141D01*
X307497Y437234D01*
X307464Y437328D01*
X307435Y437424D01*
X307410Y437520D01*
X307389Y437617D01*
X307371Y437716D01*
X307358Y437814D01*
X307348Y437914D01*
X307342Y438013D01*
X307340Y438113D01*
X307340Y440653D01*
X309880Y445135D02*
X307340Y448310D01*
X318770Y448310D01*
X318770Y445135D02*
X318770Y451485D01*
X88900Y151200D02*
X88900Y1200D01*
D14*
X298900Y1200D01*
X298900Y49200D01*
X298900Y129200D01*
X298900Y151200D01*
X88900Y151200D01*
X89850Y89200D02*
X328900Y89200D01*
X328900Y119200D01*
X328900Y89200D02*
X328900Y59200D01*
X328900Y119200D02*
X298900Y129200D01*
X328900Y59200D02*
X298900Y49200D01*
D13*
X167344Y72827D02*
X167344Y76581D01*
X167343Y72827D02*
X167341Y72762D01*
X167335Y72698D01*
X167325Y72634D01*
X167312Y72570D01*
X167294Y72508D01*
X167273Y72447D01*
X167249Y72387D01*
X167220Y72329D01*
X167188Y72272D01*
X167153Y72218D01*
X167115Y72166D01*
X167073Y72116D01*
X167029Y72069D01*
X166982Y72025D01*
X166932Y71983D01*
X166880Y71945D01*
X166826Y71910D01*
X166769Y71878D01*
X166711Y71849D01*
X166651Y71825D01*
X166590Y71804D01*
X166528Y71786D01*
X166464Y71773D01*
X166400Y71763D01*
X166336Y71757D01*
X166271Y71755D01*
X165735Y71755D01*
X171766Y76581D02*
X171834Y76579D01*
X171901Y76573D01*
X171968Y76564D01*
X172035Y76551D01*
X172100Y76534D01*
X172165Y76513D01*
X172228Y76489D01*
X172290Y76461D01*
X172350Y76430D01*
X172408Y76396D01*
X172464Y76358D01*
X172519Y76318D01*
X172570Y76274D01*
X172619Y76227D01*
X172666Y76178D01*
X172710Y76127D01*
X172750Y76072D01*
X172788Y76016D01*
X172822Y75958D01*
X172853Y75898D01*
X172881Y75836D01*
X172905Y75773D01*
X172926Y75708D01*
X172943Y75643D01*
X172956Y75576D01*
X172965Y75509D01*
X172971Y75442D01*
X172973Y75374D01*
X171766Y76581D02*
X171688Y76579D01*
X171610Y76573D01*
X171533Y76563D01*
X171456Y76550D01*
X171380Y76532D01*
X171305Y76511D01*
X171231Y76486D01*
X171159Y76457D01*
X171088Y76425D01*
X171019Y76389D01*
X170951Y76350D01*
X170886Y76307D01*
X170823Y76261D01*
X170762Y76212D01*
X170704Y76160D01*
X170649Y76105D01*
X170596Y76048D01*
X170547Y75988D01*
X170500Y75925D01*
X170457Y75861D01*
X170417Y75794D01*
X170380Y75725D01*
X170347Y75654D01*
X170317Y75582D01*
X170291Y75509D01*
X172571Y74436D02*
X172620Y74485D01*
X172667Y74537D01*
X172710Y74592D01*
X172751Y74649D01*
X172789Y74708D01*
X172823Y74769D01*
X172854Y74832D01*
X172882Y74896D01*
X172906Y74962D01*
X172926Y75028D01*
X172943Y75096D01*
X172956Y75165D01*
X172965Y75234D01*
X172971Y75304D01*
X172973Y75374D01*
X172571Y74436D02*
X170292Y71755D01*
X172973Y71755D01*
X368300Y521900D02*
X368300Y671900D01*
D14*
X158300Y671900D01*
X158300Y623900D01*
X158300Y543900D01*
X158300Y521900D01*
X368300Y521900D01*
X367350Y583900D02*
X128300Y583900D01*
X128300Y553900D01*
X128300Y583900D02*
X128300Y613900D01*
X128300Y553900D02*
X158300Y543900D01*
X128300Y613900D02*
X158300Y623900D01*
D13*
X285836Y601345D02*
X285836Y597591D01*
X285834Y597526D01*
X285828Y597462D01*
X285818Y597398D01*
X285805Y597334D01*
X285787Y597272D01*
X285766Y597211D01*
X285742Y597151D01*
X285713Y597093D01*
X285681Y597036D01*
X285646Y596982D01*
X285608Y596930D01*
X285566Y596880D01*
X285522Y596833D01*
X285475Y596789D01*
X285425Y596747D01*
X285373Y596709D01*
X285319Y596674D01*
X285262Y596642D01*
X285204Y596613D01*
X285144Y596589D01*
X285083Y596568D01*
X285021Y596550D01*
X284957Y596537D01*
X284893Y596527D01*
X284829Y596521D01*
X284764Y596519D01*
X284227Y596519D01*
X288784Y596519D02*
X290124Y596519D01*
X290195Y596521D01*
X290267Y596527D01*
X290337Y596536D01*
X290407Y596549D01*
X290477Y596566D01*
X290545Y596587D01*
X290612Y596611D01*
X290678Y596639D01*
X290742Y596670D01*
X290805Y596705D01*
X290865Y596743D01*
X290924Y596784D01*
X290980Y596828D01*
X291034Y596875D01*
X291085Y596924D01*
X291133Y596977D01*
X291179Y597032D01*
X291221Y597089D01*
X291261Y597149D01*
X291297Y597210D01*
X291330Y597274D01*
X291359Y597339D01*
X291385Y597405D01*
X291408Y597473D01*
X291427Y597542D01*
X291442Y597612D01*
X291453Y597682D01*
X291461Y597753D01*
X291465Y597824D01*
X291465Y597896D01*
X291461Y597967D01*
X291453Y598038D01*
X291442Y598108D01*
X291427Y598178D01*
X291408Y598247D01*
X291385Y598315D01*
X291359Y598381D01*
X291330Y598446D01*
X291297Y598510D01*
X291261Y598571D01*
X291221Y598631D01*
X291179Y598688D01*
X291133Y598743D01*
X291085Y598796D01*
X291034Y598845D01*
X290980Y598892D01*
X290924Y598936D01*
X290865Y598977D01*
X290805Y599015D01*
X290742Y599050D01*
X290678Y599081D01*
X290612Y599109D01*
X290545Y599133D01*
X290477Y599154D01*
X290407Y599171D01*
X290337Y599184D01*
X290267Y599193D01*
X290195Y599199D01*
X290124Y599201D01*
X290393Y601345D02*
X288784Y601345D01*
X290393Y601345D02*
X290458Y601343D01*
X290522Y601337D01*
X290586Y601327D01*
X290650Y601314D01*
X290712Y601296D01*
X290773Y601275D01*
X290833Y601251D01*
X290891Y601222D01*
X290948Y601190D01*
X291002Y601155D01*
X291054Y601117D01*
X291104Y601075D01*
X291151Y601031D01*
X291195Y600984D01*
X291237Y600934D01*
X291275Y600882D01*
X291310Y600828D01*
X291342Y600771D01*
X291371Y600713D01*
X291395Y600653D01*
X291416Y600592D01*
X291434Y600530D01*
X291447Y600466D01*
X291457Y600402D01*
X291463Y600338D01*
X291465Y600273D01*
X291463Y600208D01*
X291457Y600144D01*
X291447Y600080D01*
X291434Y600016D01*
X291416Y599954D01*
X291395Y599893D01*
X291371Y599833D01*
X291342Y599775D01*
X291310Y599718D01*
X291275Y599664D01*
X291237Y599612D01*
X291195Y599562D01*
X291151Y599515D01*
X291104Y599471D01*
X291054Y599429D01*
X291002Y599391D01*
X290948Y599356D01*
X290891Y599324D01*
X290833Y599295D01*
X290773Y599271D01*
X290712Y599250D01*
X290650Y599232D01*
X290586Y599219D01*
X290522Y599209D01*
X290458Y599203D01*
X290393Y599201D01*
X290393Y599200D02*
X289320Y599200D01*
D14*
X136100Y489500D02*
X136100Y399500D01*
X3100Y469500D02*
X3100Y489500D01*
X3100Y469500D02*
X3100Y419500D01*
X3100Y399500D01*
X3100Y469500D02*
X38100Y469500D01*
X38678Y469467D01*
X39255Y469420D01*
X39831Y469360D01*
X40405Y469285D01*
X40977Y469197D01*
X41546Y469094D01*
X42114Y468978D01*
X42678Y468849D01*
X43239Y468705D01*
X43796Y468549D01*
X44349Y468378D01*
X44898Y468195D01*
X45442Y467998D01*
X45982Y467788D01*
X46516Y467566D01*
X47045Y467330D01*
X47568Y467082D01*
X48085Y466821D01*
X48595Y466547D01*
X49098Y466262D01*
X49595Y465964D01*
X50084Y465655D01*
X50565Y465333D01*
X51039Y465000D01*
X51504Y464656D01*
X51961Y464301D01*
X52410Y463935D01*
X52849Y463558D01*
X53279Y463170D01*
X53699Y462772D01*
X54110Y462365D01*
X54511Y461947D01*
X54902Y461520D01*
X55282Y461083D01*
X55651Y460638D01*
X56010Y460183D01*
X56358Y459720D01*
X56694Y459249D01*
X57019Y458770D01*
X57332Y458283D01*
X57633Y457789D01*
X57922Y457288D01*
X58199Y456779D01*
X58464Y456264D01*
X58716Y455743D01*
X58956Y455216D01*
X59182Y454684D01*
X59396Y454146D01*
X59597Y453603D01*
X59784Y453055D01*
X59959Y452503D01*
X60120Y451947D01*
X60267Y451387D01*
X60401Y450824D01*
X60521Y450258D01*
X60627Y449689D01*
X60720Y449118D01*
X60799Y448544D01*
X60864Y447969D01*
X60915Y447392D01*
X60952Y446815D01*
X60975Y446236D01*
X60984Y445657D01*
X60979Y445079D01*
X60960Y444500D01*
X60979Y443921D01*
X60984Y443343D01*
X60975Y442764D01*
X60952Y442185D01*
X60915Y441608D01*
X60864Y441031D01*
X60799Y440456D01*
X60720Y439882D01*
X60627Y439311D01*
X60521Y438742D01*
X60401Y438176D01*
X60267Y437613D01*
X60120Y437053D01*
X59959Y436497D01*
X59784Y435945D01*
X59597Y435397D01*
X59396Y434854D01*
X59182Y434316D01*
X58956Y433784D01*
X58716Y433257D01*
X58464Y432736D01*
X58199Y432221D01*
X57922Y431712D01*
X57633Y431211D01*
X57332Y430717D01*
X57019Y430230D01*
X56694Y429751D01*
X56358Y429280D01*
X56010Y428817D01*
X55651Y428362D01*
X55282Y427917D01*
X54902Y427480D01*
X54511Y427053D01*
X54110Y426635D01*
X53699Y426228D01*
X53279Y425830D01*
X52849Y425442D01*
X52410Y425065D01*
X51961Y424699D01*
X51504Y424344D01*
X51039Y424000D01*
X50565Y423667D01*
X50084Y423345D01*
X49595Y423036D01*
X49098Y422738D01*
X48595Y422453D01*
X48085Y422179D01*
X47568Y421918D01*
X47045Y421670D01*
X46516Y421434D01*
X45982Y421212D01*
X45442Y421002D01*
X44898Y420805D01*
X44349Y420622D01*
X43796Y420451D01*
X43239Y420295D01*
X42678Y420151D01*
X42114Y420022D01*
X41546Y419906D01*
X40977Y419803D01*
X40405Y419715D01*
X39831Y419640D01*
X39255Y419580D01*
X38678Y419533D01*
X38100Y419500D01*
X3100Y419500D01*
X3100Y489500D02*
X18100Y489500D01*
X58100Y489500D02*
X79100Y489500D01*
X120100Y489500D02*
X136100Y489500D01*
X136100Y399500D02*
X119100Y399500D01*
X79100Y399500D02*
X58100Y399500D01*
X18100Y399500D02*
X3100Y399500D01*
D13*
X81746Y474147D02*
X81746Y477901D01*
X81745Y474147D02*
X81743Y474082D01*
X81737Y474018D01*
X81727Y473954D01*
X81714Y473890D01*
X81696Y473828D01*
X81675Y473767D01*
X81651Y473707D01*
X81622Y473649D01*
X81590Y473592D01*
X81555Y473538D01*
X81517Y473486D01*
X81475Y473436D01*
X81431Y473389D01*
X81384Y473345D01*
X81334Y473303D01*
X81282Y473265D01*
X81228Y473230D01*
X81171Y473198D01*
X81113Y473169D01*
X81053Y473145D01*
X80992Y473124D01*
X80930Y473106D01*
X80866Y473093D01*
X80802Y473083D01*
X80738Y473077D01*
X80673Y473075D01*
X80137Y473075D01*
X84694Y474147D02*
X85766Y477901D01*
X84694Y474147D02*
X87375Y474147D01*
X86570Y473075D02*
X86570Y475220D01*
X194950Y237490D02*
X236850Y237490D01*
X240030Y265359D02*
X239747Y265943D01*
X239449Y266519D01*
X239138Y267088D01*
X238813Y267649D01*
X238474Y268202D01*
X238122Y268747D01*
X237757Y269283D01*
X237379Y269810D01*
X236988Y270327D01*
X236585Y270835D01*
X236169Y271333D01*
X235742Y271821D01*
X235303Y272298D01*
X234852Y272765D01*
X234390Y273220D01*
X233917Y273664D01*
X233434Y274096D01*
X232940Y274517D01*
X232436Y274925D01*
X231922Y275321D01*
X231399Y275704D01*
X230867Y276075D01*
X230325Y276432D01*
X229776Y276776D01*
X229218Y277107D01*
X228652Y277424D01*
X228079Y277727D01*
X227498Y278016D01*
X226911Y278291D01*
X226317Y278552D01*
X225717Y278798D01*
X225111Y279029D01*
X224499Y279246D01*
X223883Y279447D01*
X223262Y279634D01*
X222636Y279805D01*
X222007Y279961D01*
X221374Y280102D01*
X220737Y280228D01*
X220098Y280337D01*
X219457Y280432D01*
X218813Y280510D01*
X218167Y280573D01*
X217520Y280621D01*
X216873Y280652D01*
X216224Y280668D01*
X215576Y280668D01*
X214927Y280652D01*
X214280Y280621D01*
X213633Y280573D01*
X212987Y280510D01*
X212343Y280432D01*
X211702Y280337D01*
X211063Y280228D01*
X210426Y280102D01*
X209793Y279961D01*
X209164Y279805D01*
X208538Y279634D01*
X207917Y279447D01*
X207301Y279246D01*
X206689Y279029D01*
X206083Y278798D01*
X205483Y278552D01*
X204889Y278291D01*
X204302Y278016D01*
X203721Y277727D01*
X203148Y277424D01*
X202582Y277107D01*
X202024Y276776D01*
X201475Y276432D01*
X200933Y276075D01*
X200401Y275704D01*
X199878Y275321D01*
X199364Y274925D01*
X198860Y274517D01*
X198366Y274096D01*
X197883Y273664D01*
X197410Y273220D01*
X196948Y272765D01*
X196497Y272298D01*
X196058Y271821D01*
X195631Y271333D01*
X195215Y270835D01*
X194812Y270327D01*
X194421Y269810D01*
X194043Y269283D01*
X193678Y268747D01*
X193326Y268202D01*
X192987Y267649D01*
X192662Y267088D01*
X192351Y266519D01*
X192053Y265943D01*
X191770Y265359D01*
X191765Y242641D02*
X192030Y242095D01*
X192307Y241555D01*
X192596Y241022D01*
X192898Y240495D01*
X193211Y239975D01*
X193536Y239462D01*
X193873Y238957D01*
X194221Y238460D01*
X194580Y237971D01*
X194950Y237490D01*
X201860Y252730D02*
X204540Y252730D01*
X227260Y252730D02*
X229940Y252730D01*
X240147Y242882D02*
X239876Y242309D01*
X239591Y241743D01*
X239294Y241184D01*
X238983Y240632D01*
X238658Y240088D01*
X238322Y239552D01*
X237972Y239023D01*
X237610Y238503D01*
X237236Y237992D01*
X236850Y237490D01*
X191135Y288290D02*
X191135Y293370D01*
X191137Y293481D01*
X191143Y293591D01*
X191152Y293702D01*
X191166Y293812D01*
X191183Y293921D01*
X191204Y294030D01*
X191229Y294138D01*
X191258Y294245D01*
X191290Y294351D01*
X191326Y294456D01*
X191366Y294559D01*
X191409Y294661D01*
X191456Y294762D01*
X191507Y294861D01*
X191560Y294958D01*
X191617Y295052D01*
X191678Y295145D01*
X191741Y295236D01*
X191808Y295325D01*
X191878Y295411D01*
X191951Y295494D01*
X192026Y295576D01*
X192104Y295654D01*
X192186Y295729D01*
X192269Y295802D01*
X192355Y295872D01*
X192444Y295939D01*
X192535Y296002D01*
X192628Y296063D01*
X192723Y296120D01*
X192819Y296173D01*
X192918Y296224D01*
X193019Y296271D01*
X193121Y296314D01*
X193224Y296354D01*
X193329Y296390D01*
X193435Y296422D01*
X193542Y296451D01*
X193650Y296476D01*
X193759Y296497D01*
X193868Y296514D01*
X193978Y296528D01*
X194089Y296537D01*
X194199Y296543D01*
X194310Y296545D01*
X194421Y296543D01*
X194531Y296537D01*
X194642Y296528D01*
X194752Y296514D01*
X194861Y296497D01*
X194970Y296476D01*
X195078Y296451D01*
X195185Y296422D01*
X195291Y296390D01*
X195396Y296354D01*
X195499Y296314D01*
X195601Y296271D01*
X195702Y296224D01*
X195801Y296173D01*
X195898Y296120D01*
X195992Y296063D01*
X196085Y296002D01*
X196176Y295939D01*
X196265Y295872D01*
X196351Y295802D01*
X196434Y295729D01*
X196516Y295654D01*
X196594Y295576D01*
X196669Y295494D01*
X196742Y295411D01*
X196812Y295325D01*
X196879Y295236D01*
X196942Y295145D01*
X197003Y295052D01*
X197060Y294958D01*
X197113Y294861D01*
X197164Y294762D01*
X197211Y294661D01*
X197254Y294559D01*
X197294Y294456D01*
X197330Y294351D01*
X197362Y294245D01*
X197391Y294138D01*
X197416Y294030D01*
X197437Y293921D01*
X197454Y293812D01*
X197468Y293702D01*
X197477Y293591D01*
X197483Y293481D01*
X197485Y293370D01*
X197485Y288290D01*
X197483Y288179D01*
X197477Y288069D01*
X197468Y287958D01*
X197454Y287848D01*
X197437Y287739D01*
X197416Y287630D01*
X197391Y287522D01*
X197362Y287415D01*
X197330Y287309D01*
X197294Y287204D01*
X197254Y287101D01*
X197211Y286999D01*
X197164Y286898D01*
X197113Y286799D01*
X197060Y286702D01*
X197003Y286608D01*
X196942Y286515D01*
X196879Y286424D01*
X196812Y286335D01*
X196742Y286249D01*
X196669Y286166D01*
X196594Y286084D01*
X196516Y286006D01*
X196434Y285931D01*
X196351Y285858D01*
X196265Y285788D01*
X196176Y285721D01*
X196085Y285658D01*
X195992Y285597D01*
X195897Y285540D01*
X195801Y285487D01*
X195702Y285436D01*
X195601Y285389D01*
X195499Y285346D01*
X195396Y285306D01*
X195291Y285270D01*
X195185Y285238D01*
X195078Y285209D01*
X194970Y285184D01*
X194861Y285163D01*
X194752Y285146D01*
X194642Y285132D01*
X194531Y285123D01*
X194421Y285117D01*
X194310Y285115D01*
X194199Y285117D01*
X194089Y285123D01*
X193978Y285132D01*
X193868Y285146D01*
X193759Y285163D01*
X193650Y285184D01*
X193542Y285209D01*
X193435Y285238D01*
X193329Y285270D01*
X193224Y285306D01*
X193121Y285346D01*
X193019Y285389D01*
X192918Y285436D01*
X192819Y285487D01*
X192723Y285540D01*
X192628Y285597D01*
X192535Y285658D01*
X192444Y285721D01*
X192355Y285788D01*
X192269Y285858D01*
X192186Y285931D01*
X192104Y286006D01*
X192026Y286084D01*
X191951Y286166D01*
X191878Y286249D01*
X191808Y286335D01*
X191741Y286424D01*
X191678Y286515D01*
X191617Y286608D01*
X191560Y286703D01*
X191507Y286799D01*
X191456Y286898D01*
X191409Y286999D01*
X191366Y287101D01*
X191326Y287204D01*
X191290Y287309D01*
X191258Y287415D01*
X191229Y287522D01*
X191204Y287630D01*
X191183Y287739D01*
X191166Y287848D01*
X191152Y287958D01*
X191143Y288069D01*
X191137Y288179D01*
X191135Y288290D01*
X196215Y287655D02*
X198755Y285115D01*
X202196Y294005D02*
X205371Y296545D01*
X205371Y285115D01*
X202196Y285115D02*
X208546Y285115D01*
X336550Y213360D02*
X335471Y214150D01*
X334413Y214967D01*
X333374Y215809D01*
X332357Y216677D01*
X331360Y217569D01*
X330387Y218485D01*
X329435Y219425D01*
X328507Y220387D01*
X327603Y221373D01*
X326724Y222380D01*
X325869Y223408D01*
X325040Y224457D01*
X324236Y225526D01*
X323459Y226614D01*
X322709Y227721D01*
X321986Y228846D01*
X321291Y229988D01*
X320624Y231147D01*
X319986Y232322D01*
X319377Y233512D01*
X318796Y234717D01*
X318246Y235935D01*
X317726Y237167D01*
X317236Y238411D01*
X316776Y239667D01*
X316347Y240933D01*
X315950Y242210D01*
X315584Y243496D01*
X315249Y244791D01*
X314946Y246093D01*
X314676Y247403D01*
X314437Y248718D01*
X314231Y250039D01*
X314057Y251365D01*
X313915Y252695D01*
X313806Y254027D01*
X313730Y255362D01*
X313686Y256699D01*
X313675Y258036D01*
X313697Y259373D01*
X313752Y260709D01*
X313839Y262043D01*
X313959Y263375D01*
X314112Y264703D01*
X314297Y266028D01*
X314514Y267347D01*
X314764Y268661D01*
X315045Y269968D01*
X315359Y271268D01*
X315704Y272559D01*
X316081Y273842D01*
X316489Y275116D01*
X316928Y276379D01*
X317398Y277631D01*
X317898Y278871D01*
X318429Y280098D01*
X318989Y281312D01*
X319579Y282512D01*
X320198Y283697D01*
X320847Y284867D01*
X321523Y286020D01*
X322227Y287156D01*
X322960Y288275D01*
X323719Y289376D01*
X324505Y290458D01*
X325317Y291520D01*
X326155Y292562D01*
X327018Y293583D01*
X327906Y294583D01*
X328818Y295560D01*
X329754Y296516D01*
X330713Y297447D01*
X331695Y298356D01*
X332698Y299239D01*
X333723Y300098D01*
X334768Y300932D01*
X335834Y301740D01*
X336919Y302521D01*
X338022Y303276D01*
X339144Y304004D01*
X340284Y304703D01*
X341440Y305375D01*
X342612Y306018D01*
X343800Y306633D01*
X345002Y307218D01*
X346219Y307773D01*
X347448Y308299D01*
X348690Y308794D01*
X349944Y309258D01*
X351209Y309692D01*
X352484Y310095D01*
X353768Y310467D01*
X355061Y310807D01*
X356363Y311115D01*
X357671Y311391D01*
X358986Y311635D01*
X360306Y311847D01*
X361631Y312026D01*
X362960Y312173D01*
X364292Y312288D01*
X365627Y312370D01*
X366963Y312419D01*
X368300Y312435D01*
X369637Y312419D01*
X370973Y312370D01*
X372308Y312288D01*
X373640Y312173D01*
X374969Y312026D01*
X376294Y311847D01*
X377614Y311635D01*
X378929Y311391D01*
X380237Y311115D01*
X381539Y310807D01*
X382832Y310467D01*
X384116Y310095D01*
X385391Y309692D01*
X386656Y309258D01*
X387910Y308794D01*
X389152Y308299D01*
X390381Y307773D01*
X391598Y307218D01*
X392800Y306633D01*
X393988Y306018D01*
X395160Y305375D01*
X396316Y304703D01*
X397456Y304004D01*
X398578Y303276D01*
X399681Y302521D01*
X400766Y301740D01*
X401832Y300932D01*
X402877Y300098D01*
X403902Y299239D01*
X404905Y298356D01*
X405887Y297447D01*
X406846Y296516D01*
X407782Y295560D01*
X408694Y294583D01*
X409582Y293583D01*
X410445Y292562D01*
X411283Y291520D01*
X412095Y290458D01*
X412881Y289376D01*
X413640Y288275D01*
X414373Y287156D01*
X415077Y286020D01*
X415753Y284867D01*
X416402Y283697D01*
X417021Y282512D01*
X417611Y281312D01*
X418171Y280098D01*
X418702Y278871D01*
X419202Y277631D01*
X419672Y276379D01*
X420111Y275116D01*
X420519Y273842D01*
X420896Y272559D01*
X421241Y271268D01*
X421555Y269968D01*
X421836Y268661D01*
X422086Y267347D01*
X422303Y266028D01*
X422488Y264703D01*
X422641Y263375D01*
X422761Y262043D01*
X422848Y260709D01*
X422903Y259373D01*
X422925Y258036D01*
X422914Y256699D01*
X422870Y255362D01*
X422794Y254027D01*
X422685Y252695D01*
X422543Y251365D01*
X422369Y250039D01*
X422163Y248718D01*
X421924Y247403D01*
X421654Y246093D01*
X421351Y244791D01*
X421016Y243496D01*
X420650Y242210D01*
X420253Y240933D01*
X419824Y239667D01*
X419364Y238411D01*
X418874Y237167D01*
X418354Y235935D01*
X417804Y234717D01*
X417223Y233512D01*
X416614Y232322D01*
X415976Y231147D01*
X415309Y229988D01*
X414614Y228846D01*
X413891Y227721D01*
X413141Y226614D01*
X412364Y225526D01*
X411560Y224457D01*
X410731Y223408D01*
X409876Y222380D01*
X408997Y221373D01*
X408093Y220387D01*
X407165Y219425D01*
X406213Y218485D01*
X405240Y217569D01*
X404243Y216677D01*
X403226Y215809D01*
X402187Y214967D01*
X401129Y214150D01*
X400050Y213360D01*
X349250Y228600D02*
X340360Y222250D01*
X349250Y228600D02*
X361950Y222250D01*
X361950Y209550D01*
X355600Y209550D01*
X355600Y196850D01*
X381000Y196850D02*
X381000Y209550D01*
X374650Y209550D01*
X374650Y222250D01*
X387350Y228600D01*
X396240Y222250D01*
X367030Y257810D02*
X377190Y267970D01*
X367030Y257810D02*
X363220Y261620D01*
X363220Y254000D01*
X354330Y245110D01*
X372110Y252730D02*
X382270Y262890D01*
X372110Y252730D02*
X375920Y248920D01*
X368300Y248920D01*
X359410Y240030D01*
X350266Y254000D02*
X350271Y254443D01*
X350288Y254885D01*
X350315Y255327D01*
X350353Y255768D01*
X350402Y256208D01*
X350461Y256646D01*
X350532Y257083D01*
X350613Y257518D01*
X350704Y257951D01*
X350806Y258382D01*
X350919Y258810D01*
X351043Y259235D01*
X351176Y259657D01*
X351320Y260075D01*
X351474Y260490D01*
X351639Y260901D01*
X351813Y261308D01*
X351997Y261711D01*
X352192Y262108D01*
X352395Y262501D01*
X352609Y262889D01*
X352832Y263271D01*
X353064Y263648D01*
X353305Y264019D01*
X353556Y264384D01*
X353815Y264743D01*
X354083Y265095D01*
X354360Y265441D01*
X354644Y265779D01*
X354938Y266111D01*
X355239Y266435D01*
X355548Y266752D01*
X355865Y267061D01*
X356189Y267362D01*
X356521Y267656D01*
X356859Y267940D01*
X357205Y268217D01*
X357557Y268485D01*
X357916Y268744D01*
X358281Y268995D01*
X358652Y269236D01*
X359029Y269468D01*
X359411Y269691D01*
X359799Y269905D01*
X360192Y270108D01*
X360589Y270303D01*
X360992Y270487D01*
X361399Y270661D01*
X361810Y270826D01*
X362225Y270980D01*
X362643Y271124D01*
X363065Y271257D01*
X363490Y271381D01*
X363918Y271494D01*
X364349Y271596D01*
X364782Y271687D01*
X365217Y271768D01*
X365654Y271839D01*
X366092Y271898D01*
X366532Y271947D01*
X366973Y271985D01*
X367415Y272012D01*
X367857Y272029D01*
X368300Y272034D01*
X368743Y272029D01*
X369185Y272012D01*
X369627Y271985D01*
X370068Y271947D01*
X370508Y271898D01*
X370946Y271839D01*
X371383Y271768D01*
X371818Y271687D01*
X372251Y271596D01*
X372682Y271494D01*
X373110Y271381D01*
X373535Y271257D01*
X373957Y271124D01*
X374375Y270980D01*
X374790Y270826D01*
X375201Y270661D01*
X375608Y270487D01*
X376011Y270303D01*
X376408Y270108D01*
X376801Y269905D01*
X377189Y269691D01*
X377571Y269468D01*
X377948Y269236D01*
X378319Y268995D01*
X378684Y268744D01*
X379043Y268485D01*
X379395Y268217D01*
X379741Y267940D01*
X380079Y267656D01*
X380411Y267362D01*
X380735Y267061D01*
X381052Y266752D01*
X381361Y266435D01*
X381662Y266111D01*
X381956Y265779D01*
X382240Y265441D01*
X382517Y265095D01*
X382785Y264743D01*
X383044Y264384D01*
X383295Y264019D01*
X383536Y263648D01*
X383768Y263271D01*
X383991Y262889D01*
X384205Y262501D01*
X384408Y262108D01*
X384603Y261711D01*
X384787Y261308D01*
X384961Y260901D01*
X385126Y260490D01*
X385280Y260075D01*
X385424Y259657D01*
X385557Y259235D01*
X385681Y258810D01*
X385794Y258382D01*
X385896Y257951D01*
X385987Y257518D01*
X386068Y257083D01*
X386139Y256646D01*
X386198Y256208D01*
X386247Y255768D01*
X386285Y255327D01*
X386312Y254885D01*
X386329Y254443D01*
X386334Y254000D01*
X386329Y253557D01*
X386312Y253115D01*
X386285Y252673D01*
X386247Y252232D01*
X386198Y251792D01*
X386139Y251354D01*
X386068Y250917D01*
X385987Y250482D01*
X385896Y250049D01*
X385794Y249618D01*
X385681Y249190D01*
X385557Y248765D01*
X385424Y248343D01*
X385280Y247925D01*
X385126Y247510D01*
X384961Y247099D01*
X384787Y246692D01*
X384603Y246289D01*
X384408Y245892D01*
X384205Y245499D01*
X383991Y245111D01*
X383768Y244729D01*
X383536Y244352D01*
X383295Y243981D01*
X383044Y243616D01*
X382785Y243257D01*
X382517Y242905D01*
X382240Y242559D01*
X381956Y242221D01*
X381662Y241889D01*
X381361Y241565D01*
X381052Y241248D01*
X380735Y240939D01*
X380411Y240638D01*
X380079Y240344D01*
X379741Y240060D01*
X379395Y239783D01*
X379043Y239515D01*
X378684Y239256D01*
X378319Y239005D01*
X377948Y238764D01*
X377571Y238532D01*
X377189Y238309D01*
X376801Y238095D01*
X376408Y237892D01*
X376011Y237697D01*
X375608Y237513D01*
X375201Y237339D01*
X374790Y237174D01*
X374375Y237020D01*
X373957Y236876D01*
X373535Y236743D01*
X373110Y236619D01*
X372682Y236506D01*
X372251Y236404D01*
X371818Y236313D01*
X371383Y236232D01*
X370946Y236161D01*
X370508Y236102D01*
X370068Y236053D01*
X369627Y236015D01*
X369185Y235988D01*
X368743Y235971D01*
X368300Y235966D01*
X367857Y235971D01*
X367415Y235988D01*
X366973Y236015D01*
X366532Y236053D01*
X366092Y236102D01*
X365654Y236161D01*
X365217Y236232D01*
X364782Y236313D01*
X364349Y236404D01*
X363918Y236506D01*
X363490Y236619D01*
X363065Y236743D01*
X362643Y236876D01*
X362225Y237020D01*
X361810Y237174D01*
X361399Y237339D01*
X360992Y237513D01*
X360589Y237697D01*
X360192Y237892D01*
X359799Y238095D01*
X359411Y238309D01*
X359029Y238532D01*
X358652Y238764D01*
X358281Y239005D01*
X357916Y239256D01*
X357557Y239515D01*
X357205Y239783D01*
X356859Y240060D01*
X356521Y240344D01*
X356189Y240638D01*
X355865Y240939D01*
X355548Y241248D01*
X355239Y241565D01*
X354938Y241889D01*
X354644Y242221D01*
X354360Y242559D01*
X354083Y242905D01*
X353815Y243257D01*
X353556Y243616D01*
X353305Y243981D01*
X353064Y244352D01*
X352832Y244729D01*
X352609Y245111D01*
X352395Y245499D01*
X352192Y245892D01*
X351997Y246289D01*
X351813Y246692D01*
X351639Y247099D01*
X351474Y247510D01*
X351320Y247925D01*
X351176Y248343D01*
X351043Y248765D01*
X350919Y249190D01*
X350806Y249618D01*
X350704Y250049D01*
X350613Y250482D01*
X350532Y250917D01*
X350461Y251354D01*
X350402Y251792D01*
X350353Y252232D01*
X350315Y252673D01*
X350288Y253115D01*
X350271Y253557D01*
X350266Y254000D01*
D12*
X340360Y254000D02*
X340368Y254686D01*
X340394Y255371D01*
X340436Y256055D01*
X340495Y256739D01*
X340570Y257420D01*
X340662Y258100D01*
X340771Y258777D01*
X340897Y259451D01*
X341039Y260122D01*
X341197Y260789D01*
X341372Y261452D01*
X341563Y262111D01*
X341770Y262764D01*
X341993Y263413D01*
X342232Y264055D01*
X342487Y264692D01*
X342757Y265322D01*
X343043Y265946D01*
X343343Y266562D01*
X343659Y267171D01*
X343990Y267772D01*
X344335Y268364D01*
X344695Y268948D01*
X345069Y269523D01*
X345457Y270088D01*
X345858Y270644D01*
X346274Y271190D01*
X346702Y271725D01*
X347144Y272250D01*
X347598Y272763D01*
X348065Y273266D01*
X348543Y273757D01*
X349034Y274235D01*
X349537Y274702D01*
X350050Y275156D01*
X350575Y275598D01*
X351110Y276026D01*
X351656Y276442D01*
X352212Y276843D01*
X352777Y277231D01*
X353352Y277605D01*
X353936Y277965D01*
X354528Y278310D01*
X355129Y278641D01*
X355738Y278957D01*
X356354Y279257D01*
X356978Y279543D01*
X357608Y279813D01*
X358245Y280068D01*
X358887Y280307D01*
X359536Y280530D01*
X360189Y280737D01*
X360848Y280928D01*
X361511Y281103D01*
X362178Y281261D01*
X362849Y281403D01*
X363523Y281529D01*
X364200Y281638D01*
X364880Y281730D01*
X365561Y281805D01*
X366245Y281864D01*
X366929Y281906D01*
X367614Y281932D01*
X368300Y281940D01*
X368986Y281932D01*
X369671Y281906D01*
X370355Y281864D01*
X371039Y281805D01*
X371720Y281730D01*
X372400Y281638D01*
X373077Y281529D01*
X373751Y281403D01*
X374422Y281261D01*
X375089Y281103D01*
X375752Y280928D01*
X376411Y280737D01*
X377064Y280530D01*
X377713Y280307D01*
X378355Y280068D01*
X378992Y279813D01*
X379622Y279543D01*
X380246Y279257D01*
X380862Y278957D01*
X381471Y278641D01*
X382072Y278310D01*
X382664Y277965D01*
X383248Y277605D01*
X383823Y277231D01*
X384388Y276843D01*
X384944Y276442D01*
X385490Y276026D01*
X386025Y275598D01*
X386550Y275156D01*
X387063Y274702D01*
X387566Y274235D01*
X388057Y273757D01*
X388535Y273266D01*
X389002Y272763D01*
X389456Y272250D01*
X389898Y271725D01*
X390326Y271190D01*
X390742Y270644D01*
X391143Y270088D01*
X391531Y269523D01*
X391905Y268948D01*
X392265Y268364D01*
X392610Y267772D01*
X392941Y267171D01*
X393257Y266562D01*
X393557Y265946D01*
X393843Y265322D01*
X394113Y264692D01*
X394368Y264055D01*
X394607Y263413D01*
X394830Y262764D01*
X395037Y262111D01*
X395228Y261452D01*
X395403Y260789D01*
X395561Y260122D01*
X395703Y259451D01*
X395829Y258777D01*
X395938Y258100D01*
X396030Y257420D01*
X396105Y256739D01*
X396164Y256055D01*
X396206Y255371D01*
X396232Y254686D01*
X396240Y254000D01*
X396232Y253314D01*
X396206Y252629D01*
X396164Y251945D01*
X396105Y251261D01*
X396030Y250580D01*
X395938Y249900D01*
X395829Y249223D01*
X395703Y248549D01*
X395561Y247878D01*
X395403Y247211D01*
X395228Y246548D01*
X395037Y245889D01*
X394830Y245236D01*
X394607Y244587D01*
X394368Y243945D01*
X394113Y243308D01*
X393843Y242678D01*
X393557Y242054D01*
X393257Y241438D01*
X392941Y240829D01*
X392610Y240228D01*
X392265Y239636D01*
X391905Y239052D01*
X391531Y238477D01*
X391143Y237912D01*
X390742Y237356D01*
X390326Y236810D01*
X389898Y236275D01*
X389456Y235750D01*
X389002Y235237D01*
X388535Y234734D01*
X388057Y234243D01*
X387566Y233765D01*
X387063Y233298D01*
X386550Y232844D01*
X386025Y232402D01*
X385490Y231974D01*
X384944Y231558D01*
X384388Y231157D01*
X383823Y230769D01*
X383248Y230395D01*
X382664Y230035D01*
X382072Y229690D01*
X381471Y229359D01*
X380862Y229043D01*
X380246Y228743D01*
X379622Y228457D01*
X378992Y228187D01*
X378355Y227932D01*
X377713Y227693D01*
X377064Y227470D01*
X376411Y227263D01*
X375752Y227072D01*
X375089Y226897D01*
X374422Y226739D01*
X373751Y226597D01*
X373077Y226471D01*
X372400Y226362D01*
X371720Y226270D01*
X371039Y226195D01*
X370355Y226136D01*
X369671Y226094D01*
X368986Y226068D01*
X368300Y226060D01*
X367614Y226068D01*
X366929Y226094D01*
X366245Y226136D01*
X365561Y226195D01*
X364880Y226270D01*
X364200Y226362D01*
X363523Y226471D01*
X362849Y226597D01*
X362178Y226739D01*
X361511Y226897D01*
X360848Y227072D01*
X360189Y227263D01*
X359536Y227470D01*
X358887Y227693D01*
X358245Y227932D01*
X357608Y228187D01*
X356978Y228457D01*
X356354Y228743D01*
X355738Y229043D01*
X355129Y229359D01*
X354528Y229690D01*
X353936Y230035D01*
X353352Y230395D01*
X352777Y230769D01*
X352212Y231157D01*
X351656Y231558D01*
X351110Y231974D01*
X350575Y232402D01*
X350050Y232844D01*
X349537Y233298D01*
X349034Y233765D01*
X348543Y234243D01*
X348065Y234734D01*
X347598Y235237D01*
X347144Y235750D01*
X346702Y236275D01*
X346274Y236810D01*
X345858Y237356D01*
X345457Y237912D01*
X345069Y238477D01*
X344695Y239052D01*
X344335Y239636D01*
X343990Y240228D01*
X343659Y240829D01*
X343343Y241438D01*
X343043Y242054D01*
X342757Y242678D01*
X342487Y243308D01*
X342232Y243945D01*
X341993Y244587D01*
X341770Y245236D01*
X341563Y245889D01*
X341372Y246548D01*
X341197Y247211D01*
X341039Y247878D01*
X340897Y248549D01*
X340771Y249223D01*
X340662Y249900D01*
X340570Y250580D01*
X340495Y251261D01*
X340436Y251945D01*
X340394Y252629D01*
X340368Y253314D01*
X340360Y254000D01*
D13*
X337185Y318135D02*
X337185Y329565D01*
X340360Y329565D01*
X340471Y329563D01*
X340581Y329557D01*
X340692Y329548D01*
X340802Y329534D01*
X340911Y329517D01*
X341020Y329496D01*
X341128Y329471D01*
X341235Y329442D01*
X341341Y329410D01*
X341446Y329374D01*
X341549Y329334D01*
X341651Y329291D01*
X341752Y329244D01*
X341851Y329193D01*
X341948Y329140D01*
X342042Y329083D01*
X342135Y329022D01*
X342226Y328959D01*
X342315Y328892D01*
X342401Y328822D01*
X342484Y328749D01*
X342566Y328674D01*
X342644Y328596D01*
X342719Y328514D01*
X342792Y328431D01*
X342862Y328345D01*
X342929Y328256D01*
X342992Y328165D01*
X343053Y328072D01*
X343110Y327977D01*
X343163Y327881D01*
X343214Y327782D01*
X343261Y327681D01*
X343304Y327579D01*
X343344Y327476D01*
X343380Y327371D01*
X343412Y327265D01*
X343441Y327158D01*
X343466Y327050D01*
X343487Y326941D01*
X343504Y326832D01*
X343518Y326722D01*
X343527Y326611D01*
X343533Y326501D01*
X343535Y326390D01*
X343533Y326279D01*
X343527Y326169D01*
X343518Y326058D01*
X343504Y325948D01*
X343487Y325839D01*
X343466Y325730D01*
X343441Y325622D01*
X343412Y325515D01*
X343380Y325409D01*
X343344Y325304D01*
X343304Y325201D01*
X343261Y325099D01*
X343214Y324998D01*
X343163Y324899D01*
X343110Y324802D01*
X343053Y324708D01*
X342992Y324615D01*
X342929Y324524D01*
X342862Y324435D01*
X342792Y324349D01*
X342719Y324266D01*
X342644Y324184D01*
X342566Y324106D01*
X342484Y324031D01*
X342401Y323958D01*
X342315Y323888D01*
X342226Y323821D01*
X342135Y323758D01*
X342042Y323697D01*
X341948Y323640D01*
X341851Y323587D01*
X341752Y323536D01*
X341651Y323489D01*
X341549Y323446D01*
X341446Y323406D01*
X341341Y323370D01*
X341235Y323338D01*
X341128Y323309D01*
X341020Y323284D01*
X340911Y323263D01*
X340802Y323246D01*
X340692Y323232D01*
X340581Y323223D01*
X340471Y323217D01*
X340360Y323215D01*
X337185Y323215D01*
X340995Y323215D02*
X343535Y318135D01*
X348532Y327025D02*
X351707Y329565D01*
X351707Y318135D01*
X348532Y318135D02*
X354882Y318135D01*
X82550Y213360D02*
X83629Y214150D01*
X84687Y214967D01*
X85726Y215809D01*
X86743Y216677D01*
X87740Y217569D01*
X88713Y218485D01*
X89665Y219425D01*
X90593Y220387D01*
X91497Y221373D01*
X92376Y222380D01*
X93231Y223408D01*
X94060Y224457D01*
X94864Y225526D01*
X95641Y226614D01*
X96391Y227721D01*
X97114Y228846D01*
X97809Y229988D01*
X98476Y231147D01*
X99114Y232322D01*
X99723Y233512D01*
X100304Y234717D01*
X100854Y235935D01*
X101374Y237167D01*
X101864Y238411D01*
X102324Y239667D01*
X102753Y240933D01*
X103150Y242210D01*
X103516Y243496D01*
X103851Y244791D01*
X104154Y246093D01*
X104424Y247403D01*
X104663Y248718D01*
X104869Y250039D01*
X105043Y251365D01*
X105185Y252695D01*
X105294Y254027D01*
X105370Y255362D01*
X105414Y256699D01*
X105425Y258036D01*
X105403Y259373D01*
X105348Y260709D01*
X105261Y262043D01*
X105141Y263375D01*
X104988Y264703D01*
X104803Y266028D01*
X104586Y267347D01*
X104336Y268661D01*
X104055Y269968D01*
X103741Y271268D01*
X103396Y272559D01*
X103019Y273842D01*
X102611Y275116D01*
X102172Y276379D01*
X101702Y277631D01*
X101202Y278871D01*
X100671Y280098D01*
X100111Y281312D01*
X99521Y282512D01*
X98902Y283697D01*
X98253Y284867D01*
X97577Y286020D01*
X96873Y287156D01*
X96140Y288275D01*
X95381Y289376D01*
X94595Y290458D01*
X93783Y291520D01*
X92945Y292562D01*
X92082Y293583D01*
X91194Y294583D01*
X90282Y295560D01*
X89346Y296516D01*
X88387Y297447D01*
X87405Y298356D01*
X86402Y299239D01*
X85377Y300098D01*
X84332Y300932D01*
X83266Y301740D01*
X82181Y302521D01*
X81078Y303276D01*
X79956Y304004D01*
X78816Y304703D01*
X77660Y305375D01*
X76488Y306018D01*
X75300Y306633D01*
X74098Y307218D01*
X72881Y307773D01*
X71652Y308299D01*
X70410Y308794D01*
X69156Y309258D01*
X67891Y309692D01*
X66616Y310095D01*
X65332Y310467D01*
X64039Y310807D01*
X62737Y311115D01*
X61429Y311391D01*
X60114Y311635D01*
X58794Y311847D01*
X57469Y312026D01*
X56140Y312173D01*
X54808Y312288D01*
X53473Y312370D01*
X52137Y312419D01*
X50800Y312435D01*
X49463Y312419D01*
X48127Y312370D01*
X46792Y312288D01*
X45460Y312173D01*
X44131Y312026D01*
X42806Y311847D01*
X41486Y311635D01*
X40171Y311391D01*
X38863Y311115D01*
X37561Y310807D01*
X36268Y310467D01*
X34984Y310095D01*
X33709Y309692D01*
X32444Y309258D01*
X31190Y308794D01*
X29948Y308299D01*
X28719Y307773D01*
X27502Y307218D01*
X26300Y306633D01*
X25112Y306018D01*
X23940Y305375D01*
X22784Y304703D01*
X21644Y304004D01*
X20522Y303276D01*
X19419Y302521D01*
X18334Y301740D01*
X17268Y300932D01*
X16223Y300098D01*
X15198Y299239D01*
X14195Y298356D01*
X13213Y297447D01*
X12254Y296516D01*
X11318Y295560D01*
X10406Y294583D01*
X9518Y293583D01*
X8655Y292562D01*
X7817Y291520D01*
X7005Y290458D01*
X6219Y289376D01*
X5460Y288275D01*
X4727Y287156D01*
X4023Y286020D01*
X3347Y284867D01*
X2698Y283697D01*
X2079Y282512D01*
X1489Y281312D01*
X929Y280098D01*
X398Y278871D01*
X-102Y277631D01*
X-572Y276379D01*
X-1011Y275116D01*
X-1419Y273842D01*
X-1796Y272559D01*
X-2141Y271268D01*
X-2455Y269968D01*
X-2736Y268661D01*
X-2986Y267347D01*
X-3203Y266028D01*
X-3388Y264703D01*
X-3541Y263375D01*
X-3661Y262043D01*
X-3748Y260709D01*
X-3803Y259373D01*
X-3825Y258036D01*
X-3814Y256699D01*
X-3770Y255362D01*
X-3694Y254027D01*
X-3585Y252695D01*
X-3443Y251365D01*
X-3269Y250039D01*
X-3063Y248718D01*
X-2824Y247403D01*
X-2554Y246093D01*
X-2251Y244791D01*
X-1916Y243496D01*
X-1550Y242210D01*
X-1153Y240933D01*
X-724Y239667D01*
X-264Y238411D01*
X226Y237167D01*
X746Y235935D01*
X1296Y234717D01*
X1877Y233512D01*
X2486Y232322D01*
X3124Y231147D01*
X3791Y229988D01*
X4486Y228846D01*
X5209Y227721D01*
X5959Y226614D01*
X6736Y225526D01*
X7540Y224457D01*
X8369Y223408D01*
X9224Y222380D01*
X10103Y221373D01*
X11007Y220387D01*
X11935Y219425D01*
X12887Y218485D01*
X13860Y217569D01*
X14857Y216677D01*
X15874Y215809D01*
X16913Y214967D01*
X17971Y214150D01*
X19050Y213360D01*
X22860Y222250D02*
X31750Y228600D01*
X44450Y222250D01*
X44450Y209550D01*
X38100Y209550D01*
X38100Y196850D01*
X63500Y196850D02*
X63500Y209550D01*
X57150Y209550D01*
X57150Y222250D01*
X69850Y228600D01*
X78740Y222250D01*
X49530Y257810D02*
X59690Y267970D01*
X49530Y257810D02*
X45720Y261620D01*
X45720Y254000D01*
X36830Y245110D01*
X54610Y252730D02*
X64770Y262890D01*
X54610Y252730D02*
X58420Y248920D01*
X50800Y248920D01*
X41910Y240030D01*
X32766Y254000D02*
X32771Y254443D01*
X32788Y254885D01*
X32815Y255327D01*
X32853Y255768D01*
X32902Y256208D01*
X32961Y256646D01*
X33032Y257083D01*
X33113Y257518D01*
X33204Y257951D01*
X33306Y258382D01*
X33419Y258810D01*
X33543Y259235D01*
X33676Y259657D01*
X33820Y260075D01*
X33974Y260490D01*
X34139Y260901D01*
X34313Y261308D01*
X34497Y261711D01*
X34692Y262108D01*
X34895Y262501D01*
X35109Y262889D01*
X35332Y263271D01*
X35564Y263648D01*
X35805Y264019D01*
X36056Y264384D01*
X36315Y264743D01*
X36583Y265095D01*
X36860Y265441D01*
X37144Y265779D01*
X37438Y266111D01*
X37739Y266435D01*
X38048Y266752D01*
X38365Y267061D01*
X38689Y267362D01*
X39021Y267656D01*
X39359Y267940D01*
X39705Y268217D01*
X40057Y268485D01*
X40416Y268744D01*
X40781Y268995D01*
X41152Y269236D01*
X41529Y269468D01*
X41911Y269691D01*
X42299Y269905D01*
X42692Y270108D01*
X43089Y270303D01*
X43492Y270487D01*
X43899Y270661D01*
X44310Y270826D01*
X44725Y270980D01*
X45143Y271124D01*
X45565Y271257D01*
X45990Y271381D01*
X46418Y271494D01*
X46849Y271596D01*
X47282Y271687D01*
X47717Y271768D01*
X48154Y271839D01*
X48592Y271898D01*
X49032Y271947D01*
X49473Y271985D01*
X49915Y272012D01*
X50357Y272029D01*
X50800Y272034D01*
X51243Y272029D01*
X51685Y272012D01*
X52127Y271985D01*
X52568Y271947D01*
X53008Y271898D01*
X53446Y271839D01*
X53883Y271768D01*
X54318Y271687D01*
X54751Y271596D01*
X55182Y271494D01*
X55610Y271381D01*
X56035Y271257D01*
X56457Y271124D01*
X56875Y270980D01*
X57290Y270826D01*
X57701Y270661D01*
X58108Y270487D01*
X58511Y270303D01*
X58908Y270108D01*
X59301Y269905D01*
X59689Y269691D01*
X60071Y269468D01*
X60448Y269236D01*
X60819Y268995D01*
X61184Y268744D01*
X61543Y268485D01*
X61895Y268217D01*
X62241Y267940D01*
X62579Y267656D01*
X62911Y267362D01*
X63235Y267061D01*
X63552Y266752D01*
X63861Y266435D01*
X64162Y266111D01*
X64456Y265779D01*
X64740Y265441D01*
X65017Y265095D01*
X65285Y264743D01*
X65544Y264384D01*
X65795Y264019D01*
X66036Y263648D01*
X66268Y263271D01*
X66491Y262889D01*
X66705Y262501D01*
X66908Y262108D01*
X67103Y261711D01*
X67287Y261308D01*
X67461Y260901D01*
X67626Y260490D01*
X67780Y260075D01*
X67924Y259657D01*
X68057Y259235D01*
X68181Y258810D01*
X68294Y258382D01*
X68396Y257951D01*
X68487Y257518D01*
X68568Y257083D01*
X68639Y256646D01*
X68698Y256208D01*
X68747Y255768D01*
X68785Y255327D01*
X68812Y254885D01*
X68829Y254443D01*
X68834Y254000D01*
X68829Y253557D01*
X68812Y253115D01*
X68785Y252673D01*
X68747Y252232D01*
X68698Y251792D01*
X68639Y251354D01*
X68568Y250917D01*
X68487Y250482D01*
X68396Y250049D01*
X68294Y249618D01*
X68181Y249190D01*
X68057Y248765D01*
X67924Y248343D01*
X67780Y247925D01*
X67626Y247510D01*
X67461Y247099D01*
X67287Y246692D01*
X67103Y246289D01*
X66908Y245892D01*
X66705Y245499D01*
X66491Y245111D01*
X66268Y244729D01*
X66036Y244352D01*
X65795Y243981D01*
X65544Y243616D01*
X65285Y243257D01*
X65017Y242905D01*
X64740Y242559D01*
X64456Y242221D01*
X64162Y241889D01*
X63861Y241565D01*
X63552Y241248D01*
X63235Y240939D01*
X62911Y240638D01*
X62579Y240344D01*
X62241Y240060D01*
X61895Y239783D01*
X61543Y239515D01*
X61184Y239256D01*
X60819Y239005D01*
X60448Y238764D01*
X60071Y238532D01*
X59689Y238309D01*
X59301Y238095D01*
X58908Y237892D01*
X58511Y237697D01*
X58108Y237513D01*
X57701Y237339D01*
X57290Y237174D01*
X56875Y237020D01*
X56457Y236876D01*
X56035Y236743D01*
X55610Y236619D01*
X55182Y236506D01*
X54751Y236404D01*
X54318Y236313D01*
X53883Y236232D01*
X53446Y236161D01*
X53008Y236102D01*
X52568Y236053D01*
X52127Y236015D01*
X51685Y235988D01*
X51243Y235971D01*
X50800Y235966D01*
X50357Y235971D01*
X49915Y235988D01*
X49473Y236015D01*
X49032Y236053D01*
X48592Y236102D01*
X48154Y236161D01*
X47717Y236232D01*
X47282Y236313D01*
X46849Y236404D01*
X46418Y236506D01*
X45990Y236619D01*
X45565Y236743D01*
X45143Y236876D01*
X44725Y237020D01*
X44310Y237174D01*
X43899Y237339D01*
X43492Y237513D01*
X43089Y237697D01*
X42692Y237892D01*
X42299Y238095D01*
X41911Y238309D01*
X41529Y238532D01*
X41152Y238764D01*
X40781Y239005D01*
X40416Y239256D01*
X40057Y239515D01*
X39705Y239783D01*
X39359Y240060D01*
X39021Y240344D01*
X38689Y240638D01*
X38365Y240939D01*
X38048Y241248D01*
X37739Y241565D01*
X37438Y241889D01*
X37144Y242221D01*
X36860Y242559D01*
X36583Y242905D01*
X36315Y243257D01*
X36056Y243616D01*
X35805Y243981D01*
X35564Y244352D01*
X35332Y244729D01*
X35109Y245111D01*
X34895Y245499D01*
X34692Y245892D01*
X34497Y246289D01*
X34313Y246692D01*
X34139Y247099D01*
X33974Y247510D01*
X33820Y247925D01*
X33676Y248343D01*
X33543Y248765D01*
X33419Y249190D01*
X33306Y249618D01*
X33204Y250049D01*
X33113Y250482D01*
X33032Y250917D01*
X32961Y251354D01*
X32902Y251792D01*
X32853Y252232D01*
X32815Y252673D01*
X32788Y253115D01*
X32771Y253557D01*
X32766Y254000D01*
D12*
X22860Y254000D02*
X22868Y254686D01*
X22894Y255371D01*
X22936Y256055D01*
X22995Y256739D01*
X23070Y257420D01*
X23162Y258100D01*
X23271Y258777D01*
X23397Y259451D01*
X23539Y260122D01*
X23697Y260789D01*
X23872Y261452D01*
X24063Y262111D01*
X24270Y262764D01*
X24493Y263413D01*
X24732Y264055D01*
X24987Y264692D01*
X25257Y265322D01*
X25543Y265946D01*
X25843Y266562D01*
X26159Y267171D01*
X26490Y267772D01*
X26835Y268364D01*
X27195Y268948D01*
X27569Y269523D01*
X27957Y270088D01*
X28358Y270644D01*
X28774Y271190D01*
X29202Y271725D01*
X29644Y272250D01*
X30098Y272763D01*
X30565Y273266D01*
X31043Y273757D01*
X31534Y274235D01*
X32037Y274702D01*
X32550Y275156D01*
X33075Y275598D01*
X33610Y276026D01*
X34156Y276442D01*
X34712Y276843D01*
X35277Y277231D01*
X35852Y277605D01*
X36436Y277965D01*
X37028Y278310D01*
X37629Y278641D01*
X38238Y278957D01*
X38854Y279257D01*
X39478Y279543D01*
X40108Y279813D01*
X40745Y280068D01*
X41387Y280307D01*
X42036Y280530D01*
X42689Y280737D01*
X43348Y280928D01*
X44011Y281103D01*
X44678Y281261D01*
X45349Y281403D01*
X46023Y281529D01*
X46700Y281638D01*
X47380Y281730D01*
X48061Y281805D01*
X48745Y281864D01*
X49429Y281906D01*
X50114Y281932D01*
X50800Y281940D01*
X51486Y281932D01*
X52171Y281906D01*
X52855Y281864D01*
X53539Y281805D01*
X54220Y281730D01*
X54900Y281638D01*
X55577Y281529D01*
X56251Y281403D01*
X56922Y281261D01*
X57589Y281103D01*
X58252Y280928D01*
X58911Y280737D01*
X59564Y280530D01*
X60213Y280307D01*
X60855Y280068D01*
X61492Y279813D01*
X62122Y279543D01*
X62746Y279257D01*
X63362Y278957D01*
X63971Y278641D01*
X64572Y278310D01*
X65164Y277965D01*
X65748Y277605D01*
X66323Y277231D01*
X66888Y276843D01*
X67444Y276442D01*
X67990Y276026D01*
X68525Y275598D01*
X69050Y275156D01*
X69563Y274702D01*
X70066Y274235D01*
X70557Y273757D01*
X71035Y273266D01*
X71502Y272763D01*
X71956Y272250D01*
X72398Y271725D01*
X72826Y271190D01*
X73242Y270644D01*
X73643Y270088D01*
X74031Y269523D01*
X74405Y268948D01*
X74765Y268364D01*
X75110Y267772D01*
X75441Y267171D01*
X75757Y266562D01*
X76057Y265946D01*
X76343Y265322D01*
X76613Y264692D01*
X76868Y264055D01*
X77107Y263413D01*
X77330Y262764D01*
X77537Y262111D01*
X77728Y261452D01*
X77903Y260789D01*
X78061Y260122D01*
X78203Y259451D01*
X78329Y258777D01*
X78438Y258100D01*
X78530Y257420D01*
X78605Y256739D01*
X78664Y256055D01*
X78706Y255371D01*
X78732Y254686D01*
X78740Y254000D01*
X78732Y253314D01*
X78706Y252629D01*
X78664Y251945D01*
X78605Y251261D01*
X78530Y250580D01*
X78438Y249900D01*
X78329Y249223D01*
X78203Y248549D01*
X78061Y247878D01*
X77903Y247211D01*
X77728Y246548D01*
X77537Y245889D01*
X77330Y245236D01*
X77107Y244587D01*
X76868Y243945D01*
X76613Y243308D01*
X76343Y242678D01*
X76057Y242054D01*
X75757Y241438D01*
X75441Y240829D01*
X75110Y240228D01*
X74765Y239636D01*
X74405Y239052D01*
X74031Y238477D01*
X73643Y237912D01*
X73242Y237356D01*
X72826Y236810D01*
X72398Y236275D01*
X71956Y235750D01*
X71502Y235237D01*
X71035Y234734D01*
X70557Y234243D01*
X70066Y233765D01*
X69563Y233298D01*
X69050Y232844D01*
X68525Y232402D01*
X67990Y231974D01*
X67444Y231558D01*
X66888Y231157D01*
X66323Y230769D01*
X65748Y230395D01*
X65164Y230035D01*
X64572Y229690D01*
X63971Y229359D01*
X63362Y229043D01*
X62746Y228743D01*
X62122Y228457D01*
X61492Y228187D01*
X60855Y227932D01*
X60213Y227693D01*
X59564Y227470D01*
X58911Y227263D01*
X58252Y227072D01*
X57589Y226897D01*
X56922Y226739D01*
X56251Y226597D01*
X55577Y226471D01*
X54900Y226362D01*
X54220Y226270D01*
X53539Y226195D01*
X52855Y226136D01*
X52171Y226094D01*
X51486Y226068D01*
X50800Y226060D01*
X50114Y226068D01*
X49429Y226094D01*
X48745Y226136D01*
X48061Y226195D01*
X47380Y226270D01*
X46700Y226362D01*
X46023Y226471D01*
X45349Y226597D01*
X44678Y226739D01*
X44011Y226897D01*
X43348Y227072D01*
X42689Y227263D01*
X42036Y227470D01*
X41387Y227693D01*
X40745Y227932D01*
X40108Y228187D01*
X39478Y228457D01*
X38854Y228743D01*
X38238Y229043D01*
X37629Y229359D01*
X37028Y229690D01*
X36436Y230035D01*
X35852Y230395D01*
X35277Y230769D01*
X34712Y231157D01*
X34156Y231558D01*
X33610Y231974D01*
X33075Y232402D01*
X32550Y232844D01*
X32037Y233298D01*
X31534Y233765D01*
X31043Y234243D01*
X30565Y234734D01*
X30098Y235237D01*
X29644Y235750D01*
X29202Y236275D01*
X28774Y236810D01*
X28358Y237356D01*
X27957Y237912D01*
X27569Y238477D01*
X27195Y239052D01*
X26835Y239636D01*
X26490Y240228D01*
X26159Y240829D01*
X25843Y241438D01*
X25543Y242054D01*
X25257Y242678D01*
X24987Y243308D01*
X24732Y243945D01*
X24493Y244587D01*
X24270Y245236D01*
X24063Y245889D01*
X23872Y246548D01*
X23697Y247211D01*
X23539Y247878D01*
X23397Y248549D01*
X23271Y249223D01*
X23162Y249900D01*
X23070Y250580D01*
X22995Y251261D01*
X22936Y251945D01*
X22894Y252629D01*
X22868Y253314D01*
X22860Y254000D01*
D13*
X19685Y318135D02*
X19685Y329565D01*
X22860Y329565D01*
X22971Y329563D01*
X23081Y329557D01*
X23192Y329548D01*
X23302Y329534D01*
X23411Y329517D01*
X23520Y329496D01*
X23628Y329471D01*
X23735Y329442D01*
X23841Y329410D01*
X23946Y329374D01*
X24049Y329334D01*
X24151Y329291D01*
X24252Y329244D01*
X24351Y329193D01*
X24448Y329140D01*
X24542Y329083D01*
X24635Y329022D01*
X24726Y328959D01*
X24815Y328892D01*
X24901Y328822D01*
X24984Y328749D01*
X25066Y328674D01*
X25144Y328596D01*
X25219Y328514D01*
X25292Y328431D01*
X25362Y328345D01*
X25429Y328256D01*
X25492Y328165D01*
X25553Y328072D01*
X25610Y327977D01*
X25663Y327881D01*
X25714Y327782D01*
X25761Y327681D01*
X25804Y327579D01*
X25844Y327476D01*
X25880Y327371D01*
X25912Y327265D01*
X25941Y327158D01*
X25966Y327050D01*
X25987Y326941D01*
X26004Y326832D01*
X26018Y326722D01*
X26027Y326611D01*
X26033Y326501D01*
X26035Y326390D01*
X26033Y326279D01*
X26027Y326169D01*
X26018Y326058D01*
X26004Y325948D01*
X25987Y325839D01*
X25966Y325730D01*
X25941Y325622D01*
X25912Y325515D01*
X25880Y325409D01*
X25844Y325304D01*
X25804Y325201D01*
X25761Y325099D01*
X25714Y324998D01*
X25663Y324899D01*
X25610Y324802D01*
X25553Y324708D01*
X25492Y324615D01*
X25429Y324524D01*
X25362Y324435D01*
X25292Y324349D01*
X25219Y324266D01*
X25144Y324184D01*
X25066Y324106D01*
X24984Y324031D01*
X24901Y323958D01*
X24815Y323888D01*
X24726Y323821D01*
X24635Y323758D01*
X24542Y323697D01*
X24447Y323640D01*
X24351Y323587D01*
X24252Y323536D01*
X24151Y323489D01*
X24049Y323446D01*
X23946Y323406D01*
X23841Y323370D01*
X23735Y323338D01*
X23628Y323309D01*
X23520Y323284D01*
X23411Y323263D01*
X23302Y323246D01*
X23192Y323232D01*
X23081Y323223D01*
X22971Y323217D01*
X22860Y323215D01*
X19685Y323215D01*
X23495Y323215D02*
X26035Y318135D01*
X37383Y326708D02*
X37381Y326812D01*
X37375Y326917D01*
X37366Y327021D01*
X37353Y327124D01*
X37335Y327227D01*
X37315Y327329D01*
X37290Y327431D01*
X37262Y327531D01*
X37230Y327631D01*
X37194Y327729D01*
X37155Y327826D01*
X37113Y327921D01*
X37067Y328015D01*
X37017Y328107D01*
X36965Y328197D01*
X36909Y328285D01*
X36849Y328371D01*
X36787Y328455D01*
X36722Y328536D01*
X36654Y328615D01*
X36582Y328692D01*
X36509Y328765D01*
X36432Y328837D01*
X36353Y328905D01*
X36272Y328970D01*
X36188Y329032D01*
X36102Y329092D01*
X36014Y329148D01*
X35924Y329200D01*
X35832Y329250D01*
X35738Y329296D01*
X35643Y329338D01*
X35546Y329377D01*
X35448Y329413D01*
X35348Y329445D01*
X35248Y329473D01*
X35146Y329498D01*
X35044Y329518D01*
X34941Y329536D01*
X34838Y329549D01*
X34734Y329558D01*
X34629Y329564D01*
X34525Y329566D01*
X34525Y329565D02*
X34407Y329563D01*
X34288Y329557D01*
X34170Y329548D01*
X34053Y329535D01*
X33936Y329517D01*
X33819Y329497D01*
X33703Y329472D01*
X33588Y329444D01*
X33475Y329411D01*
X33362Y329376D01*
X33250Y329336D01*
X33140Y329294D01*
X33031Y329247D01*
X32923Y329197D01*
X32818Y329144D01*
X32714Y329087D01*
X32612Y329027D01*
X32512Y328964D01*
X32414Y328897D01*
X32318Y328828D01*
X32225Y328755D01*
X32134Y328679D01*
X32045Y328601D01*
X31959Y328519D01*
X31876Y328435D01*
X31795Y328349D01*
X31718Y328259D01*
X31643Y328168D01*
X31571Y328074D01*
X31502Y327977D01*
X31437Y327879D01*
X31374Y327778D01*
X31315Y327675D01*
X31259Y327571D01*
X31207Y327465D01*
X31158Y327357D01*
X31113Y327248D01*
X31071Y327137D01*
X31033Y327025D01*
X36430Y324486D02*
X36506Y324561D01*
X36581Y324640D01*
X36652Y324721D01*
X36721Y324805D01*
X36786Y324891D01*
X36848Y324979D01*
X36908Y325069D01*
X36964Y325161D01*
X37017Y325256D01*
X37066Y325352D01*
X37112Y325450D01*
X37155Y325549D01*
X37194Y325650D01*
X37229Y325752D01*
X37261Y325855D01*
X37289Y325959D01*
X37314Y326064D01*
X37335Y326171D01*
X37352Y326277D01*
X37365Y326384D01*
X37374Y326492D01*
X37380Y326600D01*
X37382Y326708D01*
X36430Y324485D02*
X31032Y318135D01*
X37382Y318135D01*
D10*
X318008Y425958D02*
X329692Y425958D01*
X318008Y425958D02*
X318008Y429204D01*
X318010Y429317D01*
X318016Y429430D01*
X318026Y429543D01*
X318040Y429656D01*
X318057Y429768D01*
X318079Y429879D01*
X318104Y429989D01*
X318134Y430099D01*
X318167Y430207D01*
X318204Y430314D01*
X318244Y430420D01*
X318289Y430524D01*
X318337Y430627D01*
X318388Y430728D01*
X318443Y430827D01*
X318501Y430924D01*
X318563Y431019D01*
X318628Y431112D01*
X318696Y431202D01*
X318767Y431290D01*
X318842Y431376D01*
X318919Y431459D01*
X318999Y431539D01*
X319082Y431616D01*
X319168Y431691D01*
X319256Y431762D01*
X319346Y431830D01*
X319439Y431895D01*
X319534Y431957D01*
X319631Y432015D01*
X319730Y432070D01*
X319831Y432121D01*
X319934Y432169D01*
X320038Y432214D01*
X320144Y432254D01*
X320251Y432291D01*
X320359Y432324D01*
X320469Y432354D01*
X320579Y432379D01*
X320690Y432401D01*
X320802Y432418D01*
X320915Y432432D01*
X321028Y432442D01*
X321141Y432448D01*
X321254Y432450D01*
X321367Y432448D01*
X321480Y432442D01*
X321593Y432432D01*
X321706Y432418D01*
X321818Y432401D01*
X321929Y432379D01*
X322039Y432354D01*
X322149Y432324D01*
X322257Y432291D01*
X322364Y432254D01*
X322470Y432214D01*
X322574Y432169D01*
X322677Y432121D01*
X322778Y432070D01*
X322877Y432015D01*
X322974Y431957D01*
X323069Y431895D01*
X323162Y431830D01*
X323252Y431762D01*
X323340Y431691D01*
X323426Y431616D01*
X323509Y431539D01*
X323589Y431459D01*
X323666Y431376D01*
X323741Y431290D01*
X323812Y431202D01*
X323880Y431112D01*
X323945Y431019D01*
X324007Y430924D01*
X324065Y430827D01*
X324120Y430728D01*
X324171Y430627D01*
X324219Y430524D01*
X324264Y430420D01*
X324304Y430314D01*
X324341Y430207D01*
X324374Y430099D01*
X324404Y429989D01*
X324429Y429879D01*
X324451Y429768D01*
X324468Y429656D01*
X324482Y429543D01*
X324492Y429430D01*
X324498Y429317D01*
X324500Y429204D01*
X324499Y429204D02*
X324499Y425958D01*
X324499Y429853D02*
X329692Y432449D01*
X329692Y437314D02*
X329692Y440560D01*
X329690Y440673D01*
X329684Y440786D01*
X329674Y440899D01*
X329660Y441012D01*
X329643Y441124D01*
X329621Y441235D01*
X329596Y441345D01*
X329566Y441455D01*
X329533Y441563D01*
X329496Y441670D01*
X329456Y441776D01*
X329411Y441880D01*
X329363Y441983D01*
X329312Y442084D01*
X329257Y442183D01*
X329199Y442280D01*
X329137Y442375D01*
X329072Y442468D01*
X329004Y442558D01*
X328933Y442646D01*
X328858Y442732D01*
X328781Y442815D01*
X328701Y442895D01*
X328618Y442972D01*
X328532Y443047D01*
X328444Y443118D01*
X328354Y443186D01*
X328261Y443251D01*
X328166Y443313D01*
X328069Y443371D01*
X327970Y443426D01*
X327869Y443477D01*
X327766Y443525D01*
X327662Y443570D01*
X327556Y443610D01*
X327449Y443647D01*
X327341Y443680D01*
X327231Y443710D01*
X327121Y443735D01*
X327010Y443757D01*
X326898Y443774D01*
X326785Y443788D01*
X326672Y443798D01*
X326559Y443804D01*
X326446Y443806D01*
X326333Y443804D01*
X326220Y443798D01*
X326107Y443788D01*
X325994Y443774D01*
X325882Y443757D01*
X325771Y443735D01*
X325661Y443710D01*
X325551Y443680D01*
X325443Y443647D01*
X325336Y443610D01*
X325230Y443570D01*
X325126Y443525D01*
X325023Y443477D01*
X324922Y443426D01*
X324823Y443371D01*
X324726Y443313D01*
X324631Y443251D01*
X324538Y443186D01*
X324448Y443118D01*
X324360Y443047D01*
X324274Y442972D01*
X324191Y442895D01*
X324111Y442815D01*
X324034Y442732D01*
X323959Y442646D01*
X323888Y442558D01*
X323820Y442468D01*
X323755Y442375D01*
X323693Y442280D01*
X323635Y442183D01*
X323580Y442084D01*
X323529Y441983D01*
X323481Y441880D01*
X323436Y441776D01*
X323396Y441670D01*
X323359Y441563D01*
X323326Y441455D01*
X323296Y441345D01*
X323271Y441235D01*
X323249Y441124D01*
X323232Y441012D01*
X323218Y440899D01*
X323208Y440786D01*
X323202Y440673D01*
X323200Y440560D01*
X318008Y441209D02*
X318008Y437314D01*
X318008Y441209D02*
X318010Y441310D01*
X318016Y441410D01*
X318026Y441510D01*
X318039Y441610D01*
X318057Y441709D01*
X318078Y441808D01*
X318103Y441905D01*
X318132Y442002D01*
X318165Y442097D01*
X318201Y442191D01*
X318241Y442283D01*
X318284Y442374D01*
X318331Y442463D01*
X318381Y442550D01*
X318435Y442636D01*
X318492Y442719D01*
X318552Y442799D01*
X318615Y442878D01*
X318682Y442954D01*
X318751Y443027D01*
X318823Y443097D01*
X318897Y443165D01*
X318974Y443230D01*
X319054Y443291D01*
X319136Y443350D01*
X319220Y443405D01*
X319306Y443457D01*
X319394Y443506D01*
X319484Y443551D01*
X319576Y443593D01*
X319669Y443631D01*
X319764Y443665D01*
X319859Y443696D01*
X319956Y443723D01*
X320054Y443746D01*
X320153Y443766D01*
X320253Y443781D01*
X320353Y443793D01*
X320453Y443801D01*
X320554Y443805D01*
X320654Y443805D01*
X320755Y443801D01*
X320855Y443793D01*
X320955Y443781D01*
X321055Y443766D01*
X321154Y443746D01*
X321252Y443723D01*
X321349Y443696D01*
X321444Y443665D01*
X321539Y443631D01*
X321632Y443593D01*
X321724Y443551D01*
X321814Y443506D01*
X321902Y443457D01*
X321988Y443405D01*
X322072Y443350D01*
X322154Y443291D01*
X322234Y443230D01*
X322311Y443165D01*
X322385Y443097D01*
X322457Y443027D01*
X322526Y442954D01*
X322593Y442878D01*
X322656Y442799D01*
X322716Y442719D01*
X322773Y442636D01*
X322827Y442550D01*
X322877Y442463D01*
X322924Y442374D01*
X322967Y442283D01*
X323007Y442191D01*
X323043Y442097D01*
X323076Y442002D01*
X323105Y441905D01*
X323130Y441808D01*
X323151Y441709D01*
X323169Y441610D01*
X323182Y441510D01*
X323192Y441410D01*
X323198Y441310D01*
X323200Y441209D01*
X323201Y441209D02*
X323201Y438613D01*
X151892Y387858D02*
X140208Y387858D01*
X140208Y391104D01*
X140210Y391217D01*
X140216Y391330D01*
X140226Y391443D01*
X140240Y391556D01*
X140257Y391668D01*
X140279Y391779D01*
X140304Y391889D01*
X140334Y391999D01*
X140367Y392107D01*
X140404Y392214D01*
X140444Y392320D01*
X140489Y392424D01*
X140537Y392527D01*
X140588Y392628D01*
X140643Y392727D01*
X140701Y392824D01*
X140763Y392919D01*
X140828Y393012D01*
X140896Y393102D01*
X140967Y393190D01*
X141042Y393276D01*
X141119Y393359D01*
X141199Y393439D01*
X141282Y393516D01*
X141368Y393591D01*
X141456Y393662D01*
X141546Y393730D01*
X141639Y393795D01*
X141734Y393857D01*
X141831Y393915D01*
X141930Y393970D01*
X142031Y394021D01*
X142134Y394069D01*
X142238Y394114D01*
X142344Y394154D01*
X142451Y394191D01*
X142559Y394224D01*
X142669Y394254D01*
X142779Y394279D01*
X142890Y394301D01*
X143002Y394318D01*
X143115Y394332D01*
X143228Y394342D01*
X143341Y394348D01*
X143454Y394350D01*
X143567Y394348D01*
X143680Y394342D01*
X143793Y394332D01*
X143906Y394318D01*
X144018Y394301D01*
X144129Y394279D01*
X144239Y394254D01*
X144349Y394224D01*
X144457Y394191D01*
X144564Y394154D01*
X144670Y394114D01*
X144774Y394069D01*
X144877Y394021D01*
X144978Y393970D01*
X145077Y393915D01*
X145174Y393857D01*
X145269Y393795D01*
X145362Y393730D01*
X145452Y393662D01*
X145540Y393591D01*
X145626Y393516D01*
X145709Y393439D01*
X145789Y393359D01*
X145866Y393276D01*
X145941Y393190D01*
X146012Y393102D01*
X146080Y393012D01*
X146145Y392919D01*
X146207Y392824D01*
X146265Y392727D01*
X146320Y392628D01*
X146371Y392527D01*
X146419Y392424D01*
X146464Y392320D01*
X146504Y392214D01*
X146541Y392107D01*
X146574Y391999D01*
X146604Y391889D01*
X146629Y391779D01*
X146651Y391668D01*
X146668Y391556D01*
X146682Y391443D01*
X146692Y391330D01*
X146698Y391217D01*
X146700Y391104D01*
X146699Y391104D02*
X146699Y387858D01*
X146699Y391753D02*
X151892Y394349D01*
X149296Y399214D02*
X140208Y401811D01*
X149296Y399214D02*
X149296Y405705D01*
X146699Y403758D02*
X151892Y403758D01*
X151892Y476758D02*
X140208Y476758D01*
X140208Y480004D01*
X140210Y480117D01*
X140216Y480230D01*
X140226Y480343D01*
X140240Y480456D01*
X140257Y480568D01*
X140279Y480679D01*
X140304Y480789D01*
X140334Y480899D01*
X140367Y481007D01*
X140404Y481114D01*
X140444Y481220D01*
X140489Y481324D01*
X140537Y481427D01*
X140588Y481528D01*
X140643Y481627D01*
X140701Y481724D01*
X140763Y481819D01*
X140828Y481912D01*
X140896Y482002D01*
X140967Y482090D01*
X141042Y482176D01*
X141119Y482259D01*
X141199Y482339D01*
X141282Y482416D01*
X141368Y482491D01*
X141456Y482562D01*
X141546Y482630D01*
X141639Y482695D01*
X141734Y482757D01*
X141831Y482815D01*
X141930Y482870D01*
X142031Y482921D01*
X142134Y482969D01*
X142238Y483014D01*
X142344Y483054D01*
X142451Y483091D01*
X142559Y483124D01*
X142669Y483154D01*
X142779Y483179D01*
X142890Y483201D01*
X143002Y483218D01*
X143115Y483232D01*
X143228Y483242D01*
X143341Y483248D01*
X143454Y483250D01*
X143567Y483248D01*
X143680Y483242D01*
X143793Y483232D01*
X143906Y483218D01*
X144018Y483201D01*
X144129Y483179D01*
X144239Y483154D01*
X144349Y483124D01*
X144457Y483091D01*
X144564Y483054D01*
X144670Y483014D01*
X144774Y482969D01*
X144877Y482921D01*
X144978Y482870D01*
X145077Y482815D01*
X145174Y482757D01*
X145269Y482695D01*
X145362Y482630D01*
X145452Y482562D01*
X145540Y482491D01*
X145626Y482416D01*
X145709Y482339D01*
X145789Y482259D01*
X145866Y482176D01*
X145941Y482090D01*
X146012Y482002D01*
X146080Y481912D01*
X146145Y481819D01*
X146207Y481724D01*
X146265Y481627D01*
X146320Y481528D01*
X146371Y481427D01*
X146419Y481324D01*
X146464Y481220D01*
X146504Y481114D01*
X146541Y481007D01*
X146574Y480899D01*
X146604Y480789D01*
X146629Y480679D01*
X146651Y480568D01*
X146668Y480456D01*
X146682Y480343D01*
X146692Y480230D01*
X146698Y480117D01*
X146700Y480004D01*
X146699Y480004D02*
X146699Y476758D01*
X146699Y480653D02*
X151892Y483249D01*
X151892Y488114D02*
X151892Y492009D01*
X151890Y492108D01*
X151884Y492208D01*
X151875Y492307D01*
X151862Y492405D01*
X151845Y492503D01*
X151824Y492601D01*
X151799Y492697D01*
X151771Y492792D01*
X151739Y492886D01*
X151704Y492979D01*
X151665Y493071D01*
X151622Y493161D01*
X151577Y493249D01*
X151527Y493336D01*
X151475Y493420D01*
X151419Y493503D01*
X151361Y493583D01*
X151299Y493661D01*
X151234Y493736D01*
X151166Y493809D01*
X151096Y493879D01*
X151023Y493947D01*
X150948Y494012D01*
X150870Y494074D01*
X150790Y494132D01*
X150707Y494188D01*
X150623Y494240D01*
X150536Y494290D01*
X150448Y494335D01*
X150358Y494378D01*
X150266Y494417D01*
X150173Y494452D01*
X150079Y494484D01*
X149984Y494512D01*
X149888Y494537D01*
X149790Y494558D01*
X149692Y494575D01*
X149594Y494588D01*
X149495Y494597D01*
X149395Y494603D01*
X149296Y494605D01*
X147997Y494605D01*
X147898Y494603D01*
X147798Y494597D01*
X147699Y494588D01*
X147601Y494575D01*
X147503Y494558D01*
X147405Y494537D01*
X147309Y494512D01*
X147214Y494484D01*
X147120Y494452D01*
X147027Y494417D01*
X146935Y494378D01*
X146845Y494335D01*
X146757Y494290D01*
X146670Y494240D01*
X146586Y494188D01*
X146503Y494132D01*
X146423Y494074D01*
X146345Y494012D01*
X146270Y493947D01*
X146197Y493879D01*
X146127Y493809D01*
X146059Y493736D01*
X145994Y493661D01*
X145932Y493583D01*
X145874Y493503D01*
X145818Y493420D01*
X145766Y493336D01*
X145716Y493249D01*
X145671Y493161D01*
X145628Y493071D01*
X145589Y492979D01*
X145554Y492886D01*
X145522Y492792D01*
X145494Y492697D01*
X145469Y492601D01*
X145448Y492503D01*
X145431Y492405D01*
X145418Y492307D01*
X145409Y492208D01*
X145403Y492108D01*
X145401Y492009D01*
X145401Y488114D01*
X140208Y488114D01*
X140208Y494605D01*
D13*
X95250Y556260D02*
X96329Y557050D01*
X97387Y557867D01*
X98426Y558709D01*
X99443Y559577D01*
X100440Y560469D01*
X101413Y561385D01*
X102365Y562325D01*
X103293Y563287D01*
X104197Y564273D01*
X105076Y565280D01*
X105931Y566308D01*
X106760Y567357D01*
X107564Y568426D01*
X108341Y569514D01*
X109091Y570621D01*
X109814Y571746D01*
X110509Y572888D01*
X111176Y574047D01*
X111814Y575222D01*
X112423Y576412D01*
X113004Y577617D01*
X113554Y578835D01*
X114074Y580067D01*
X114564Y581311D01*
X115024Y582567D01*
X115453Y583833D01*
X115850Y585110D01*
X116216Y586396D01*
X116551Y587691D01*
X116854Y588993D01*
X117124Y590303D01*
X117363Y591618D01*
X117569Y592939D01*
X117743Y594265D01*
X117885Y595595D01*
X117994Y596927D01*
X118070Y598262D01*
X118114Y599599D01*
X118125Y600936D01*
X118103Y602273D01*
X118048Y603609D01*
X117961Y604943D01*
X117841Y606275D01*
X117688Y607603D01*
X117503Y608928D01*
X117286Y610247D01*
X117036Y611561D01*
X116755Y612868D01*
X116441Y614168D01*
X116096Y615459D01*
X115719Y616742D01*
X115311Y618016D01*
X114872Y619279D01*
X114402Y620531D01*
X113902Y621771D01*
X113371Y622998D01*
X112811Y624212D01*
X112221Y625412D01*
X111602Y626597D01*
X110953Y627767D01*
X110277Y628920D01*
X109573Y630056D01*
X108840Y631175D01*
X108081Y632276D01*
X107295Y633358D01*
X106483Y634420D01*
X105645Y635462D01*
X104782Y636483D01*
X103894Y637483D01*
X102982Y638460D01*
X102046Y639416D01*
X101087Y640347D01*
X100105Y641256D01*
X99102Y642139D01*
X98077Y642998D01*
X97032Y643832D01*
X95966Y644640D01*
X94881Y645421D01*
X93778Y646176D01*
X92656Y646904D01*
X91516Y647603D01*
X90360Y648275D01*
X89188Y648918D01*
X88000Y649533D01*
X86798Y650118D01*
X85581Y650673D01*
X84352Y651199D01*
X83110Y651694D01*
X81856Y652158D01*
X80591Y652592D01*
X79316Y652995D01*
X78032Y653367D01*
X76739Y653707D01*
X75437Y654015D01*
X74129Y654291D01*
X72814Y654535D01*
X71494Y654747D01*
X70169Y654926D01*
X68840Y655073D01*
X67508Y655188D01*
X66173Y655270D01*
X64837Y655319D01*
X63500Y655335D01*
X62163Y655319D01*
X60827Y655270D01*
X59492Y655188D01*
X58160Y655073D01*
X56831Y654926D01*
X55506Y654747D01*
X54186Y654535D01*
X52871Y654291D01*
X51563Y654015D01*
X50261Y653707D01*
X48968Y653367D01*
X47684Y652995D01*
X46409Y652592D01*
X45144Y652158D01*
X43890Y651694D01*
X42648Y651199D01*
X41419Y650673D01*
X40202Y650118D01*
X39000Y649533D01*
X37812Y648918D01*
X36640Y648275D01*
X35484Y647603D01*
X34344Y646904D01*
X33222Y646176D01*
X32119Y645421D01*
X31034Y644640D01*
X29968Y643832D01*
X28923Y642998D01*
X27898Y642139D01*
X26895Y641256D01*
X25913Y640347D01*
X24954Y639416D01*
X24018Y638460D01*
X23106Y637483D01*
X22218Y636483D01*
X21355Y635462D01*
X20517Y634420D01*
X19705Y633358D01*
X18919Y632276D01*
X18160Y631175D01*
X17427Y630056D01*
X16723Y628920D01*
X16047Y627767D01*
X15398Y626597D01*
X14779Y625412D01*
X14189Y624212D01*
X13629Y622998D01*
X13098Y621771D01*
X12598Y620531D01*
X12128Y619279D01*
X11689Y618016D01*
X11281Y616742D01*
X10904Y615459D01*
X10559Y614168D01*
X10245Y612868D01*
X9964Y611561D01*
X9714Y610247D01*
X9497Y608928D01*
X9312Y607603D01*
X9159Y606275D01*
X9039Y604943D01*
X8952Y603609D01*
X8897Y602273D01*
X8875Y600936D01*
X8886Y599599D01*
X8930Y598262D01*
X9006Y596927D01*
X9115Y595595D01*
X9257Y594265D01*
X9431Y592939D01*
X9637Y591618D01*
X9876Y590303D01*
X10146Y588993D01*
X10449Y587691D01*
X10784Y586396D01*
X11150Y585110D01*
X11547Y583833D01*
X11976Y582567D01*
X12436Y581311D01*
X12926Y580067D01*
X13446Y578835D01*
X13996Y577617D01*
X14577Y576412D01*
X15186Y575222D01*
X15824Y574047D01*
X16491Y572888D01*
X17186Y571746D01*
X17909Y570621D01*
X18659Y569514D01*
X19436Y568426D01*
X20240Y567357D01*
X21069Y566308D01*
X21924Y565280D01*
X22803Y564273D01*
X23707Y563287D01*
X24635Y562325D01*
X25587Y561385D01*
X26560Y560469D01*
X27557Y559577D01*
X28574Y558709D01*
X29613Y557867D01*
X30671Y557050D01*
X31750Y556260D01*
X35560Y565150D02*
X44450Y571500D01*
X57150Y565150D01*
X57150Y552450D01*
X50800Y552450D01*
X50800Y539750D01*
X76200Y539750D02*
X76200Y552450D01*
X69850Y552450D01*
X69850Y565150D01*
X82550Y571500D01*
X91440Y565150D01*
X62230Y600710D02*
X72390Y610870D01*
X62230Y600710D02*
X58420Y604520D01*
X58420Y596900D01*
X49530Y588010D01*
X67310Y595630D02*
X77470Y605790D01*
X67310Y595630D02*
X71120Y591820D01*
X63500Y591820D01*
X54610Y582930D01*
X45466Y596900D02*
X45471Y597343D01*
X45488Y597785D01*
X45515Y598227D01*
X45553Y598668D01*
X45602Y599108D01*
X45661Y599546D01*
X45732Y599983D01*
X45813Y600418D01*
X45904Y600851D01*
X46006Y601282D01*
X46119Y601710D01*
X46243Y602135D01*
X46376Y602557D01*
X46520Y602975D01*
X46674Y603390D01*
X46839Y603801D01*
X47013Y604208D01*
X47197Y604611D01*
X47392Y605008D01*
X47595Y605401D01*
X47809Y605789D01*
X48032Y606171D01*
X48264Y606548D01*
X48505Y606919D01*
X48756Y607284D01*
X49015Y607643D01*
X49283Y607995D01*
X49560Y608341D01*
X49844Y608679D01*
X50138Y609011D01*
X50439Y609335D01*
X50748Y609652D01*
X51065Y609961D01*
X51389Y610262D01*
X51721Y610556D01*
X52059Y610840D01*
X52405Y611117D01*
X52757Y611385D01*
X53116Y611644D01*
X53481Y611895D01*
X53852Y612136D01*
X54229Y612368D01*
X54611Y612591D01*
X54999Y612805D01*
X55392Y613008D01*
X55789Y613203D01*
X56192Y613387D01*
X56599Y613561D01*
X57010Y613726D01*
X57425Y613880D01*
X57843Y614024D01*
X58265Y614157D01*
X58690Y614281D01*
X59118Y614394D01*
X59549Y614496D01*
X59982Y614587D01*
X60417Y614668D01*
X60854Y614739D01*
X61292Y614798D01*
X61732Y614847D01*
X62173Y614885D01*
X62615Y614912D01*
X63057Y614929D01*
X63500Y614934D01*
X63943Y614929D01*
X64385Y614912D01*
X64827Y614885D01*
X65268Y614847D01*
X65708Y614798D01*
X66146Y614739D01*
X66583Y614668D01*
X67018Y614587D01*
X67451Y614496D01*
X67882Y614394D01*
X68310Y614281D01*
X68735Y614157D01*
X69157Y614024D01*
X69575Y613880D01*
X69990Y613726D01*
X70401Y613561D01*
X70808Y613387D01*
X71211Y613203D01*
X71608Y613008D01*
X72001Y612805D01*
X72389Y612591D01*
X72771Y612368D01*
X73148Y612136D01*
X73519Y611895D01*
X73884Y611644D01*
X74243Y611385D01*
X74595Y611117D01*
X74941Y610840D01*
X75279Y610556D01*
X75611Y610262D01*
X75935Y609961D01*
X76252Y609652D01*
X76561Y609335D01*
X76862Y609011D01*
X77156Y608679D01*
X77440Y608341D01*
X77717Y607995D01*
X77985Y607643D01*
X78244Y607284D01*
X78495Y606919D01*
X78736Y606548D01*
X78968Y606171D01*
X79191Y605789D01*
X79405Y605401D01*
X79608Y605008D01*
X79803Y604611D01*
X79987Y604208D01*
X80161Y603801D01*
X80326Y603390D01*
X80480Y602975D01*
X80624Y602557D01*
X80757Y602135D01*
X80881Y601710D01*
X80994Y601282D01*
X81096Y600851D01*
X81187Y600418D01*
X81268Y599983D01*
X81339Y599546D01*
X81398Y599108D01*
X81447Y598668D01*
X81485Y598227D01*
X81512Y597785D01*
X81529Y597343D01*
X81534Y596900D01*
X81529Y596457D01*
X81512Y596015D01*
X81485Y595573D01*
X81447Y595132D01*
X81398Y594692D01*
X81339Y594254D01*
X81268Y593817D01*
X81187Y593382D01*
X81096Y592949D01*
X80994Y592518D01*
X80881Y592090D01*
X80757Y591665D01*
X80624Y591243D01*
X80480Y590825D01*
X80326Y590410D01*
X80161Y589999D01*
X79987Y589592D01*
X79803Y589189D01*
X79608Y588792D01*
X79405Y588399D01*
X79191Y588011D01*
X78968Y587629D01*
X78736Y587252D01*
X78495Y586881D01*
X78244Y586516D01*
X77985Y586157D01*
X77717Y585805D01*
X77440Y585459D01*
X77156Y585121D01*
X76862Y584789D01*
X76561Y584465D01*
X76252Y584148D01*
X75935Y583839D01*
X75611Y583538D01*
X75279Y583244D01*
X74941Y582960D01*
X74595Y582683D01*
X74243Y582415D01*
X73884Y582156D01*
X73519Y581905D01*
X73148Y581664D01*
X72771Y581432D01*
X72389Y581209D01*
X72001Y580995D01*
X71608Y580792D01*
X71211Y580597D01*
X70808Y580413D01*
X70401Y580239D01*
X69990Y580074D01*
X69575Y579920D01*
X69157Y579776D01*
X68735Y579643D01*
X68310Y579519D01*
X67882Y579406D01*
X67451Y579304D01*
X67018Y579213D01*
X66583Y579132D01*
X66146Y579061D01*
X65708Y579002D01*
X65268Y578953D01*
X64827Y578915D01*
X64385Y578888D01*
X63943Y578871D01*
X63500Y578866D01*
X63057Y578871D01*
X62615Y578888D01*
X62173Y578915D01*
X61732Y578953D01*
X61292Y579002D01*
X60854Y579061D01*
X60417Y579132D01*
X59982Y579213D01*
X59549Y579304D01*
X59118Y579406D01*
X58690Y579519D01*
X58265Y579643D01*
X57843Y579776D01*
X57425Y579920D01*
X57010Y580074D01*
X56599Y580239D01*
X56192Y580413D01*
X55789Y580597D01*
X55392Y580792D01*
X54999Y580995D01*
X54611Y581209D01*
X54229Y581432D01*
X53852Y581664D01*
X53481Y581905D01*
X53116Y582156D01*
X52757Y582415D01*
X52405Y582683D01*
X52059Y582960D01*
X51721Y583244D01*
X51389Y583538D01*
X51065Y583839D01*
X50748Y584148D01*
X50439Y584465D01*
X50138Y584789D01*
X49844Y585121D01*
X49560Y585459D01*
X49283Y585805D01*
X49015Y586157D01*
X48756Y586516D01*
X48505Y586881D01*
X48264Y587252D01*
X48032Y587629D01*
X47809Y588011D01*
X47595Y588399D01*
X47392Y588792D01*
X47197Y589189D01*
X47013Y589592D01*
X46839Y589999D01*
X46674Y590410D01*
X46520Y590825D01*
X46376Y591243D01*
X46243Y591665D01*
X46119Y592090D01*
X46006Y592518D01*
X45904Y592949D01*
X45813Y593382D01*
X45732Y593817D01*
X45661Y594254D01*
X45602Y594692D01*
X45553Y595132D01*
X45515Y595573D01*
X45488Y596015D01*
X45471Y596457D01*
X45466Y596900D01*
D12*
X35560Y596900D02*
X35568Y597586D01*
X35594Y598271D01*
X35636Y598955D01*
X35695Y599639D01*
X35770Y600320D01*
X35862Y601000D01*
X35971Y601677D01*
X36097Y602351D01*
X36239Y603022D01*
X36397Y603689D01*
X36572Y604352D01*
X36763Y605011D01*
X36970Y605664D01*
X37193Y606313D01*
X37432Y606955D01*
X37687Y607592D01*
X37957Y608222D01*
X38243Y608846D01*
X38543Y609462D01*
X38859Y610071D01*
X39190Y610672D01*
X39535Y611264D01*
X39895Y611848D01*
X40269Y612423D01*
X40657Y612988D01*
X41058Y613544D01*
X41474Y614090D01*
X41902Y614625D01*
X42344Y615150D01*
X42798Y615663D01*
X43265Y616166D01*
X43743Y616657D01*
X44234Y617135D01*
X44737Y617602D01*
X45250Y618056D01*
X45775Y618498D01*
X46310Y618926D01*
X46856Y619342D01*
X47412Y619743D01*
X47977Y620131D01*
X48552Y620505D01*
X49136Y620865D01*
X49728Y621210D01*
X50329Y621541D01*
X50938Y621857D01*
X51554Y622157D01*
X52178Y622443D01*
X52808Y622713D01*
X53445Y622968D01*
X54087Y623207D01*
X54736Y623430D01*
X55389Y623637D01*
X56048Y623828D01*
X56711Y624003D01*
X57378Y624161D01*
X58049Y624303D01*
X58723Y624429D01*
X59400Y624538D01*
X60080Y624630D01*
X60761Y624705D01*
X61445Y624764D01*
X62129Y624806D01*
X62814Y624832D01*
X63500Y624840D01*
X64186Y624832D01*
X64871Y624806D01*
X65555Y624764D01*
X66239Y624705D01*
X66920Y624630D01*
X67600Y624538D01*
X68277Y624429D01*
X68951Y624303D01*
X69622Y624161D01*
X70289Y624003D01*
X70952Y623828D01*
X71611Y623637D01*
X72264Y623430D01*
X72913Y623207D01*
X73555Y622968D01*
X74192Y622713D01*
X74822Y622443D01*
X75446Y622157D01*
X76062Y621857D01*
X76671Y621541D01*
X77272Y621210D01*
X77864Y620865D01*
X78448Y620505D01*
X79023Y620131D01*
X79588Y619743D01*
X80144Y619342D01*
X80690Y618926D01*
X81225Y618498D01*
X81750Y618056D01*
X82263Y617602D01*
X82766Y617135D01*
X83257Y616657D01*
X83735Y616166D01*
X84202Y615663D01*
X84656Y615150D01*
X85098Y614625D01*
X85526Y614090D01*
X85942Y613544D01*
X86343Y612988D01*
X86731Y612423D01*
X87105Y611848D01*
X87465Y611264D01*
X87810Y610672D01*
X88141Y610071D01*
X88457Y609462D01*
X88757Y608846D01*
X89043Y608222D01*
X89313Y607592D01*
X89568Y606955D01*
X89807Y606313D01*
X90030Y605664D01*
X90237Y605011D01*
X90428Y604352D01*
X90603Y603689D01*
X90761Y603022D01*
X90903Y602351D01*
X91029Y601677D01*
X91138Y601000D01*
X91230Y600320D01*
X91305Y599639D01*
X91364Y598955D01*
X91406Y598271D01*
X91432Y597586D01*
X91440Y596900D01*
X91432Y596214D01*
X91406Y595529D01*
X91364Y594845D01*
X91305Y594161D01*
X91230Y593480D01*
X91138Y592800D01*
X91029Y592123D01*
X90903Y591449D01*
X90761Y590778D01*
X90603Y590111D01*
X90428Y589448D01*
X90237Y588789D01*
X90030Y588136D01*
X89807Y587487D01*
X89568Y586845D01*
X89313Y586208D01*
X89043Y585578D01*
X88757Y584954D01*
X88457Y584338D01*
X88141Y583729D01*
X87810Y583128D01*
X87465Y582536D01*
X87105Y581952D01*
X86731Y581377D01*
X86343Y580812D01*
X85942Y580256D01*
X85526Y579710D01*
X85098Y579175D01*
X84656Y578650D01*
X84202Y578137D01*
X83735Y577634D01*
X83257Y577143D01*
X82766Y576665D01*
X82263Y576198D01*
X81750Y575744D01*
X81225Y575302D01*
X80690Y574874D01*
X80144Y574458D01*
X79588Y574057D01*
X79023Y573669D01*
X78448Y573295D01*
X77864Y572935D01*
X77272Y572590D01*
X76671Y572259D01*
X76062Y571943D01*
X75446Y571643D01*
X74822Y571357D01*
X74192Y571087D01*
X73555Y570832D01*
X72913Y570593D01*
X72264Y570370D01*
X71611Y570163D01*
X70952Y569972D01*
X70289Y569797D01*
X69622Y569639D01*
X68951Y569497D01*
X68277Y569371D01*
X67600Y569262D01*
X66920Y569170D01*
X66239Y569095D01*
X65555Y569036D01*
X64871Y568994D01*
X64186Y568968D01*
X63500Y568960D01*
X62814Y568968D01*
X62129Y568994D01*
X61445Y569036D01*
X60761Y569095D01*
X60080Y569170D01*
X59400Y569262D01*
X58723Y569371D01*
X58049Y569497D01*
X57378Y569639D01*
X56711Y569797D01*
X56048Y569972D01*
X55389Y570163D01*
X54736Y570370D01*
X54087Y570593D01*
X53445Y570832D01*
X52808Y571087D01*
X52178Y571357D01*
X51554Y571643D01*
X50938Y571943D01*
X50329Y572259D01*
X49728Y572590D01*
X49136Y572935D01*
X48552Y573295D01*
X47977Y573669D01*
X47412Y574057D01*
X46856Y574458D01*
X46310Y574874D01*
X45775Y575302D01*
X45250Y575744D01*
X44737Y576198D01*
X44234Y576665D01*
X43743Y577143D01*
X43265Y577634D01*
X42798Y578137D01*
X42344Y578650D01*
X41902Y579175D01*
X41474Y579710D01*
X41058Y580256D01*
X40657Y580812D01*
X40269Y581377D01*
X39895Y581952D01*
X39535Y582536D01*
X39190Y583128D01*
X38859Y583729D01*
X38543Y584338D01*
X38243Y584954D01*
X37957Y585578D01*
X37687Y586208D01*
X37432Y586845D01*
X37193Y587487D01*
X36970Y588136D01*
X36763Y588789D01*
X36572Y589448D01*
X36397Y590111D01*
X36239Y590778D01*
X36097Y591449D01*
X35971Y592123D01*
X35862Y592800D01*
X35770Y593480D01*
X35695Y594161D01*
X35636Y594845D01*
X35594Y595529D01*
X35568Y596214D01*
X35560Y596900D01*
D13*
X32385Y661035D02*
X32385Y672465D01*
X35560Y672465D01*
X35671Y672463D01*
X35781Y672457D01*
X35892Y672448D01*
X36002Y672434D01*
X36111Y672417D01*
X36220Y672396D01*
X36328Y672371D01*
X36435Y672342D01*
X36541Y672310D01*
X36646Y672274D01*
X36749Y672234D01*
X36851Y672191D01*
X36952Y672144D01*
X37051Y672093D01*
X37148Y672040D01*
X37242Y671983D01*
X37335Y671922D01*
X37426Y671859D01*
X37515Y671792D01*
X37601Y671722D01*
X37684Y671649D01*
X37766Y671574D01*
X37844Y671496D01*
X37919Y671414D01*
X37992Y671331D01*
X38062Y671245D01*
X38129Y671156D01*
X38192Y671065D01*
X38253Y670972D01*
X38310Y670877D01*
X38363Y670781D01*
X38414Y670682D01*
X38461Y670581D01*
X38504Y670479D01*
X38544Y670376D01*
X38580Y670271D01*
X38612Y670165D01*
X38641Y670058D01*
X38666Y669950D01*
X38687Y669841D01*
X38704Y669732D01*
X38718Y669622D01*
X38727Y669511D01*
X38733Y669401D01*
X38735Y669290D01*
X38733Y669179D01*
X38727Y669069D01*
X38718Y668958D01*
X38704Y668848D01*
X38687Y668739D01*
X38666Y668630D01*
X38641Y668522D01*
X38612Y668415D01*
X38580Y668309D01*
X38544Y668204D01*
X38504Y668101D01*
X38461Y667999D01*
X38414Y667898D01*
X38363Y667799D01*
X38310Y667703D01*
X38253Y667608D01*
X38192Y667515D01*
X38129Y667424D01*
X38062Y667335D01*
X37992Y667249D01*
X37919Y667166D01*
X37844Y667084D01*
X37766Y667006D01*
X37684Y666931D01*
X37601Y666858D01*
X37515Y666788D01*
X37426Y666721D01*
X37335Y666658D01*
X37242Y666597D01*
X37147Y666540D01*
X37051Y666487D01*
X36952Y666436D01*
X36851Y666389D01*
X36749Y666346D01*
X36646Y666306D01*
X36541Y666270D01*
X36435Y666238D01*
X36328Y666209D01*
X36220Y666184D01*
X36111Y666163D01*
X36002Y666146D01*
X35892Y666132D01*
X35781Y666123D01*
X35671Y666117D01*
X35560Y666115D01*
X32385Y666115D01*
X36195Y666115D02*
X38735Y661035D01*
X43732Y667385D02*
X47542Y667385D01*
X47642Y667383D01*
X47741Y667377D01*
X47841Y667367D01*
X47939Y667354D01*
X48038Y667336D01*
X48135Y667315D01*
X48231Y667290D01*
X48327Y667261D01*
X48421Y667228D01*
X48514Y667192D01*
X48605Y667152D01*
X48695Y667108D01*
X48783Y667061D01*
X48869Y667011D01*
X48953Y666957D01*
X49035Y666900D01*
X49114Y666840D01*
X49192Y666776D01*
X49266Y666710D01*
X49338Y666641D01*
X49407Y666569D01*
X49473Y666495D01*
X49537Y666417D01*
X49597Y666338D01*
X49654Y666256D01*
X49708Y666172D01*
X49758Y666086D01*
X49805Y665998D01*
X49849Y665908D01*
X49889Y665817D01*
X49925Y665724D01*
X49958Y665630D01*
X49987Y665534D01*
X50012Y665438D01*
X50033Y665341D01*
X50051Y665242D01*
X50064Y665144D01*
X50074Y665044D01*
X50080Y664945D01*
X50082Y664845D01*
X50082Y664210D01*
X50080Y664099D01*
X50074Y663989D01*
X50065Y663878D01*
X50051Y663768D01*
X50034Y663659D01*
X50013Y663550D01*
X49988Y663442D01*
X49959Y663335D01*
X49927Y663229D01*
X49891Y663124D01*
X49851Y663021D01*
X49808Y662919D01*
X49761Y662818D01*
X49710Y662719D01*
X49657Y662623D01*
X49600Y662528D01*
X49539Y662435D01*
X49476Y662344D01*
X49409Y662255D01*
X49339Y662169D01*
X49266Y662086D01*
X49191Y662004D01*
X49113Y661926D01*
X49031Y661851D01*
X48948Y661778D01*
X48862Y661708D01*
X48773Y661641D01*
X48682Y661578D01*
X48589Y661517D01*
X48494Y661460D01*
X48398Y661407D01*
X48299Y661356D01*
X48198Y661309D01*
X48096Y661266D01*
X47993Y661226D01*
X47888Y661190D01*
X47782Y661158D01*
X47675Y661129D01*
X47567Y661104D01*
X47458Y661083D01*
X47349Y661066D01*
X47239Y661052D01*
X47128Y661043D01*
X47018Y661037D01*
X46907Y661035D01*
X46796Y661037D01*
X46686Y661043D01*
X46575Y661052D01*
X46465Y661066D01*
X46356Y661083D01*
X46247Y661104D01*
X46139Y661129D01*
X46032Y661158D01*
X45926Y661190D01*
X45821Y661226D01*
X45718Y661266D01*
X45616Y661309D01*
X45515Y661356D01*
X45416Y661407D01*
X45320Y661460D01*
X45225Y661517D01*
X45132Y661578D01*
X45041Y661641D01*
X44952Y661708D01*
X44866Y661778D01*
X44783Y661851D01*
X44701Y661926D01*
X44623Y662004D01*
X44548Y662086D01*
X44475Y662169D01*
X44405Y662255D01*
X44338Y662344D01*
X44275Y662435D01*
X44214Y662528D01*
X44157Y662623D01*
X44104Y662719D01*
X44053Y662818D01*
X44006Y662919D01*
X43963Y663021D01*
X43923Y663124D01*
X43887Y663229D01*
X43855Y663335D01*
X43826Y663442D01*
X43801Y663550D01*
X43780Y663659D01*
X43763Y663768D01*
X43749Y663878D01*
X43740Y663989D01*
X43734Y664099D01*
X43732Y664210D01*
X43732Y667385D01*
X43734Y667525D01*
X43740Y667665D01*
X43749Y667805D01*
X43763Y667944D01*
X43780Y668083D01*
X43801Y668221D01*
X43826Y668359D01*
X43855Y668496D01*
X43887Y668632D01*
X43924Y668767D01*
X43964Y668901D01*
X44007Y669034D01*
X44055Y669166D01*
X44105Y669297D01*
X44160Y669426D01*
X44218Y669553D01*
X44279Y669679D01*
X44344Y669803D01*
X44413Y669925D01*
X44484Y670045D01*
X44559Y670163D01*
X44637Y670280D01*
X44719Y670394D01*
X44803Y670505D01*
X44891Y670614D01*
X44981Y670721D01*
X45075Y670826D01*
X45171Y670927D01*
X45270Y671026D01*
X45371Y671122D01*
X45476Y671216D01*
X45583Y671306D01*
X45692Y671394D01*
X45803Y671478D01*
X45917Y671560D01*
X46034Y671638D01*
X46152Y671713D01*
X46272Y671784D01*
X46394Y671853D01*
X46518Y671918D01*
X46644Y671979D01*
X46771Y672037D01*
X46900Y672092D01*
X47031Y672142D01*
X47163Y672190D01*
X47296Y672233D01*
X47430Y672273D01*
X47565Y672310D01*
X47701Y672342D01*
X47838Y672371D01*
X47976Y672396D01*
X48114Y672417D01*
X48253Y672434D01*
X48392Y672448D01*
X48532Y672457D01*
X48672Y672463D01*
X48812Y672465D01*
D15*
X264900Y347700D02*
X264900Y326200D01*
X264900Y347700D02*
X270900Y347700D01*
X293900Y347700D02*
X293900Y326200D01*
X293900Y347700D02*
X287900Y347700D01*
D10*
X259842Y314904D02*
X248158Y314904D01*
X248158Y318149D02*
X248158Y311658D01*
X248158Y322820D02*
X259842Y322820D01*
X254649Y326715D02*
X248158Y322820D01*
X254649Y326715D02*
X248158Y330609D01*
X259842Y330609D01*
X250754Y336042D02*
X248158Y339288D01*
X259842Y339288D01*
X259842Y342533D02*
X259842Y336042D01*
D15*
X137900Y326200D02*
X137900Y347700D01*
X143900Y347700D01*
X166900Y347700D02*
X166900Y326200D01*
X166900Y347700D02*
X160900Y347700D01*
D10*
X132842Y314904D02*
X121158Y314904D01*
X121158Y318149D02*
X121158Y311658D01*
X121158Y322820D02*
X132842Y322820D01*
X127649Y326715D02*
X121158Y322820D01*
X127649Y326715D02*
X121158Y330609D01*
X132842Y330609D01*
X121158Y339612D02*
X121160Y339719D01*
X121166Y339825D01*
X121176Y339931D01*
X121189Y340037D01*
X121207Y340143D01*
X121228Y340247D01*
X121253Y340351D01*
X121282Y340454D01*
X121314Y340555D01*
X121351Y340655D01*
X121391Y340754D01*
X121434Y340852D01*
X121481Y340948D01*
X121532Y341042D01*
X121586Y341134D01*
X121643Y341224D01*
X121703Y341312D01*
X121767Y341397D01*
X121834Y341480D01*
X121904Y341561D01*
X121976Y341639D01*
X122052Y341715D01*
X122130Y341787D01*
X122211Y341857D01*
X122294Y341924D01*
X122379Y341988D01*
X122467Y342048D01*
X122557Y342105D01*
X122649Y342159D01*
X122743Y342210D01*
X122839Y342257D01*
X122937Y342300D01*
X123036Y342340D01*
X123136Y342377D01*
X123237Y342409D01*
X123340Y342438D01*
X123444Y342463D01*
X123548Y342484D01*
X123654Y342502D01*
X123760Y342515D01*
X123866Y342525D01*
X123972Y342531D01*
X124079Y342533D01*
X121158Y339612D02*
X121160Y339491D01*
X121166Y339370D01*
X121176Y339250D01*
X121189Y339129D01*
X121207Y339010D01*
X121228Y338890D01*
X121253Y338772D01*
X121282Y338655D01*
X121315Y338538D01*
X121351Y338423D01*
X121392Y338309D01*
X121435Y338196D01*
X121483Y338084D01*
X121534Y337975D01*
X121589Y337867D01*
X121647Y337760D01*
X121708Y337656D01*
X121773Y337554D01*
X121841Y337454D01*
X121912Y337356D01*
X121986Y337260D01*
X122063Y337167D01*
X122144Y337077D01*
X122227Y336989D01*
X122313Y336904D01*
X122402Y336821D01*
X122493Y336742D01*
X122587Y336665D01*
X122683Y336592D01*
X122781Y336522D01*
X122882Y336455D01*
X122985Y336391D01*
X123090Y336331D01*
X123197Y336273D01*
X123305Y336220D01*
X123415Y336170D01*
X123527Y336124D01*
X123640Y336081D01*
X123755Y336042D01*
X126351Y341559D02*
X126273Y341638D01*
X126193Y341714D01*
X126110Y341787D01*
X126024Y341857D01*
X125937Y341924D01*
X125846Y341988D01*
X125754Y342048D01*
X125660Y342106D01*
X125563Y342160D01*
X125465Y342210D01*
X125365Y342257D01*
X125264Y342301D01*
X125161Y342341D01*
X125056Y342377D01*
X124951Y342409D01*
X124844Y342438D01*
X124737Y342463D01*
X124628Y342485D01*
X124519Y342502D01*
X124410Y342516D01*
X124300Y342525D01*
X124189Y342531D01*
X124079Y342533D01*
X126351Y341559D02*
X132842Y336042D01*
X132842Y342533D01*
M02*
